<?xml version="1.0" encoding="UTF-8" standalone="no"?>
<!DOCTYPE svg PUBLIC "-//W3C//DTD SVG 1.1//EN"
 "http://www.w3.org/Graphics/SVG/1.1/DTD/svg11.dtd">
<!-- Generated by graphviz version 2.44.1 (20200629.0846)
 -->
<!-- Title: dependencies Pages: 1 -->
<svg width="1804pt" height="349pt"
 viewBox="0.00 0.00 1804.00 349.00" xmlns="http://www.w3.org/2000/svg" xmlns:xlink="http://www.w3.org/1999/xlink">
<g id="graph0" class="graph" transform="scale(1 1) rotate(0) translate(4 345)">
<title>dependencies</title>
<polygon fill="white" stroke="transparent" points="-4,4 -4,-345 1800,-345 1800,4 -4,4"/>
<text text-anchor="start" x="877.01" y="-42.4" font-family="sans-serif" font-weight="bold" font-size="14.00">Legend</text>
<polygon fill="#ffffb3" stroke="transparent" points="664,-10 664,-30 684,-30 684,-10 664,-10"/>
<text text-anchor="start" x="687.63" y="-15.4" font-family="sans-serif" font-size="14.00"> &#160;Declarations</text>
<polygon fill="#8dd3c7" stroke="transparent" points="777,-10 777,-30 797,-30 797,-10 777,-10"/>
<text text-anchor="start" x="800.73" y="-15.4" font-family="sans-serif" font-size="14.00"> &#160;Module</text>
<polygon fill="#80b1d3" stroke="transparent" points="863,-10 863,-30 883,-30 883,-10 863,-10"/>
<text text-anchor="start" x="886.78" y="-15.4" font-family="sans-serif" font-size="14.00"> &#160;Bootstrap</text>
<polygon fill="#fdb462" stroke="transparent" points="960,-10 960,-30 980,-30 980,-10 960,-10"/>
<text text-anchor="start" x="983.67" y="-15.4" font-family="sans-serif" font-size="14.00"> &#160;Providers</text>
<polygon fill="#fb8072" stroke="transparent" points="1056,-10 1056,-30 1076,-30 1076,-10 1056,-10"/>
<text text-anchor="start" x="1079.73" y="-15.4" font-family="sans-serif" font-size="14.00"> &#160;Exports</text>
<g id="clust1" class="cluster">
<title>cluster_DashboardModule</title>
<polygon fill="none" stroke="black" stroke-dasharray="1,5" points="8,-70 8,-333 1788,-333 1788,-70 8,-70"/>
</g>
<g id="clust9" class="cluster">
<title>cluster_DashboardModule_exports</title>
<polygon fill="none" stroke="black" points="894,-273 894,-325 996,-325 996,-273 894,-273"/>
</g>
<g id="clust2" class="cluster">
<title>cluster_DashboardModule_declarations</title>
<polygon fill="none" stroke="black" points="16,-143 16,-195 704,-195 704,-143 16,-143"/>
</g>
<g id="clust8" class="cluster">
<title>cluster_DashboardModule_imports</title>
<polygon fill="none" stroke="black" points="870,-143 870,-195 1780,-195 1780,-143 870,-143"/>
</g>
<g id="clust11" class="cluster">
<title>cluster_DashboardModule_providers</title>
<polygon fill="none" stroke="black" points="712,-143 712,-195 862,-195 862,-143 712,-143"/>
</g>
<g id="clust3" class="cluster">
<title>cluster_DashboardModule_DashboardComponent_providers</title>
<polygon fill="none" stroke="black" points="554,-78 554,-130 696,-130 696,-78 554,-78"/>
</g>
<!-- DashboardComponent -->
<g id="node1" class="node">
<title>DashboardComponent</title>
<polygon fill="#ffffb3" stroke="black" points="695.97,-187 554.03,-187 554.03,-151 695.97,-151 695.97,-187"/>
<text text-anchor="middle" x="625" y="-164.8" font-family="Times,serif" font-size="14.00">DashboardComponent</text>
</g>
<!-- DashboardModule -->
<g id="node6" class="node">
<title>DashboardModule</title>
<polygon fill="#8dd3c7" stroke="black" points="1005.19,-252 1002.19,-256 981.19,-256 978.19,-252 884.81,-252 884.81,-216 1005.19,-216 1005.19,-252"/>
<text text-anchor="middle" x="945" y="-229.8" font-family="Times,serif" font-size="14.00">DashboardModule</text>
</g>
<!-- DashboardComponent&#45;&gt;DashboardModule -->
<g id="edge1" class="edge">
<title>DashboardComponent&#45;&gt;DashboardModule</title>
<path fill="none" stroke="black" d="M625,-187.03C625,-204.06 625,-227 625,-227 625,-227 874.81,-227 874.81,-227"/>
<polygon fill="black" stroke="black" points="874.81,-230.5 884.81,-227 874.81,-223.5 874.81,-230.5"/>
</g>
<!-- HeaderComponent -->
<g id="node2" class="node">
<title>HeaderComponent</title>
<polygon fill="#ffffb3" stroke="black" points="535.74,-187 414.26,-187 414.26,-151 535.74,-151 535.74,-187"/>
<text text-anchor="middle" x="475" y="-164.8" font-family="Times,serif" font-size="14.00">HeaderComponent</text>
</g>
<!-- HeaderComponent&#45;&gt;DashboardModule -->
<g id="edge3" class="edge">
<title>HeaderComponent&#45;&gt;DashboardModule</title>
<path fill="none" stroke="black" d="M475,-187.22C475,-205.83 475,-232 475,-232 475,-232 874.52,-232 874.52,-232"/>
<polygon fill="black" stroke="black" points="874.52,-235.5 884.52,-232 874.52,-228.5 874.52,-235.5"/>
</g>
<!-- NavigationComponent -->
<g id="node3" class="node">
<title>NavigationComponent</title>
<polygon fill="#ffffb3" stroke="black" points="395.54,-187 252.46,-187 252.46,-151 395.54,-151 395.54,-187"/>
<text text-anchor="middle" x="324" y="-164.8" font-family="Times,serif" font-size="14.00">NavigationComponent</text>
</g>
<!-- NavigationComponent&#45;&gt;DashboardModule -->
<g id="edge4" class="edge">
<title>NavigationComponent&#45;&gt;DashboardModule</title>
<path fill="none" stroke="black" d="M324,-187.22C324,-207.37 324,-237 324,-237 324,-237 874.89,-237 874.89,-237"/>
<polygon fill="black" stroke="black" points="874.89,-240.5 884.89,-237 874.89,-233.5 874.89,-240.5"/>
</g>
<!-- MainComponent -->
<g id="node4" class="node">
<title>MainComponent</title>
<polygon fill="#ffffb3" stroke="black" points="234.38,-187 123.62,-187 123.62,-151 234.38,-151 234.38,-187"/>
<text text-anchor="middle" x="179" y="-164.8" font-family="Times,serif" font-size="14.00">MainComponent</text>
</g>
<!-- MainComponent&#45;&gt;DashboardModule -->
<g id="edge5" class="edge">
<title>MainComponent&#45;&gt;DashboardModule</title>
<path fill="none" stroke="black" d="M179,-187.04C179,-208.66 179,-242 179,-242 179,-242 874.89,-242 874.89,-242"/>
<polygon fill="black" stroke="black" points="874.89,-245.5 884.89,-242 874.89,-238.5 874.89,-245.5"/>
</g>
<!-- CelsiusPipe -->
<g id="node5" class="node">
<title>CelsiusPipe</title>
<polygon fill="#ffffb3" stroke="black" points="106.11,-187 23.89,-187 23.89,-151 106.11,-151 106.11,-187"/>
<text text-anchor="middle" x="65" y="-164.8" font-family="Times,serif" font-size="14.00">CelsiusPipe</text>
</g>
<!-- CelsiusPipe&#45;&gt;DashboardModule -->
<g id="edge6" class="edge">
<title>CelsiusPipe&#45;&gt;DashboardModule</title>
<path fill="none" stroke="black" d="M65,-187.09C65,-210.13 65,-247 65,-247 65,-247 874.86,-247 874.86,-247"/>
<polygon fill="black" stroke="black" points="874.86,-250.5 884.86,-247 874.86,-243.5 874.86,-250.5"/>
</g>
<!-- CelsiusPipe  -->
<g id="node15" class="node">
<title>CelsiusPipe </title>
<polygon fill="#fb8072" stroke="black" points="987.61,-317 902.39,-317 902.39,-281 987.61,-281 987.61,-317"/>
<text text-anchor="middle" x="945" y="-294.8" font-family="Times,serif" font-size="14.00">CelsiusPipe </text>
</g>
<!-- DashboardModule&#45;&gt;CelsiusPipe  -->
<g id="edge14" class="edge">
<title>DashboardModule&#45;&gt;CelsiusPipe </title>
<path fill="none" stroke="black" stroke-dasharray="5,2" d="M945,-252.11C945,-252.11 945,-270.99 945,-270.99"/>
<polygon fill="black" stroke="black" points="941.5,-270.99 945,-280.99 948.5,-270.99 941.5,-270.99"/>
</g>
<!-- VentsService -->
<g id="node7" class="node">
<title>VentsService</title>
<ellipse fill="#fdb462" stroke="black" cx="625" cy="-104" rx="62.54" ry="18"/>
<text text-anchor="middle" x="625" y="-99.8" font-family="Times,serif" font-size="14.00">VentsService</text>
</g>
<!-- VentsService&#45;&gt;DashboardComponent -->
<g id="edge2" class="edge">
<title>VentsService&#45;&gt;DashboardComponent</title>
<path fill="none" stroke="black" d="M625,-122.11C625,-122.11 625,-140.99 625,-140.99"/>
<polygon fill="black" stroke="black" points="621.5,-140.99 625,-150.99 628.5,-140.99 621.5,-140.99"/>
</g>
<!-- CommonModule -->
<g id="node8" class="node">
<title>CommonModule</title>
<polygon fill="#8dd3c7" stroke="black" points="1771.67,-187 1768.67,-191 1747.67,-191 1744.67,-187 1660.33,-187 1660.33,-151 1771.67,-151 1771.67,-187"/>
<text text-anchor="middle" x="1716" y="-164.8" font-family="Times,serif" font-size="14.00">CommonModule</text>
</g>
<!-- CommonModule&#45;&gt;DashboardModule -->
<g id="edge7" class="edge">
<title>CommonModule&#45;&gt;DashboardModule</title>
<path fill="none" stroke="black" d="M1716,-187.09C1716,-210.13 1716,-247 1716,-247 1716,-247 1015.18,-247 1015.18,-247"/>
<polygon fill="black" stroke="black" points="1015.18,-243.5 1005.18,-247 1015.18,-250.5 1015.18,-243.5"/>
</g>
<!-- RouterModule -->
<g id="node9" class="node">
<title>RouterModule</title>
<polygon fill="#8dd3c7" stroke="black" points="1641.65,-187 1638.65,-191 1617.65,-191 1614.65,-187 1544.35,-187 1544.35,-151 1641.65,-151 1641.65,-187"/>
<text text-anchor="middle" x="1593" y="-164.8" font-family="Times,serif" font-size="14.00">RouterModule</text>
</g>
<!-- RouterModule&#45;&gt;DashboardModule -->
<g id="edge8" class="edge">
<title>RouterModule&#45;&gt;DashboardModule</title>
<path fill="none" stroke="black" d="M1593,-187.04C1593,-208.66 1593,-242 1593,-242 1593,-242 1015.38,-242 1015.38,-242"/>
<polygon fill="black" stroke="black" points="1015.38,-238.5 1005.38,-242 1015.38,-245.5 1015.38,-238.5"/>
</g>
<!-- MatIconModule -->
<g id="node10" class="node">
<title>MatIconModule</title>
<polygon fill="#8dd3c7" stroke="black" points="1526.47,-187 1523.47,-191 1502.47,-191 1499.47,-187 1419.53,-187 1419.53,-151 1526.47,-151 1526.47,-187"/>
<text text-anchor="middle" x="1473" y="-164.8" font-family="Times,serif" font-size="14.00">MatIconModule</text>
</g>
<!-- MatIconModule&#45;&gt;DashboardModule -->
<g id="edge9" class="edge">
<title>MatIconModule&#45;&gt;DashboardModule</title>
<path fill="none" stroke="black" d="M1473,-187.22C1473,-207.37 1473,-237 1473,-237 1473,-237 1015.31,-237 1015.31,-237"/>
<polygon fill="black" stroke="black" points="1015.31,-233.5 1005.31,-237 1015.31,-240.5 1015.31,-233.5"/>
</g>
<!-- MatToolbarModule -->
<g id="node11" class="node">
<title>MatToolbarModule</title>
<polygon fill="#8dd3c7" stroke="black" points="1401.42,-187 1398.42,-191 1377.42,-191 1374.42,-187 1274.58,-187 1274.58,-151 1401.42,-151 1401.42,-187"/>
<text text-anchor="middle" x="1338" y="-164.8" font-family="Times,serif" font-size="14.00">MatToolbarModule</text>
</g>
<!-- MatToolbarModule&#45;&gt;DashboardModule -->
<g id="edge10" class="edge">
<title>MatToolbarModule&#45;&gt;DashboardModule</title>
<path fill="none" stroke="black" d="M1338,-187.22C1338,-205.83 1338,-232 1338,-232 1338,-232 1015.12,-232 1015.12,-232"/>
<polygon fill="black" stroke="black" points="1015.12,-228.5 1005.12,-232 1015.12,-235.5 1015.12,-228.5"/>
</g>
<!-- MatMenuModule -->
<g id="node12" class="node">
<title>MatMenuModule</title>
<polygon fill="#8dd3c7" stroke="black" points="1256.26,-187 1253.26,-191 1232.26,-191 1229.26,-187 1141.74,-187 1141.74,-151 1256.26,-151 1256.26,-187"/>
<text text-anchor="middle" x="1199" y="-164.8" font-family="Times,serif" font-size="14.00">MatMenuModule</text>
</g>
<!-- MatMenuModule&#45;&gt;DashboardModule -->
<g id="edge11" class="edge">
<title>MatMenuModule&#45;&gt;DashboardModule</title>
<path fill="none" stroke="black" d="M1199,-187.03C1199,-204.06 1199,-227 1199,-227 1199,-227 1015.19,-227 1015.19,-227"/>
<polygon fill="black" stroke="black" points="1015.19,-223.5 1005.19,-227 1015.19,-230.5 1015.19,-223.5"/>
</g>
<!-- ClaimModule -->
<g id="node13" class="node">
<title>ClaimModule</title>
<polygon fill="#8dd3c7" stroke="black" points="1123.77,-187 1120.77,-191 1099.77,-191 1096.77,-187 1030.23,-187 1030.23,-151 1123.77,-151 1123.77,-187"/>
<text text-anchor="middle" x="1077" y="-164.8" font-family="Times,serif" font-size="14.00">ClaimModule</text>
</g>
<!-- ClaimModule&#45;&gt;DashboardModule -->
<g id="edge12" class="edge">
<title>ClaimModule&#45;&gt;DashboardModule</title>
<path fill="none" stroke="black" d="M1077,-187.24C1077,-202.57 1077,-222 1077,-222 1077,-222 1015.21,-222 1015.21,-222"/>
<polygon fill="black" stroke="black" points="1015.21,-218.5 1005.21,-222 1015.21,-225.5 1015.21,-218.5"/>
</g>
<!-- VentControllModule -->
<g id="node14" class="node">
<title>VentControllModule</title>
<polygon fill="#8dd3c7" stroke="black" points="1011.93,-187 1008.93,-191 987.93,-191 984.93,-187 878.07,-187 878.07,-151 1011.93,-151 1011.93,-187"/>
<text text-anchor="middle" x="945" y="-164.8" font-family="Times,serif" font-size="14.00">VentControllModule</text>
</g>
<!-- VentControllModule&#45;&gt;DashboardModule -->
<g id="edge13" class="edge">
<title>VentControllModule&#45;&gt;DashboardModule</title>
<path fill="none" stroke="black" d="M945,-187.11C945,-187.11 945,-205.99 945,-205.99"/>
<polygon fill="black" stroke="black" points="941.5,-205.99 945,-215.99 948.5,-205.99 941.5,-205.99"/>
</g>
<!-- RoomsService -->
<g id="node16" class="node">
<title>RoomsService</title>
<ellipse fill="#fdb462" stroke="black" cx="787" cy="-169" rx="67.21" ry="18"/>
<text text-anchor="middle" x="787" y="-164.8" font-family="Times,serif" font-size="14.00">RoomsService</text>
</g>
<!-- RoomsService&#45;&gt;DashboardModule -->
<g id="edge15" class="edge">
<title>RoomsService&#45;&gt;DashboardModule</title>
<path fill="none" stroke="black" d="M787,-187.24C787,-202.57 787,-222 787,-222 787,-222 874.82,-222 874.82,-222"/>
<polygon fill="black" stroke="black" points="874.82,-225.5 884.82,-222 874.82,-218.5 874.82,-225.5"/>
</g>
</g>
</svg>
