<?xml version="1.0" encoding="UTF-8" standalone="no"?>
<!DOCTYPE svg PUBLIC "-//W3C//DTD SVG 1.1//EN"
 "http://www.w3.org/Graphics/SVG/1.1/DTD/svg11.dtd">
<!-- Generated by graphviz version 2.44.1 (20200629.0846)
 -->
<!-- Title: dependencies Pages: 1 -->
<svg width="1006pt" height="284pt"
 viewBox="0.00 0.00 1006.00 284.00" xmlns="http://www.w3.org/2000/svg" xmlns:xlink="http://www.w3.org/1999/xlink">
<g id="graph0" class="graph" transform="scale(1 1) rotate(0) translate(4 280)">
<title>dependencies</title>
<polygon fill="white" stroke="transparent" points="-4,4 -4,-280 1002,-280 1002,4 -4,4"/>
<text text-anchor="start" x="478.01" y="-42.4" font-family="sans-serif" font-weight="bold" font-size="14.00">Legend</text>
<polygon fill="#ffffb3" stroke="transparent" points="265,-10 265,-30 285,-30 285,-10 265,-10"/>
<text text-anchor="start" x="288.63" y="-15.4" font-family="sans-serif" font-size="14.00"> &#160;Declarations</text>
<polygon fill="#8dd3c7" stroke="transparent" points="378,-10 378,-30 398,-30 398,-10 378,-10"/>
<text text-anchor="start" x="401.73" y="-15.4" font-family="sans-serif" font-size="14.00"> &#160;Module</text>
<polygon fill="#80b1d3" stroke="transparent" points="464,-10 464,-30 484,-30 484,-10 464,-10"/>
<text text-anchor="start" x="487.78" y="-15.4" font-family="sans-serif" font-size="14.00"> &#160;Bootstrap</text>
<polygon fill="#fdb462" stroke="transparent" points="561,-10 561,-30 581,-30 581,-10 561,-10"/>
<text text-anchor="start" x="584.67" y="-15.4" font-family="sans-serif" font-size="14.00"> &#160;Providers</text>
<polygon fill="#fb8072" stroke="transparent" points="657,-10 657,-30 677,-30 677,-10 657,-10"/>
<text text-anchor="start" x="680.73" y="-15.4" font-family="sans-serif" font-size="14.00"> &#160;Exports</text>
<g id="clust1" class="cluster">
<title>cluster_DashboardModule</title>
<polygon fill="none" stroke="black" stroke-dasharray="1,5" points="8,-70 8,-268 990,-268 990,-70 8,-70"/>
</g>
<g id="clust2" class="cluster">
<title>cluster_DashboardModule_declarations</title>
<polygon fill="none" stroke="black" points="160,-78 160,-130 982,-130 982,-78 160,-78"/>
</g>
<g id="clust10" class="cluster">
<title>cluster_DashboardModule_exports</title>
<polygon fill="none" stroke="black" points="468,-208 468,-260 570,-260 570,-208 468,-208"/>
</g>
<g id="clust9" class="cluster">
<title>cluster_DashboardModule_imports</title>
<polygon fill="none" stroke="black" points="16,-78 16,-130 152,-130 152,-78 16,-78"/>
</g>
<!-- CelsiusPipe -->
<g id="node1" class="node">
<title>CelsiusPipe</title>
<polygon fill="#ffffb3" stroke="black" points="974.11,-122 891.89,-122 891.89,-86 974.11,-86 974.11,-122"/>
<text text-anchor="middle" x="933" y="-99.8" font-family="Times,serif" font-size="14.00">CelsiusPipe</text>
</g>
<!-- DashboardModule -->
<g id="node7" class="node">
<title>DashboardModule</title>
<polygon fill="#8dd3c7" stroke="black" points="579.19,-187 576.19,-191 555.19,-191 552.19,-187 458.81,-187 458.81,-151 579.19,-151 579.19,-187"/>
<text text-anchor="middle" x="519" y="-164.8" font-family="Times,serif" font-size="14.00">DashboardModule</text>
</g>
<!-- CelsiusPipe&#45;&gt;DashboardModule -->
<g id="edge1" class="edge">
<title>CelsiusPipe&#45;&gt;DashboardModule</title>
<path fill="none" stroke="black" d="M933,-122.29C933,-144.21 933,-178 933,-178 933,-178 589.2,-178 589.2,-178"/>
<polygon fill="black" stroke="black" points="589.2,-174.5 579.2,-178 589.2,-181.5 589.2,-174.5"/>
</g>
<!-- ClaimComponent -->
<g id="node2" class="node">
<title>ClaimComponent</title>
<polygon fill="#ffffb3" stroke="black" points="873.56,-122 758.44,-122 758.44,-86 873.56,-86 873.56,-122"/>
<text text-anchor="middle" x="816" y="-99.8" font-family="Times,serif" font-size="14.00">ClaimComponent</text>
</g>
<!-- ClaimComponent&#45;&gt;DashboardModule -->
<g id="edge2" class="edge">
<title>ClaimComponent&#45;&gt;DashboardModule</title>
<path fill="none" stroke="black" d="M816,-122.11C816,-141.34 816,-169 816,-169 816,-169 589.1,-169 589.1,-169"/>
<polygon fill="black" stroke="black" points="589.1,-165.5 579.1,-169 589.1,-172.5 589.1,-165.5"/>
</g>
<!-- DashboardComponent -->
<g id="node3" class="node">
<title>DashboardComponent</title>
<polygon fill="#ffffb3" stroke="black" points="739.97,-122 598.03,-122 598.03,-86 739.97,-86 739.97,-122"/>
<text text-anchor="middle" x="669" y="-99.8" font-family="Times,serif" font-size="14.00">DashboardComponent</text>
</g>
<!-- DashboardComponent&#45;&gt;DashboardModule -->
<g id="edge3" class="edge">
<title>DashboardComponent&#45;&gt;DashboardModule</title>
<path fill="none" stroke="black" d="M669,-122.03C669,-138.4 669,-160 669,-160 669,-160 589.15,-160 589.15,-160"/>
<polygon fill="black" stroke="black" points="589.15,-156.5 579.15,-160 589.15,-163.5 589.15,-156.5"/>
</g>
<!-- HeaderComponent -->
<g id="node4" class="node">
<title>HeaderComponent</title>
<polygon fill="#ffffb3" stroke="black" points="579.74,-122 458.26,-122 458.26,-86 579.74,-86 579.74,-122"/>
<text text-anchor="middle" x="519" y="-99.8" font-family="Times,serif" font-size="14.00">HeaderComponent</text>
</g>
<!-- HeaderComponent&#45;&gt;DashboardModule -->
<g id="edge4" class="edge">
<title>HeaderComponent&#45;&gt;DashboardModule</title>
<path fill="none" stroke="black" d="M519,-122.11C519,-122.11 519,-140.99 519,-140.99"/>
<polygon fill="black" stroke="black" points="515.5,-140.99 519,-150.99 522.5,-140.99 515.5,-140.99"/>
</g>
<!-- MainComponent -->
<g id="node5" class="node">
<title>MainComponent</title>
<polygon fill="#ffffb3" stroke="black" points="440.38,-122 329.62,-122 329.62,-86 440.38,-86 440.38,-122"/>
<text text-anchor="middle" x="385" y="-99.8" font-family="Times,serif" font-size="14.00">MainComponent</text>
</g>
<!-- MainComponent&#45;&gt;DashboardModule -->
<g id="edge5" class="edge">
<title>MainComponent&#45;&gt;DashboardModule</title>
<path fill="none" stroke="black" d="M385,-122.03C385,-138.4 385,-160 385,-160 385,-160 448.66,-160 448.66,-160"/>
<polygon fill="black" stroke="black" points="448.66,-163.5 458.66,-160 448.66,-156.5 448.66,-163.5"/>
</g>
<!-- NavigationComponent -->
<g id="node6" class="node">
<title>NavigationComponent</title>
<polygon fill="#ffffb3" stroke="black" points="311.54,-122 168.46,-122 168.46,-86 311.54,-86 311.54,-122"/>
<text text-anchor="middle" x="240" y="-99.8" font-family="Times,serif" font-size="14.00">NavigationComponent</text>
</g>
<!-- NavigationComponent&#45;&gt;DashboardModule -->
<g id="edge6" class="edge">
<title>NavigationComponent&#45;&gt;DashboardModule</title>
<path fill="none" stroke="black" d="M240,-122.11C240,-141.34 240,-169 240,-169 240,-169 448.8,-169 448.8,-169"/>
<polygon fill="black" stroke="black" points="448.8,-172.5 458.8,-169 448.8,-165.5 448.8,-172.5"/>
</g>
<!-- CelsiusPipe  -->
<g id="node9" class="node">
<title>CelsiusPipe </title>
<polygon fill="#fb8072" stroke="black" points="561.61,-252 476.39,-252 476.39,-216 561.61,-216 561.61,-252"/>
<text text-anchor="middle" x="519" y="-229.8" font-family="Times,serif" font-size="14.00">CelsiusPipe </text>
</g>
<!-- DashboardModule&#45;&gt;CelsiusPipe  -->
<g id="edge8" class="edge">
<title>DashboardModule&#45;&gt;CelsiusPipe </title>
<path fill="none" stroke="black" stroke-dasharray="5,2" d="M519,-187.11C519,-187.11 519,-205.99 519,-205.99"/>
<polygon fill="black" stroke="black" points="515.5,-205.99 519,-215.99 522.5,-205.99 515.5,-205.99"/>
</g>
<!-- ClaimGridModule -->
<g id="node8" class="node">
<title>ClaimGridModule</title>
<polygon fill="#8dd3c7" stroke="black" points="143.93,-122 140.93,-126 119.93,-126 116.93,-122 24.07,-122 24.07,-86 143.93,-86 143.93,-122"/>
<text text-anchor="middle" x="84" y="-99.8" font-family="Times,serif" font-size="14.00">ClaimGridModule</text>
</g>
<!-- ClaimGridModule&#45;&gt;DashboardModule -->
<g id="edge7" class="edge">
<title>ClaimGridModule&#45;&gt;DashboardModule</title>
<path fill="none" stroke="black" d="M84,-122.29C84,-144.21 84,-178 84,-178 84,-178 448.52,-178 448.52,-178"/>
<polygon fill="black" stroke="black" points="448.52,-181.5 458.52,-178 448.52,-174.5 448.52,-181.5"/>
</g>
</g>
</svg>
