<?xml version="1.0" encoding="UTF-8" standalone="no"?>
<!DOCTYPE svg PUBLIC "-//W3C//DTD SVG 1.1//EN"
 "http://www.w3.org/Graphics/SVG/1.1/DTD/svg11.dtd">
<!-- Generated by graphviz version 2.44.1 (20200629.0846)
 -->
<!-- Title: dependencies Pages: 1 -->
<svg width="559pt" height="284pt"
 viewBox="0.00 0.00 559.00 284.00" xmlns="http://www.w3.org/2000/svg" xmlns:xlink="http://www.w3.org/1999/xlink">
<g id="graph0" class="graph" transform="scale(1 1) rotate(0) translate(4 280)">
<title>dependencies</title>
<polygon fill="white" stroke="transparent" points="-4,4 -4,-280 555,-280 555,4 -4,4"/>
<text text-anchor="start" x="254.51" y="-42.4" font-family="sans-serif" font-weight="bold" font-size="14.00">Legend</text>
<polygon fill="#ffffb3" stroke="transparent" points="41.5,-10 41.5,-30 61.5,-30 61.5,-10 41.5,-10"/>
<text text-anchor="start" x="65.13" y="-15.4" font-family="sans-serif" font-size="14.00"> &#160;Declarations</text>
<polygon fill="#8dd3c7" stroke="transparent" points="154.5,-10 154.5,-30 174.5,-30 174.5,-10 154.5,-10"/>
<text text-anchor="start" x="178.23" y="-15.4" font-family="sans-serif" font-size="14.00"> &#160;Module</text>
<polygon fill="#80b1d3" stroke="transparent" points="240.5,-10 240.5,-30 260.5,-30 260.5,-10 240.5,-10"/>
<text text-anchor="start" x="264.28" y="-15.4" font-family="sans-serif" font-size="14.00"> &#160;Bootstrap</text>
<polygon fill="#fdb462" stroke="transparent" points="337.5,-10 337.5,-30 357.5,-30 357.5,-10 337.5,-10"/>
<text text-anchor="start" x="361.17" y="-15.4" font-family="sans-serif" font-size="14.00"> &#160;Providers</text>
<polygon fill="#fb8072" stroke="transparent" points="433.5,-10 433.5,-30 453.5,-30 453.5,-10 433.5,-10"/>
<text text-anchor="start" x="457.23" y="-15.4" font-family="sans-serif" font-size="14.00"> &#160;Exports</text>
<g id="clust1" class="cluster">
<title>cluster_PresetsModule</title>
<polygon fill="none" stroke="black" stroke-dasharray="1,5" points="8,-70 8,-268 543,-268 543,-70 8,-70"/>
</g>
<g id="clust2" class="cluster">
<title>cluster_PresetsModule_declarations</title>
<polygon fill="none" stroke="black" points="399,-78 399,-130 535,-130 535,-78 399,-78"/>
</g>
<g id="clust4" class="cluster">
<title>cluster_PresetsModule_imports</title>
<polygon fill="none" stroke="black" points="16,-78 16,-130 391,-130 391,-78 16,-78"/>
</g>
<g id="clust5" class="cluster">
<title>cluster_PresetsModule_exports</title>
<polygon fill="none" stroke="black" points="196,-208 196,-260 336,-260 336,-208 196,-208"/>
</g>
<!-- PresetsComponent -->
<g id="node1" class="node">
<title>PresetsComponent</title>
<polygon fill="#ffffb3" stroke="black" points="527.48,-122 406.52,-122 406.52,-86 527.48,-86 527.48,-122"/>
<text text-anchor="middle" x="467" y="-99.8" font-family="Times,serif" font-size="14.00">PresetsComponent</text>
</g>
<!-- PresetsModule -->
<g id="node2" class="node">
<title>PresetsModule</title>
<polygon fill="#8dd3c7" stroke="black" points="315.7,-187 312.7,-191 291.7,-191 288.7,-187 216.3,-187 216.3,-151 315.7,-151 315.7,-187"/>
<text text-anchor="middle" x="266" y="-164.8" font-family="Times,serif" font-size="14.00">PresetsModule</text>
</g>
<!-- PresetsComponent&#45;&gt;PresetsModule -->
<g id="edge1" class="edge">
<title>PresetsComponent&#45;&gt;PresetsModule</title>
<path fill="none" stroke="black" d="M467,-122.11C467,-141.34 467,-169 467,-169 467,-169 325.69,-169 325.69,-169"/>
<polygon fill="black" stroke="black" points="325.69,-165.5 315.69,-169 325.69,-172.5 325.69,-165.5"/>
</g>
<!-- PresetsComponent  -->
<g id="node6" class="node">
<title>PresetsComponent </title>
<polygon fill="#fb8072" stroke="black" points="328.49,-252 203.51,-252 203.51,-216 328.49,-216 328.49,-252"/>
<text text-anchor="middle" x="266" y="-229.8" font-family="Times,serif" font-size="14.00">PresetsComponent </text>
</g>
<!-- PresetsModule&#45;&gt;PresetsComponent  -->
<g id="edge5" class="edge">
<title>PresetsModule&#45;&gt;PresetsComponent </title>
<path fill="none" stroke="black" stroke-dasharray="5,2" d="M266,-187.11C266,-187.11 266,-205.99 266,-205.99"/>
<polygon fill="black" stroke="black" points="262.5,-205.99 266,-215.99 269.5,-205.99 262.5,-205.99"/>
</g>
<!-- CommonModule -->
<g id="node3" class="node">
<title>CommonModule</title>
<polygon fill="#8dd3c7" stroke="black" points="382.67,-122 379.67,-126 358.67,-126 355.67,-122 271.33,-122 271.33,-86 382.67,-86 382.67,-122"/>
<text text-anchor="middle" x="327" y="-99.8" font-family="Times,serif" font-size="14.00">CommonModule</text>
</g>
<!-- CommonModule&#45;&gt;PresetsModule -->
<g id="edge2" class="edge">
<title>CommonModule&#45;&gt;PresetsModule</title>
<path fill="none" stroke="black" d="M293.38,-122.11C293.38,-122.11 293.38,-140.99 293.38,-140.99"/>
<polygon fill="black" stroke="black" points="289.88,-140.99 293.38,-150.99 296.88,-140.99 289.88,-140.99"/>
</g>
<!-- FormsModule -->
<g id="node4" class="node">
<title>FormsModule</title>
<polygon fill="#8dd3c7" stroke="black" points="253.83,-122 250.83,-126 229.83,-126 226.83,-122 158.17,-122 158.17,-86 253.83,-86 253.83,-122"/>
<text text-anchor="middle" x="206" y="-99.8" font-family="Times,serif" font-size="14.00">FormsModule</text>
</g>
<!-- FormsModule&#45;&gt;PresetsModule -->
<g id="edge3" class="edge">
<title>FormsModule&#45;&gt;PresetsModule</title>
<path fill="none" stroke="black" d="M235.03,-122.11C235.03,-122.11 235.03,-140.99 235.03,-140.99"/>
<polygon fill="black" stroke="black" points="231.53,-140.99 235.03,-150.99 238.53,-140.99 231.53,-140.99"/>
</g>
<!-- MatSelectModule -->
<g id="node5" class="node">
<title>MatSelectModule</title>
<polygon fill="#8dd3c7" stroke="black" points="140.31,-122 137.31,-126 116.31,-126 113.31,-122 23.69,-122 23.69,-86 140.31,-86 140.31,-122"/>
<text text-anchor="middle" x="82" y="-99.8" font-family="Times,serif" font-size="14.00">MatSelectModule</text>
</g>
<!-- MatSelectModule&#45;&gt;PresetsModule -->
<g id="edge4" class="edge">
<title>MatSelectModule&#45;&gt;PresetsModule</title>
<path fill="none" stroke="black" d="M82,-122.11C82,-141.34 82,-169 82,-169 82,-169 206.21,-169 206.21,-169"/>
<polygon fill="black" stroke="black" points="206.21,-172.5 216.21,-169 206.21,-165.5 206.21,-172.5"/>
</g>
</g>
</svg>
