<?xml version="1.0" encoding="UTF-8" standalone="no"?>
<!DOCTYPE svg PUBLIC "-//W3C//DTD SVG 1.1//EN"
 "http://www.w3.org/Graphics/SVG/1.1/DTD/svg11.dtd">
<!-- Generated by graphviz version 2.44.1 (20200629.0846)
 -->
<!-- Title: dependencies Pages: 1 -->
<svg width="1473pt" height="211pt"
 viewBox="0.00 0.00 1473.00 211.00" xmlns="http://www.w3.org/2000/svg" xmlns:xlink="http://www.w3.org/1999/xlink">
<g id="graph0" class="graph" transform="scale(1 1) rotate(0) translate(4 207)">
<title>dependencies</title>
<polygon fill="white" stroke="transparent" points="-4,4 -4,-207 1469,-207 1469,4 -4,4"/>
<text text-anchor="start" x="711.51" y="-42.4" font-family="sans-serif" font-weight="bold" font-size="14.00">Legend</text>
<polygon fill="#ffffb3" stroke="transparent" points="498.5,-10 498.5,-30 518.5,-30 518.5,-10 498.5,-10"/>
<text text-anchor="start" x="522.13" y="-15.4" font-family="sans-serif" font-size="14.00"> &#160;Declarations</text>
<polygon fill="#8dd3c7" stroke="transparent" points="611.5,-10 611.5,-30 631.5,-30 631.5,-10 611.5,-10"/>
<text text-anchor="start" x="635.23" y="-15.4" font-family="sans-serif" font-size="14.00"> &#160;Module</text>
<polygon fill="#80b1d3" stroke="transparent" points="697.5,-10 697.5,-30 717.5,-30 717.5,-10 697.5,-10"/>
<text text-anchor="start" x="721.28" y="-15.4" font-family="sans-serif" font-size="14.00"> &#160;Bootstrap</text>
<polygon fill="#fdb462" stroke="transparent" points="794.5,-10 794.5,-30 814.5,-30 814.5,-10 794.5,-10"/>
<text text-anchor="start" x="818.17" y="-15.4" font-family="sans-serif" font-size="14.00"> &#160;Providers</text>
<polygon fill="#fb8072" stroke="transparent" points="890.5,-10 890.5,-30 910.5,-30 910.5,-10 890.5,-10"/>
<text text-anchor="start" x="914.23" y="-15.4" font-family="sans-serif" font-size="14.00"> &#160;Exports</text>
<g id="clust1" class="cluster">
<title>cluster_AuthModule</title>
<polygon fill="none" stroke="black" stroke-dasharray="1,5" points="8,-70 8,-195 1457,-195 1457,-70 8,-70"/>
</g>
<g id="clust2" class="cluster">
<title>cluster_AuthModule_declarations</title>
<polygon fill="none" stroke="black" points="1319,-78 1319,-130 1449,-130 1449,-78 1319,-78"/>
</g>
<g id="clust4" class="cluster">
<title>cluster_AuthModule_imports</title>
<polygon fill="none" stroke="black" points="16,-78 16,-130 1311,-130 1311,-78 16,-78"/>
</g>
<!-- LoginComponent -->
<g id="node1" class="node">
<title>LoginComponent</title>
<polygon fill="#ffffb3" stroke="black" points="1441.28,-122 1326.72,-122 1326.72,-86 1441.28,-86 1441.28,-122"/>
<text text-anchor="middle" x="1384" y="-99.8" font-family="Times,serif" font-size="14.00">LoginComponent</text>
</g>
<!-- AuthModule -->
<g id="node2" class="node">
<title>AuthModule</title>
<polygon fill="#8dd3c7" stroke="black" points="806.55,-187 803.55,-191 782.55,-191 779.55,-187 719.45,-187 719.45,-151 806.55,-151 806.55,-187"/>
<text text-anchor="middle" x="763" y="-164.8" font-family="Times,serif" font-size="14.00">AuthModule</text>
</g>
<!-- LoginComponent&#45;&gt;AuthModule -->
<g id="edge1" class="edge">
<title>LoginComponent&#45;&gt;AuthModule</title>
<path fill="none" stroke="black" d="M1384,-122.01C1384,-144.49 1384,-180 1384,-180 1384,-180 816.67,-180 816.67,-180"/>
<polygon fill="black" stroke="black" points="816.67,-176.5 806.67,-180 816.67,-183.5 816.67,-176.5"/>
</g>
<!-- CommonModule -->
<g id="node3" class="node">
<title>CommonModule</title>
<polygon fill="#8dd3c7" stroke="black" points="1302.67,-122 1299.67,-126 1278.67,-126 1275.67,-122 1191.33,-122 1191.33,-86 1302.67,-86 1302.67,-122"/>
<text text-anchor="middle" x="1247" y="-99.8" font-family="Times,serif" font-size="14.00">CommonModule</text>
</g>
<!-- CommonModule&#45;&gt;AuthModule -->
<g id="edge2" class="edge">
<title>CommonModule&#45;&gt;AuthModule</title>
<path fill="none" stroke="black" d="M1247,-122.13C1247,-142.57 1247,-173 1247,-173 1247,-173 816.81,-173 816.81,-173"/>
<polygon fill="black" stroke="black" points="816.81,-169.5 806.81,-173 816.81,-176.5 816.81,-169.5"/>
</g>
<!-- FormsModule -->
<g id="node4" class="node">
<title>FormsModule</title>
<polygon fill="#8dd3c7" stroke="black" points="1173.83,-122 1170.83,-126 1149.83,-126 1146.83,-122 1078.17,-122 1078.17,-86 1173.83,-86 1173.83,-122"/>
<text text-anchor="middle" x="1126" y="-99.8" font-family="Times,serif" font-size="14.00">FormsModule</text>
</g>
<!-- FormsModule&#45;&gt;AuthModule -->
<g id="edge3" class="edge">
<title>FormsModule&#45;&gt;AuthModule</title>
<path fill="none" stroke="black" d="M1126,-122.27C1126,-140.56 1126,-166 1126,-166 1126,-166 816.79,-166 816.79,-166"/>
<polygon fill="black" stroke="black" points="816.79,-162.5 806.79,-166 816.79,-169.5 816.79,-162.5"/>
</g>
<!-- AuthRoutingModule -->
<g id="node5" class="node">
<title>AuthRoutingModule</title>
<polygon fill="#8dd3c7" stroke="black" points="1060.17,-122 1057.17,-126 1036.17,-126 1033.17,-122 927.83,-122 927.83,-86 1060.17,-86 1060.17,-122"/>
<text text-anchor="middle" x="994" y="-99.8" font-family="Times,serif" font-size="14.00">AuthRoutingModule</text>
</g>
<!-- AuthRoutingModule&#45;&gt;AuthModule -->
<g id="edge4" class="edge">
<title>AuthRoutingModule&#45;&gt;AuthModule</title>
<path fill="none" stroke="black" d="M994,-122.01C994,-138.05 994,-159 994,-159 994,-159 816.72,-159 816.72,-159"/>
<polygon fill="black" stroke="black" points="816.72,-155.5 806.72,-159 816.72,-162.5 816.72,-155.5"/>
</g>
<!-- ReactiveFormsModule -->
<g id="node6" class="node">
<title>ReactiveFormsModule</title>
<polygon fill="#8dd3c7" stroke="black" points="910.3,-122 907.3,-126 886.3,-126 883.3,-122 765.7,-122 765.7,-86 910.3,-86 910.3,-122"/>
<text text-anchor="middle" x="838" y="-99.8" font-family="Times,serif" font-size="14.00">ReactiveFormsModule</text>
</g>
<!-- ReactiveFormsModule&#45;&gt;AuthModule -->
<g id="edge5" class="edge">
<title>ReactiveFormsModule&#45;&gt;AuthModule</title>
<path fill="none" stroke="black" d="M786.31,-122.11C786.31,-122.11 786.31,-140.99 786.31,-140.99"/>
<polygon fill="black" stroke="black" points="782.81,-140.99 786.31,-150.99 789.81,-140.99 782.81,-140.99"/>
</g>
<!-- MatButtonModule -->
<g id="node7" class="node">
<title>MatButtonModule</title>
<polygon fill="#8dd3c7" stroke="black" points="748.22,-122 745.22,-126 724.22,-126 721.22,-122 627.78,-122 627.78,-86 748.22,-86 748.22,-122"/>
<text text-anchor="middle" x="688" y="-99.8" font-family="Times,serif" font-size="14.00">MatButtonModule</text>
</g>
<!-- MatButtonModule&#45;&gt;AuthModule -->
<g id="edge6" class="edge">
<title>MatButtonModule&#45;&gt;AuthModule</title>
<path fill="none" stroke="black" d="M733.67,-122.11C733.67,-122.11 733.67,-140.99 733.67,-140.99"/>
<polygon fill="black" stroke="black" points="730.17,-140.99 733.67,-150.99 737.17,-140.99 730.17,-140.99"/>
</g>
<!-- MatIconModule -->
<g id="node8" class="node">
<title>MatIconModule</title>
<polygon fill="#8dd3c7" stroke="black" points="609.47,-122 606.47,-126 585.47,-126 582.47,-122 502.53,-122 502.53,-86 609.47,-86 609.47,-122"/>
<text text-anchor="middle" x="556" y="-99.8" font-family="Times,serif" font-size="14.00">MatIconModule</text>
</g>
<!-- MatIconModule&#45;&gt;AuthModule -->
<g id="edge7" class="edge">
<title>MatIconModule&#45;&gt;AuthModule</title>
<path fill="none" stroke="black" d="M556,-122.01C556,-138.05 556,-159 556,-159 556,-159 709.35,-159 709.35,-159"/>
<polygon fill="black" stroke="black" points="709.35,-162.5 719.35,-159 709.35,-155.5 709.35,-162.5"/>
</g>
<!-- MatFormFieldModule -->
<g id="node9" class="node">
<title>MatFormFieldModule</title>
<polygon fill="#8dd3c7" stroke="black" points="484.71,-122 481.71,-126 460.71,-126 457.71,-122 343.29,-122 343.29,-86 484.71,-86 484.71,-122"/>
<text text-anchor="middle" x="414" y="-99.8" font-family="Times,serif" font-size="14.00">MatFormFieldModule</text>
</g>
<!-- MatFormFieldModule&#45;&gt;AuthModule -->
<g id="edge8" class="edge">
<title>MatFormFieldModule&#45;&gt;AuthModule</title>
<path fill="none" stroke="black" d="M414,-122.27C414,-140.56 414,-166 414,-166 414,-166 709.15,-166 709.15,-166"/>
<polygon fill="black" stroke="black" points="709.15,-169.5 719.15,-166 709.15,-162.5 709.15,-169.5"/>
</g>
<!-- MatInputModule -->
<g id="node10" class="node">
<title>MatInputModule</title>
<polygon fill="#8dd3c7" stroke="black" points="325.65,-122 322.65,-126 301.65,-126 298.65,-122 214.35,-122 214.35,-86 325.65,-86 325.65,-122"/>
<text text-anchor="middle" x="270" y="-99.8" font-family="Times,serif" font-size="14.00">MatInputModule</text>
</g>
<!-- MatInputModule&#45;&gt;AuthModule -->
<g id="edge9" class="edge">
<title>MatInputModule&#45;&gt;AuthModule</title>
<path fill="none" stroke="black" d="M270,-122.13C270,-142.57 270,-173 270,-173 270,-173 709.25,-173 709.25,-173"/>
<polygon fill="black" stroke="black" points="709.25,-176.5 719.25,-173 709.25,-169.5 709.25,-176.5"/>
</g>
<!-- BrowserAnimationsModule -->
<g id="node11" class="node">
<title>BrowserAnimationsModule</title>
<polygon fill="#8dd3c7" stroke="black" points="196.3,-122 193.3,-126 172.3,-126 169.3,-122 23.7,-122 23.7,-86 196.3,-86 196.3,-122"/>
<text text-anchor="middle" x="110" y="-99.8" font-family="Times,serif" font-size="14.00">BrowserAnimationsModule</text>
</g>
<!-- BrowserAnimationsModule&#45;&gt;AuthModule -->
<g id="edge10" class="edge">
<title>BrowserAnimationsModule&#45;&gt;AuthModule</title>
<path fill="none" stroke="black" d="M110,-122.01C110,-144.49 110,-180 110,-180 110,-180 709.4,-180 709.4,-180"/>
<polygon fill="black" stroke="black" points="709.4,-183.5 719.4,-180 709.4,-176.5 709.4,-183.5"/>
</g>
</g>
</svg>
