<?xml version="1.0" encoding="UTF-8" standalone="no"?>
<!DOCTYPE svg PUBLIC "-//W3C//DTD SVG 1.1//EN"
 "http://www.w3.org/Graphics/SVG/1.1/DTD/svg11.dtd">
<!-- Generated by graphviz version 2.44.1 (20200629.0846)
 -->
<!-- Title: dependencies Pages: 1 -->
<svg width="504pt" height="284pt"
 viewBox="0.00 0.00 504.00 284.00" xmlns="http://www.w3.org/2000/svg" xmlns:xlink="http://www.w3.org/1999/xlink">
<g id="graph0" class="graph" transform="scale(1 1) rotate(0) translate(4 280)">
<title>dependencies</title>
<polygon fill="white" stroke="transparent" points="-4,4 -4,-280 500,-280 500,4 -4,4"/>
<text text-anchor="start" x="227.01" y="-42.4" font-family="sans-serif" font-weight="bold" font-size="14.00">Legend</text>
<polygon fill="#ffffb3" stroke="transparent" points="14,-10 14,-30 34,-30 34,-10 14,-10"/>
<text text-anchor="start" x="37.63" y="-15.4" font-family="sans-serif" font-size="14.00"> &#160;Declarations</text>
<polygon fill="#8dd3c7" stroke="transparent" points="127,-10 127,-30 147,-30 147,-10 127,-10"/>
<text text-anchor="start" x="150.73" y="-15.4" font-family="sans-serif" font-size="14.00"> &#160;Module</text>
<polygon fill="#80b1d3" stroke="transparent" points="213,-10 213,-30 233,-30 233,-10 213,-10"/>
<text text-anchor="start" x="236.78" y="-15.4" font-family="sans-serif" font-size="14.00"> &#160;Bootstrap</text>
<polygon fill="#fdb462" stroke="transparent" points="310,-10 310,-30 330,-30 330,-10 310,-10"/>
<text text-anchor="start" x="333.67" y="-15.4" font-family="sans-serif" font-size="14.00"> &#160;Providers</text>
<polygon fill="#fb8072" stroke="transparent" points="406,-10 406,-30 426,-30 426,-10 406,-10"/>
<text text-anchor="start" x="429.73" y="-15.4" font-family="sans-serif" font-size="14.00"> &#160;Exports</text>
<g id="clust1" class="cluster">
<title>cluster_ClaimGridModule</title>
<polygon fill="none" stroke="black" stroke-dasharray="1,5" points="29.5,-70 29.5,-268 466.5,-268 466.5,-70 29.5,-70"/>
</g>
<g id="clust2" class="cluster">
<title>cluster_ClaimGridModule_declarations</title>
<polygon fill="none" stroke="black" points="37.5,-78 37.5,-130 458.5,-130 458.5,-78 37.5,-78"/>
</g>
<g id="clust7" class="cluster">
<title>cluster_ClaimGridModule_exports</title>
<polygon fill="none" stroke="black" points="102.5,-208 102.5,-260 392.5,-260 392.5,-208 102.5,-208"/>
</g>
<!-- ClaimGridComponent -->
<g id="node1" class="node">
<title>ClaimGridComponent</title>
<polygon fill="#ffffb3" stroke="black" points="450.21,-122 308.79,-122 308.79,-86 450.21,-86 450.21,-122"/>
<text text-anchor="middle" x="379.5" y="-99.8" font-family="Times,serif" font-size="14.00">ClaimGridComponent</text>
</g>
<!-- ClaimGridModule -->
<g id="node4" class="node">
<title>ClaimGridModule</title>
<polygon fill="#8dd3c7" stroke="black" points="291.43,-187 288.43,-191 267.43,-191 264.43,-187 171.57,-187 171.57,-151 291.43,-151 291.43,-187"/>
<text text-anchor="middle" x="231.5" y="-164.8" font-family="Times,serif" font-size="14.00">ClaimGridModule</text>
</g>
<!-- ClaimGridComponent&#45;&gt;ClaimGridModule -->
<g id="edge1" class="edge">
<title>ClaimGridComponent&#45;&gt;ClaimGridModule</title>
<path fill="none" stroke="black" d="M346.88,-122.11C346.88,-141.34 346.88,-169 346.88,-169 346.88,-169 301.55,-169 301.55,-169"/>
<polygon fill="black" stroke="black" points="301.55,-165.5 291.55,-169 301.55,-172.5 301.55,-165.5"/>
</g>
<!-- DialogComponent -->
<g id="node2" class="node">
<title>DialogComponent</title>
<polygon fill="#ffffb3" stroke="black" points="291.44,-122 171.56,-122 171.56,-86 291.44,-86 291.44,-122"/>
<text text-anchor="middle" x="231.5" y="-99.8" font-family="Times,serif" font-size="14.00">DialogComponent</text>
</g>
<!-- DialogComponent&#45;&gt;ClaimGridModule -->
<g id="edge2" class="edge">
<title>DialogComponent&#45;&gt;ClaimGridModule</title>
<path fill="none" stroke="black" d="M231.5,-122.11C231.5,-122.11 231.5,-140.99 231.5,-140.99"/>
<polygon fill="black" stroke="black" points="228,-140.99 231.5,-150.99 235,-140.99 228,-140.99"/>
</g>
<!-- VentComponent -->
<g id="node3" class="node">
<title>VentComponent</title>
<polygon fill="#ffffb3" stroke="black" points="153.55,-122 45.45,-122 45.45,-86 153.55,-86 153.55,-122"/>
<text text-anchor="middle" x="99.5" y="-99.8" font-family="Times,serif" font-size="14.00">VentComponent</text>
</g>
<!-- VentComponent&#45;&gt;ClaimGridModule -->
<g id="edge3" class="edge">
<title>VentComponent&#45;&gt;ClaimGridModule</title>
<path fill="none" stroke="black" d="M132.12,-122.11C132.12,-141.34 132.12,-169 132.12,-169 132.12,-169 161.69,-169 161.69,-169"/>
<polygon fill="black" stroke="black" points="161.69,-172.5 171.69,-169 161.69,-165.5 161.69,-172.5"/>
</g>
<!-- ClaimGridComponent  -->
<g id="node5" class="node">
<title>ClaimGridComponent </title>
<polygon fill="#fb8072" stroke="black" points="384.71,-252 240.29,-252 240.29,-216 384.71,-216 384.71,-252"/>
<text text-anchor="middle" x="312.5" y="-229.8" font-family="Times,serif" font-size="14.00">ClaimGridComponent </text>
</g>
<!-- ClaimGridModule&#45;&gt;ClaimGridComponent  -->
<g id="edge4" class="edge">
<title>ClaimGridModule&#45;&gt;ClaimGridComponent </title>
<path fill="none" stroke="black" stroke-dasharray="5,2" d="M265.68,-187.11C265.68,-187.11 265.68,-205.99 265.68,-205.99"/>
<polygon fill="black" stroke="black" points="262.18,-205.99 265.68,-215.99 269.18,-205.99 262.18,-205.99"/>
</g>
<!-- VentComponent  -->
<g id="node6" class="node">
<title>VentComponent </title>
<polygon fill="#fb8072" stroke="black" points="222.54,-252 110.46,-252 110.46,-216 222.54,-216 222.54,-252"/>
<text text-anchor="middle" x="166.5" y="-229.8" font-family="Times,serif" font-size="14.00">VentComponent </text>
</g>
<!-- ClaimGridModule&#45;&gt;VentComponent  -->
<g id="edge5" class="edge">
<title>ClaimGridModule&#45;&gt;VentComponent </title>
<path fill="none" stroke="black" stroke-dasharray="5,2" d="M197.15,-187.11C197.15,-187.11 197.15,-205.99 197.15,-205.99"/>
<polygon fill="black" stroke="black" points="193.65,-205.99 197.15,-215.99 200.65,-205.99 193.65,-205.99"/>
</g>
</g>
</svg>
