<?xml version="1.0" encoding="UTF-8" standalone="no"?>
<!DOCTYPE svg PUBLIC "-//W3C//DTD SVG 1.1//EN"
 "http://www.w3.org/Graphics/SVG/1.1/DTD/svg11.dtd">
<!-- Generated by graphviz version 2.44.1 (20200629.0846)
 -->
<!-- Title: dependencies Pages: 1 -->
<svg width="986pt" height="284pt"
 viewBox="0.00 0.00 986.00 284.00" xmlns="http://www.w3.org/2000/svg" xmlns:xlink="http://www.w3.org/1999/xlink">
<g id="graph0" class="graph" transform="scale(1 1) rotate(0) translate(4 280)">
<title>dependencies</title>
<polygon fill="white" stroke="transparent" points="-4,4 -4,-280 982,-280 982,4 -4,4"/>
<text text-anchor="start" x="468.01" y="-42.4" font-family="sans-serif" font-weight="bold" font-size="14.00">Legend</text>
<polygon fill="#ffffb3" stroke="transparent" points="255,-10 255,-30 275,-30 275,-10 255,-10"/>
<text text-anchor="start" x="278.63" y="-15.4" font-family="sans-serif" font-size="14.00"> &#160;Declarations</text>
<polygon fill="#8dd3c7" stroke="transparent" points="368,-10 368,-30 388,-30 388,-10 368,-10"/>
<text text-anchor="start" x="391.73" y="-15.4" font-family="sans-serif" font-size="14.00"> &#160;Module</text>
<polygon fill="#80b1d3" stroke="transparent" points="454,-10 454,-30 474,-30 474,-10 454,-10"/>
<text text-anchor="start" x="477.78" y="-15.4" font-family="sans-serif" font-size="14.00"> &#160;Bootstrap</text>
<polygon fill="#fdb462" stroke="transparent" points="551,-10 551,-30 571,-30 571,-10 551,-10"/>
<text text-anchor="start" x="574.67" y="-15.4" font-family="sans-serif" font-size="14.00"> &#160;Providers</text>
<polygon fill="#fb8072" stroke="transparent" points="647,-10 647,-30 667,-30 667,-10 647,-10"/>
<text text-anchor="start" x="670.73" y="-15.4" font-family="sans-serif" font-size="14.00"> &#160;Exports</text>
<g id="clust1" class="cluster">
<title>cluster_ClaimGridModule</title>
<polygon fill="none" stroke="black" stroke-dasharray="1,5" points="8,-70 8,-268 970,-268 970,-70 8,-70"/>
</g>
<g id="clust7" class="cluster">
<title>cluster_ClaimGridModule_exports</title>
<polygon fill="none" stroke="black" points="243,-208 243,-260 667,-260 667,-208 243,-208"/>
</g>
<g id="clust2" class="cluster">
<title>cluster_ClaimGridModule_declarations</title>
<polygon fill="none" stroke="black" points="541,-78 541,-130 962,-130 962,-78 541,-78"/>
</g>
<g id="clust6" class="cluster">
<title>cluster_ClaimGridModule_imports</title>
<polygon fill="none" stroke="black" points="16,-78 16,-130 533,-130 533,-78 16,-78"/>
</g>
<!-- VentComponent -->
<g id="node1" class="node">
<title>VentComponent</title>
<polygon fill="#ffffb3" stroke="black" points="954.05,-122 845.95,-122 845.95,-86 954.05,-86 954.05,-122"/>
<text text-anchor="middle" x="900" y="-99.8" font-family="Times,serif" font-size="14.00">VentComponent</text>
</g>
<!-- ClaimGridModule -->
<g id="node4" class="node">
<title>ClaimGridModule</title>
<polygon fill="#8dd3c7" stroke="black" points="528.93,-187 525.93,-191 504.93,-191 501.93,-187 409.07,-187 409.07,-151 528.93,-151 528.93,-187"/>
<text text-anchor="middle" x="469" y="-164.8" font-family="Times,serif" font-size="14.00">ClaimGridModule</text>
</g>
<!-- VentComponent&#45;&gt;ClaimGridModule -->
<g id="edge1" class="edge">
<title>VentComponent&#45;&gt;ClaimGridModule</title>
<path fill="none" stroke="black" d="M900,-122.13C900,-142.57 900,-173 900,-173 900,-173 538.93,-173 538.93,-173"/>
<polygon fill="black" stroke="black" points="538.93,-169.5 528.93,-173 538.93,-176.5 538.93,-169.5"/>
</g>
<!-- ClaimGridComponent -->
<g id="node2" class="node">
<title>ClaimGridComponent</title>
<polygon fill="#ffffb3" stroke="black" points="827.71,-122 686.29,-122 686.29,-86 827.71,-86 827.71,-122"/>
<text text-anchor="middle" x="757" y="-99.8" font-family="Times,serif" font-size="14.00">ClaimGridComponent</text>
</g>
<!-- ClaimGridComponent&#45;&gt;ClaimGridModule -->
<g id="edge2" class="edge">
<title>ClaimGridComponent&#45;&gt;ClaimGridModule</title>
<path fill="none" stroke="black" d="M757,-122.27C757,-140.56 757,-166 757,-166 757,-166 539.02,-166 539.02,-166"/>
<polygon fill="black" stroke="black" points="539.02,-162.5 529.02,-166 539.02,-169.5 539.02,-162.5"/>
</g>
<!-- DialogComponent -->
<g id="node3" class="node">
<title>DialogComponent</title>
<polygon fill="#ffffb3" stroke="black" points="668.94,-122 549.06,-122 549.06,-86 668.94,-86 668.94,-122"/>
<text text-anchor="middle" x="609" y="-99.8" font-family="Times,serif" font-size="14.00">DialogComponent</text>
</g>
<!-- DialogComponent&#45;&gt;ClaimGridModule -->
<g id="edge3" class="edge">
<title>DialogComponent&#45;&gt;ClaimGridModule</title>
<path fill="none" stroke="black" d="M585.72,-122.01C585.72,-138.05 585.72,-159 585.72,-159 585.72,-159 538.73,-159 538.73,-159"/>
<polygon fill="black" stroke="black" points="538.73,-155.5 528.73,-159 538.73,-162.5 538.73,-155.5"/>
</g>
<!-- CommonModule  -->
<g id="node9" class="node">
<title>CommonModule </title>
<polygon fill="#fb8072" stroke="black" points="658.67,-252 543.33,-252 543.33,-216 658.67,-216 658.67,-252"/>
<text text-anchor="middle" x="601" y="-229.8" font-family="Times,serif" font-size="14.00">CommonModule </text>
</g>
<!-- ClaimGridModule&#45;&gt;CommonModule  -->
<g id="edge8" class="edge">
<title>ClaimGridModule&#45;&gt;CommonModule </title>
<path fill="none" stroke="black" stroke-dasharray="5,2" d="M529.09,-180C572,-180 622.15,-180 622.15,-180 622.15,-180 622.15,-205.72 622.15,-205.72"/>
<polygon fill="black" stroke="black" points="618.65,-205.72 622.15,-215.72 625.65,-205.72 618.65,-205.72"/>
</g>
<!-- VentComponent  -->
<g id="node10" class="node">
<title>VentComponent </title>
<polygon fill="#fb8072" stroke="black" points="525.04,-252 412.96,-252 412.96,-216 525.04,-216 525.04,-252"/>
<text text-anchor="middle" x="469" y="-229.8" font-family="Times,serif" font-size="14.00">VentComponent </text>
</g>
<!-- ClaimGridModule&#45;&gt;VentComponent  -->
<g id="edge9" class="edge">
<title>ClaimGridModule&#45;&gt;VentComponent </title>
<path fill="none" stroke="black" stroke-dasharray="5,2" d="M469,-187.11C469,-187.11 469,-205.99 469,-205.99"/>
<polygon fill="black" stroke="black" points="465.5,-205.99 469,-215.99 472.5,-205.99 465.5,-205.99"/>
</g>
<!-- ClaimGridComponent  -->
<g id="node11" class="node">
<title>ClaimGridComponent </title>
<polygon fill="#fb8072" stroke="black" points="395.21,-252 250.79,-252 250.79,-216 395.21,-216 395.21,-252"/>
<text text-anchor="middle" x="323" y="-229.8" font-family="Times,serif" font-size="14.00">ClaimGridComponent </text>
</g>
<!-- ClaimGridModule&#45;&gt;ClaimGridComponent  -->
<g id="edge10" class="edge">
<title>ClaimGridModule&#45;&gt;ClaimGridComponent </title>
<path fill="none" stroke="black" stroke-dasharray="5,2" d="M408.91,-180C372.11,-180 332.01,-180 332.01,-180 332.01,-180 332.01,-205.72 332.01,-205.72"/>
<polygon fill="black" stroke="black" points="328.51,-205.72 332.01,-215.72 335.51,-205.72 328.51,-205.72"/>
</g>
<!-- CommonModule -->
<g id="node5" class="node">
<title>CommonModule</title>
<polygon fill="#8dd3c7" stroke="black" points="524.67,-122 521.67,-126 500.67,-126 497.67,-122 413.33,-122 413.33,-86 524.67,-86 524.67,-122"/>
<text text-anchor="middle" x="469" y="-99.8" font-family="Times,serif" font-size="14.00">CommonModule</text>
</g>
<!-- CommonModule&#45;&gt;ClaimGridModule -->
<g id="edge4" class="edge">
<title>CommonModule&#45;&gt;ClaimGridModule</title>
<path fill="none" stroke="black" d="M469,-122.11C469,-122.11 469,-140.99 469,-140.99"/>
<polygon fill="black" stroke="black" points="465.5,-140.99 469,-150.99 472.5,-140.99 465.5,-140.99"/>
</g>
<!-- FormsModule -->
<g id="node6" class="node">
<title>FormsModule</title>
<polygon fill="#8dd3c7" stroke="black" points="395.83,-122 392.83,-126 371.83,-126 368.83,-122 300.17,-122 300.17,-86 395.83,-86 395.83,-122"/>
<text text-anchor="middle" x="348" y="-99.8" font-family="Times,serif" font-size="14.00">FormsModule</text>
</g>
<!-- FormsModule&#45;&gt;ClaimGridModule -->
<g id="edge5" class="edge">
<title>FormsModule&#45;&gt;ClaimGridModule</title>
<path fill="none" stroke="black" d="M363.68,-122.01C363.68,-138.05 363.68,-159 363.68,-159 363.68,-159 399.26,-159 399.26,-159"/>
<polygon fill="black" stroke="black" points="399.26,-162.5 409.26,-159 399.26,-155.5 399.26,-162.5"/>
</g>
<!-- MatDialogModule -->
<g id="node7" class="node">
<title>MatDialogModule</title>
<polygon fill="#8dd3c7" stroke="black" points="282.2,-122 279.2,-126 258.2,-126 255.2,-122 161.8,-122 161.8,-86 282.2,-86 282.2,-122"/>
<text text-anchor="middle" x="222" y="-99.8" font-family="Times,serif" font-size="14.00">MatDialogModule</text>
</g>
<!-- MatDialogModule&#45;&gt;ClaimGridModule -->
<g id="edge6" class="edge">
<title>MatDialogModule&#45;&gt;ClaimGridModule</title>
<path fill="none" stroke="black" d="M266.37,-122.27C266.37,-140.56 266.37,-166 266.37,-166 266.37,-166 399.03,-166 399.03,-166"/>
<polygon fill="black" stroke="black" points="399.03,-169.5 409.03,-166 399.03,-162.5 399.03,-169.5"/>
</g>
<!-- MatButtonModule -->
<g id="node8" class="node">
<title>MatButtonModule</title>
<polygon fill="#8dd3c7" stroke="black" points="144.22,-122 141.22,-126 120.22,-126 117.22,-122 23.78,-122 23.78,-86 144.22,-86 144.22,-122"/>
<text text-anchor="middle" x="84" y="-99.8" font-family="Times,serif" font-size="14.00">MatButtonModule</text>
</g>
<!-- MatButtonModule&#45;&gt;ClaimGridModule -->
<g id="edge7" class="edge">
<title>MatButtonModule&#45;&gt;ClaimGridModule</title>
<path fill="none" stroke="black" d="M84,-122.13C84,-142.57 84,-173 84,-173 84,-173 399.27,-173 399.27,-173"/>
<polygon fill="black" stroke="black" points="399.27,-176.5 409.27,-173 399.27,-169.5 399.27,-176.5"/>
</g>
</g>
</svg>
