<?xml version="1.0" encoding="UTF-8" standalone="no"?>
<!DOCTYPE svg PUBLIC "-//W3C//DTD SVG 1.1//EN"
 "http://www.w3.org/Graphics/SVG/1.1/DTD/svg11.dtd">
<!-- Generated by graphviz version 2.44.1 (20200629.0846)
 -->
<!-- Title: dependencies Pages: 1 -->
<svg width="890pt" height="211pt"
 viewBox="0.00 0.00 890.00 211.00" xmlns="http://www.w3.org/2000/svg" xmlns:xlink="http://www.w3.org/1999/xlink">
<g id="graph0" class="graph" transform="scale(1 1) rotate(0) translate(4 207)">
<title>dependencies</title>
<polygon fill="white" stroke="transparent" points="-4,4 -4,-207 886,-207 886,4 -4,4"/>
<text text-anchor="start" x="420.01" y="-42.4" font-family="sans-serif" font-weight="bold" font-size="14.00">Legend</text>
<polygon fill="#ffffb3" stroke="transparent" points="207,-10 207,-30 227,-30 227,-10 207,-10"/>
<text text-anchor="start" x="230.63" y="-15.4" font-family="sans-serif" font-size="14.00"> &#160;Declarations</text>
<polygon fill="#8dd3c7" stroke="transparent" points="320,-10 320,-30 340,-30 340,-10 320,-10"/>
<text text-anchor="start" x="343.73" y="-15.4" font-family="sans-serif" font-size="14.00"> &#160;Module</text>
<polygon fill="#80b1d3" stroke="transparent" points="406,-10 406,-30 426,-30 426,-10 406,-10"/>
<text text-anchor="start" x="429.78" y="-15.4" font-family="sans-serif" font-size="14.00"> &#160;Bootstrap</text>
<polygon fill="#fdb462" stroke="transparent" points="503,-10 503,-30 523,-30 523,-10 503,-10"/>
<text text-anchor="start" x="526.67" y="-15.4" font-family="sans-serif" font-size="14.00"> &#160;Providers</text>
<polygon fill="#fb8072" stroke="transparent" points="599,-10 599,-30 619,-30 619,-10 599,-10"/>
<text text-anchor="start" x="622.73" y="-15.4" font-family="sans-serif" font-size="14.00"> &#160;Exports</text>
<g id="clust1" class="cluster">
<title>cluster_ClaimModule</title>
<polygon fill="none" stroke="black" stroke-dasharray="1,5" points="8,-70 8,-195 874,-195 874,-70 8,-70"/>
</g>
<g id="clust2" class="cluster">
<title>cluster_ClaimModule_declarations</title>
<polygon fill="none" stroke="black" points="734,-78 734,-130 866,-130 866,-78 734,-78"/>
</g>
<g id="clust7" class="cluster">
<title>cluster_ClaimModule_providers</title>
<polygon fill="none" stroke="black" points="428,-78 428,-130 726,-130 726,-78 428,-78"/>
</g>
<g id="clust4" class="cluster">
<title>cluster_ClaimModule_imports</title>
<polygon fill="none" stroke="black" points="16,-78 16,-130 420,-130 420,-78 16,-78"/>
</g>
<!-- ClaimComponent -->
<g id="node1" class="node">
<title>ClaimComponent</title>
<polygon fill="#ffffb3" stroke="black" points="857.56,-122 742.44,-122 742.44,-86 857.56,-86 857.56,-122"/>
<text text-anchor="middle" x="800" y="-99.8" font-family="Times,serif" font-size="14.00">ClaimComponent</text>
</g>
<!-- ClaimModule -->
<g id="node2" class="node">
<title>ClaimModule</title>
<polygon fill="#8dd3c7" stroke="black" points="471.77,-187 468.77,-191 447.77,-191 444.77,-187 378.23,-187 378.23,-151 471.77,-151 471.77,-187"/>
<text text-anchor="middle" x="425" y="-164.8" font-family="Times,serif" font-size="14.00">ClaimModule</text>
</g>
<!-- ClaimComponent&#45;&gt;ClaimModule -->
<g id="edge1" class="edge">
<title>ClaimComponent&#45;&gt;ClaimModule</title>
<path fill="none" stroke="black" d="M800,-122.28C800,-143.32 800,-175 800,-175 800,-175 482.11,-175 482.11,-175"/>
<polygon fill="black" stroke="black" points="482.11,-171.5 472.11,-175 482.11,-178.5 482.11,-171.5"/>
</g>
<!-- CommonModule -->
<g id="node3" class="node">
<title>CommonModule</title>
<polygon fill="#8dd3c7" stroke="black" points="411.67,-122 408.67,-126 387.67,-126 384.67,-122 300.33,-122 300.33,-86 411.67,-86 411.67,-122"/>
<text text-anchor="middle" x="356" y="-99.8" font-family="Times,serif" font-size="14.00">CommonModule</text>
</g>
<!-- CommonModule&#45;&gt;ClaimModule -->
<g id="edge2" class="edge">
<title>CommonModule&#45;&gt;ClaimModule</title>
<path fill="none" stroke="black" d="M394.97,-122.11C394.97,-122.11 394.97,-140.99 394.97,-140.99"/>
<polygon fill="black" stroke="black" points="391.47,-140.99 394.97,-150.99 398.47,-140.99 391.47,-140.99"/>
</g>
<!-- MatButtonModule -->
<g id="node4" class="node">
<title>MatButtonModule</title>
<polygon fill="#8dd3c7" stroke="black" points="282.22,-122 279.22,-126 258.22,-126 255.22,-122 161.78,-122 161.78,-86 282.22,-86 282.22,-122"/>
<text text-anchor="middle" x="222" y="-99.8" font-family="Times,serif" font-size="14.00">MatButtonModule</text>
</g>
<!-- MatButtonModule&#45;&gt;ClaimModule -->
<g id="edge3" class="edge">
<title>MatButtonModule&#45;&gt;ClaimModule</title>
<path fill="none" stroke="black" d="M222,-122.02C222,-139.37 222,-163 222,-163 222,-163 368.17,-163 368.17,-163"/>
<polygon fill="black" stroke="black" points="368.17,-166.5 378.17,-163 368.17,-159.5 368.17,-166.5"/>
</g>
<!-- ClaimGridModule -->
<g id="node5" class="node">
<title>ClaimGridModule</title>
<polygon fill="#8dd3c7" stroke="black" points="143.93,-122 140.93,-126 119.93,-126 116.93,-122 24.07,-122 24.07,-86 143.93,-86 143.93,-122"/>
<text text-anchor="middle" x="84" y="-99.8" font-family="Times,serif" font-size="14.00">ClaimGridModule</text>
</g>
<!-- ClaimGridModule&#45;&gt;ClaimModule -->
<g id="edge4" class="edge">
<title>ClaimGridModule&#45;&gt;ClaimModule</title>
<path fill="none" stroke="black" d="M84,-122.28C84,-143.32 84,-175 84,-175 84,-175 367.94,-175 367.94,-175"/>
<polygon fill="black" stroke="black" points="367.94,-178.5 377.94,-175 367.94,-171.5 367.94,-178.5"/>
</g>
<!-- StudentsService -->
<g id="node6" class="node">
<title>StudentsService</title>
<ellipse fill="#fdb462" stroke="black" cx="645" cy="-104" rx="73.01" ry="18"/>
<text text-anchor="middle" x="645" y="-99.8" font-family="Times,serif" font-size="14.00">StudentsService</text>
</g>
<!-- StudentsService&#45;&gt;ClaimModule -->
<g id="edge5" class="edge">
<title>StudentsService&#45;&gt;ClaimModule</title>
<path fill="none" stroke="black" d="M645,-122.02C645,-139.37 645,-163 645,-163 645,-163 481.93,-163 481.93,-163"/>
<polygon fill="black" stroke="black" points="481.93,-159.5 471.93,-163 481.93,-166.5 481.93,-159.5"/>
</g>
<!-- VentService -->
<g id="node7" class="node">
<title>VentService</title>
<ellipse fill="#fdb462" stroke="black" cx="495" cy="-104" rx="58.53" ry="18"/>
<text text-anchor="middle" x="495" y="-99.8" font-family="Times,serif" font-size="14.00">VentService</text>
</g>
<!-- VentService&#45;&gt;ClaimModule -->
<g id="edge6" class="edge">
<title>VentService&#45;&gt;ClaimModule</title>
<path fill="none" stroke="black" d="M454.06,-117.15C454.06,-117.15 454.06,-140.69 454.06,-140.69"/>
<polygon fill="black" stroke="black" points="450.56,-140.69 454.06,-150.69 457.56,-140.69 450.56,-140.69"/>
</g>
</g>
</svg>
