<?xml version="1.0" encoding="UTF-8" standalone="no"?>
<!DOCTYPE svg PUBLIC "-//W3C//DTD SVG 1.1//EN"
 "http://www.w3.org/Graphics/SVG/1.1/DTD/svg11.dtd">
<!-- Generated by graphviz version 2.44.1 (20200629.0846)
 -->
<!-- Title: dependencies Pages: 1 -->
<svg width="741pt" height="211pt"
 viewBox="0.00 0.00 741.00 211.00" xmlns="http://www.w3.org/2000/svg" xmlns:xlink="http://www.w3.org/1999/xlink">
<g id="graph0" class="graph" transform="scale(1 1) rotate(0) translate(4 207)">
<title>dependencies</title>
<polygon fill="white" stroke="transparent" points="-4,4 -4,-207 737,-207 737,4 -4,4"/>
<text text-anchor="start" x="345.51" y="-42.4" font-family="sans-serif" font-weight="bold" font-size="14.00">Legend</text>
<polygon fill="#ffffb3" stroke="transparent" points="132.5,-10 132.5,-30 152.5,-30 152.5,-10 132.5,-10"/>
<text text-anchor="start" x="156.13" y="-15.4" font-family="sans-serif" font-size="14.00"> &#160;Declarations</text>
<polygon fill="#8dd3c7" stroke="transparent" points="245.5,-10 245.5,-30 265.5,-30 265.5,-10 245.5,-10"/>
<text text-anchor="start" x="269.23" y="-15.4" font-family="sans-serif" font-size="14.00"> &#160;Module</text>
<polygon fill="#80b1d3" stroke="transparent" points="331.5,-10 331.5,-30 351.5,-30 351.5,-10 331.5,-10"/>
<text text-anchor="start" x="355.28" y="-15.4" font-family="sans-serif" font-size="14.00"> &#160;Bootstrap</text>
<polygon fill="#fdb462" stroke="transparent" points="428.5,-10 428.5,-30 448.5,-30 448.5,-10 428.5,-10"/>
<text text-anchor="start" x="452.17" y="-15.4" font-family="sans-serif" font-size="14.00"> &#160;Providers</text>
<polygon fill="#fb8072" stroke="transparent" points="524.5,-10 524.5,-30 544.5,-30 544.5,-10 524.5,-10"/>
<text text-anchor="start" x="548.23" y="-15.4" font-family="sans-serif" font-size="14.00"> &#160;Exports</text>
<g id="clust1" class="cluster">
<title>cluster_HumidityModule</title>
<polygon fill="none" stroke="black" stroke-dasharray="1,5" points="8,-70 8,-195 725,-195 725,-70 8,-70"/>
</g>
<g id="clust2" class="cluster">
<title>cluster_HumidityModule_declarations</title>
<polygon fill="none" stroke="black" points="281,-78 281,-130 717,-130 717,-78 281,-78"/>
</g>
<g id="clust6" class="cluster">
<title>cluster_HumidityModule_imports</title>
<polygon fill="none" stroke="black" points="16,-78 16,-130 273,-130 273,-78 16,-78"/>
</g>
<!-- HumidityComponent -->
<g id="node1" class="node">
<title>HumidityComponent</title>
<polygon fill="#ffffb3" stroke="black" points="708.5,-122 573.5,-122 573.5,-86 708.5,-86 708.5,-122"/>
<text text-anchor="middle" x="641" y="-99.8" font-family="Times,serif" font-size="14.00">HumidityComponent</text>
</g>
<!-- HumidityModule -->
<g id="node4" class="node">
<title>HumidityModule</title>
<polygon fill="#8dd3c7" stroke="black" points="418.72,-187 415.72,-191 394.72,-191 391.72,-187 305.28,-187 305.28,-151 418.72,-151 418.72,-187"/>
<text text-anchor="middle" x="362" y="-164.8" font-family="Times,serif" font-size="14.00">HumidityModule</text>
</g>
<!-- HumidityComponent&#45;&gt;HumidityModule -->
<g id="edge1" class="edge">
<title>HumidityComponent&#45;&gt;HumidityModule</title>
<path fill="none" stroke="black" d="M641,-122.28C641,-143.32 641,-175 641,-175 641,-175 428.8,-175 428.8,-175"/>
<polygon fill="black" stroke="black" points="428.8,-171.5 418.8,-175 428.8,-178.5 428.8,-171.5"/>
</g>
<!-- HumiditySlider -->
<g id="node2" class="node">
<title>HumiditySlider</title>
<polygon fill="#ffffb3" stroke="black" points="555.61,-122 452.39,-122 452.39,-86 555.61,-86 555.61,-122"/>
<text text-anchor="middle" x="504" y="-99.8" font-family="Times,serif" font-size="14.00">HumiditySlider</text>
</g>
<!-- HumiditySlider&#45;&gt;HumidityModule -->
<g id="edge2" class="edge">
<title>HumiditySlider&#45;&gt;HumidityModule</title>
<path fill="none" stroke="black" d="M504,-122.02C504,-139.37 504,-163 504,-163 504,-163 428.94,-163 428.94,-163"/>
<polygon fill="black" stroke="black" points="428.94,-159.5 418.94,-163 428.94,-166.5 428.94,-159.5"/>
</g>
<!-- OHumidityComponent -->
<g id="node3" class="node">
<title>OHumidityComponent</title>
<polygon fill="#ffffb3" stroke="black" points="434.61,-122 289.39,-122 289.39,-86 434.61,-86 434.61,-122"/>
<text text-anchor="middle" x="362" y="-99.8" font-family="Times,serif" font-size="14.00">OHumidityComponent</text>
</g>
<!-- OHumidityComponent&#45;&gt;HumidityModule -->
<g id="edge3" class="edge">
<title>OHumidityComponent&#45;&gt;HumidityModule</title>
<path fill="none" stroke="black" d="M362,-122.11C362,-122.11 362,-140.99 362,-140.99"/>
<polygon fill="black" stroke="black" points="358.5,-140.99 362,-150.99 365.5,-140.99 358.5,-140.99"/>
</g>
<!-- OHumidityModule -->
<g id="node5" class="node">
<title>OHumidityModule</title>
<polygon fill="#8dd3c7" stroke="black" points="264.83,-122 261.83,-126 240.83,-126 237.83,-122 141.17,-122 141.17,-86 264.83,-86 264.83,-122"/>
<text text-anchor="middle" x="203" y="-99.8" font-family="Times,serif" font-size="14.00">OHumidityModule</text>
</g>
<!-- OHumidityModule&#45;&gt;HumidityModule -->
<g id="edge4" class="edge">
<title>OHumidityModule&#45;&gt;HumidityModule</title>
<path fill="none" stroke="black" d="M203,-122.02C203,-139.37 203,-163 203,-163 203,-163 295.05,-163 295.05,-163"/>
<polygon fill="black" stroke="black" points="295.05,-166.5 305.05,-163 295.05,-159.5 295.05,-166.5"/>
</g>
<!-- PresetsModule -->
<g id="node6" class="node">
<title>PresetsModule</title>
<polygon fill="#8dd3c7" stroke="black" points="123.7,-122 120.7,-126 99.7,-126 96.7,-122 24.3,-122 24.3,-86 123.7,-86 123.7,-122"/>
<text text-anchor="middle" x="74" y="-99.8" font-family="Times,serif" font-size="14.00">PresetsModule</text>
</g>
<!-- PresetsModule&#45;&gt;HumidityModule -->
<g id="edge5" class="edge">
<title>PresetsModule&#45;&gt;HumidityModule</title>
<path fill="none" stroke="black" d="M74,-122.28C74,-143.32 74,-175 74,-175 74,-175 295.1,-175 295.1,-175"/>
<polygon fill="black" stroke="black" points="295.1,-178.5 305.1,-175 295.1,-171.5 295.1,-178.5"/>
</g>
</g>
</svg>
