<?xml version="1.0" encoding="UTF-8" standalone="no"?>
<!DOCTYPE svg PUBLIC "-//W3C//DTD SVG 1.1//EN"
 "http://www.w3.org/Graphics/SVG/1.1/DTD/svg11.dtd">
<!-- Generated by graphviz version 2.44.1 (20200629.0846)
 -->
<!-- Title: dependencies Pages: 1 -->
<svg width="741pt" height="211pt"
 viewBox="0.00 0.00 741.00 211.00" xmlns="http://www.w3.org/2000/svg" xmlns:xlink="http://www.w3.org/1999/xlink">
<g id="graph0" class="graph" transform="scale(1 1) rotate(0) translate(4 207)">
<title>dependencies</title>
<polygon fill="white" stroke="transparent" points="-4,4 -4,-207 737,-207 737,4 -4,4"/>
<text text-anchor="start" x="345.51" y="-42.4" font-family="sans-serif" font-weight="bold" font-size="14.00">Legend</text>
<polygon fill="#ffffb3" stroke="transparent" points="132.5,-10 132.5,-30 152.5,-30 152.5,-10 132.5,-10"/>
<text text-anchor="start" x="156.13" y="-15.4" font-family="sans-serif" font-size="14.00"> &#160;Declarations</text>
<polygon fill="#8dd3c7" stroke="transparent" points="245.5,-10 245.5,-30 265.5,-30 265.5,-10 245.5,-10"/>
<text text-anchor="start" x="269.23" y="-15.4" font-family="sans-serif" font-size="14.00"> &#160;Module</text>
<polygon fill="#80b1d3" stroke="transparent" points="331.5,-10 331.5,-30 351.5,-30 351.5,-10 331.5,-10"/>
<text text-anchor="start" x="355.28" y="-15.4" font-family="sans-serif" font-size="14.00"> &#160;Bootstrap</text>
<polygon fill="#fdb462" stroke="transparent" points="428.5,-10 428.5,-30 448.5,-30 448.5,-10 428.5,-10"/>
<text text-anchor="start" x="452.17" y="-15.4" font-family="sans-serif" font-size="14.00"> &#160;Providers</text>
<polygon fill="#fb8072" stroke="transparent" points="524.5,-10 524.5,-30 544.5,-30 544.5,-10 524.5,-10"/>
<text text-anchor="start" x="548.23" y="-15.4" font-family="sans-serif" font-size="14.00"> &#160;Exports</text>
<g id="clust1" class="cluster">
<title>cluster_HumidityModule</title>
<polygon fill="none" stroke="black" stroke-dasharray="1,5" points="8,-70 8,-195 725,-195 725,-70 8,-70"/>
</g>
<g id="clust6" class="cluster">
<title>cluster_HumidityModule_imports</title>
<polygon fill="none" stroke="black" points="460,-78 460,-130 717,-130 717,-78 460,-78"/>
</g>
<g id="clust2" class="cluster">
<title>cluster_HumidityModule_declarations</title>
<polygon fill="none" stroke="black" points="16,-78 16,-130 452,-130 452,-78 16,-78"/>
</g>
<!-- HumidityComponent -->
<g id="node1" class="node">
<title>HumidityComponent</title>
<polygon fill="#ffffb3" stroke="black" points="443.5,-122 308.5,-122 308.5,-86 443.5,-86 443.5,-122"/>
<text text-anchor="middle" x="376" y="-99.8" font-family="Times,serif" font-size="14.00">HumidityComponent</text>
</g>
<!-- HumidityModule -->
<g id="node4" class="node">
<title>HumidityModule</title>
<polygon fill="#8dd3c7" stroke="black" points="432.72,-187 429.72,-191 408.72,-191 405.72,-187 319.28,-187 319.28,-151 432.72,-151 432.72,-187"/>
<text text-anchor="middle" x="376" y="-164.8" font-family="Times,serif" font-size="14.00">HumidityModule</text>
</g>
<!-- HumidityComponent&#45;&gt;HumidityModule -->
<g id="edge1" class="edge">
<title>HumidityComponent&#45;&gt;HumidityModule</title>
<path fill="none" stroke="black" d="M376,-122.11C376,-122.11 376,-140.99 376,-140.99"/>
<polygon fill="black" stroke="black" points="372.5,-140.99 376,-150.99 379.5,-140.99 372.5,-140.99"/>
</g>
<!-- HumiditySlider -->
<g id="node2" class="node">
<title>HumiditySlider</title>
<polygon fill="#ffffb3" stroke="black" points="290.61,-122 187.39,-122 187.39,-86 290.61,-86 290.61,-122"/>
<text text-anchor="middle" x="239" y="-99.8" font-family="Times,serif" font-size="14.00">HumiditySlider</text>
</g>
<!-- HumiditySlider&#45;&gt;HumidityModule -->
<g id="edge2" class="edge">
<title>HumiditySlider&#45;&gt;HumidityModule</title>
<path fill="none" stroke="black" d="M239,-122.02C239,-139.37 239,-163 239,-163 239,-163 309.09,-163 309.09,-163"/>
<polygon fill="black" stroke="black" points="309.09,-166.5 319.09,-163 309.09,-159.5 309.09,-166.5"/>
</g>
<!-- OHumidityComponent -->
<g id="node3" class="node">
<title>OHumidityComponent</title>
<polygon fill="#ffffb3" stroke="black" points="169.61,-122 24.39,-122 24.39,-86 169.61,-86 169.61,-122"/>
<text text-anchor="middle" x="97" y="-99.8" font-family="Times,serif" font-size="14.00">OHumidityComponent</text>
</g>
<!-- OHumidityComponent&#45;&gt;HumidityModule -->
<g id="edge3" class="edge">
<title>OHumidityComponent&#45;&gt;HumidityModule</title>
<path fill="none" stroke="black" d="M97,-122.28C97,-143.32 97,-175 97,-175 97,-175 309.2,-175 309.2,-175"/>
<polygon fill="black" stroke="black" points="309.2,-178.5 319.2,-175 309.2,-171.5 309.2,-178.5"/>
</g>
<!-- OHumidityModule -->
<g id="node5" class="node">
<title>OHumidityModule</title>
<polygon fill="#8dd3c7" stroke="black" points="708.83,-122 705.83,-126 684.83,-126 681.83,-122 585.17,-122 585.17,-86 708.83,-86 708.83,-122"/>
<text text-anchor="middle" x="647" y="-99.8" font-family="Times,serif" font-size="14.00">OHumidityModule</text>
</g>
<!-- OHumidityModule&#45;&gt;HumidityModule -->
<g id="edge4" class="edge">
<title>OHumidityModule&#45;&gt;HumidityModule</title>
<path fill="none" stroke="black" d="M647,-122.28C647,-143.32 647,-175 647,-175 647,-175 442.81,-175 442.81,-175"/>
<polygon fill="black" stroke="black" points="442.81,-171.5 432.81,-175 442.81,-178.5 442.81,-171.5"/>
</g>
<!-- PresetsModule -->
<g id="node6" class="node">
<title>PresetsModule</title>
<polygon fill="#8dd3c7" stroke="black" points="567.7,-122 564.7,-126 543.7,-126 540.7,-122 468.3,-122 468.3,-86 567.7,-86 567.7,-122"/>
<text text-anchor="middle" x="518" y="-99.8" font-family="Times,serif" font-size="14.00">PresetsModule</text>
</g>
<!-- PresetsModule&#45;&gt;HumidityModule -->
<g id="edge5" class="edge">
<title>PresetsModule&#45;&gt;HumidityModule</title>
<path fill="none" stroke="black" d="M518,-122.02C518,-139.37 518,-163 518,-163 518,-163 442.94,-163 442.94,-163"/>
<polygon fill="black" stroke="black" points="442.94,-159.5 432.94,-163 442.94,-166.5 442.94,-159.5"/>
</g>
</g>
</svg>
