<?xml version="1.0" encoding="UTF-8" standalone="no"?>
<!DOCTYPE svg PUBLIC "-//W3C//DTD SVG 1.1//EN"
 "http://www.w3.org/Graphics/SVG/1.1/DTD/svg11.dtd">
<!-- Generated by graphviz version 2.44.1 (20200629.0846)
 -->
<!-- Title: dependencies Pages: 1 -->
<svg width="1404pt" height="211pt"
 viewBox="0.00 0.00 1404.00 211.00" xmlns="http://www.w3.org/2000/svg" xmlns:xlink="http://www.w3.org/1999/xlink">
<g id="graph0" class="graph" transform="scale(1 1) rotate(0) translate(4 207)">
<title>dependencies</title>
<polygon fill="white" stroke="transparent" points="-4,4 -4,-207 1400,-207 1400,4 -4,4"/>
<text text-anchor="start" x="677.01" y="-42.4" font-family="sans-serif" font-weight="bold" font-size="14.00">Legend</text>
<polygon fill="#ffffb3" stroke="transparent" points="464,-10 464,-30 484,-30 484,-10 464,-10"/>
<text text-anchor="start" x="487.63" y="-15.4" font-family="sans-serif" font-size="14.00"> &#160;Declarations</text>
<polygon fill="#8dd3c7" stroke="transparent" points="577,-10 577,-30 597,-30 597,-10 577,-10"/>
<text text-anchor="start" x="600.73" y="-15.4" font-family="sans-serif" font-size="14.00"> &#160;Module</text>
<polygon fill="#80b1d3" stroke="transparent" points="663,-10 663,-30 683,-30 683,-10 663,-10"/>
<text text-anchor="start" x="686.78" y="-15.4" font-family="sans-serif" font-size="14.00"> &#160;Bootstrap</text>
<polygon fill="#fdb462" stroke="transparent" points="760,-10 760,-30 780,-30 780,-10 760,-10"/>
<text text-anchor="start" x="783.67" y="-15.4" font-family="sans-serif" font-size="14.00"> &#160;Providers</text>
<polygon fill="#fb8072" stroke="transparent" points="856,-10 856,-30 876,-30 876,-10 856,-10"/>
<text text-anchor="start" x="879.73" y="-15.4" font-family="sans-serif" font-size="14.00"> &#160;Exports</text>
<g id="clust1" class="cluster">
<title>cluster_HumidityModule</title>
<polygon fill="none" stroke="black" stroke-dasharray="1,5" points="8,-70 8,-195 1388,-195 1388,-70 8,-70"/>
</g>
<g id="clust6" class="cluster">
<title>cluster_HumidityModule_imports</title>
<polygon fill="none" stroke="black" points="460,-78 460,-130 1380,-130 1380,-78 460,-78"/>
</g>
<g id="clust2" class="cluster">
<title>cluster_HumidityModule_declarations</title>
<polygon fill="none" stroke="black" points="16,-78 16,-130 452,-130 452,-78 16,-78"/>
</g>
<!-- HumidityComponent -->
<g id="node1" class="node">
<title>HumidityComponent</title>
<polygon fill="#ffffb3" stroke="black" points="443.5,-122 308.5,-122 308.5,-86 443.5,-86 443.5,-122"/>
<text text-anchor="middle" x="376" y="-99.8" font-family="Times,serif" font-size="14.00">HumidityComponent</text>
</g>
<!-- HumidityModule -->
<g id="node4" class="node">
<title>HumidityModule</title>
<polygon fill="#8dd3c7" stroke="black" points="798.72,-187 795.72,-191 774.72,-191 771.72,-187 685.28,-187 685.28,-151 798.72,-151 798.72,-187"/>
<text text-anchor="middle" x="742" y="-164.8" font-family="Times,serif" font-size="14.00">HumidityModule</text>
</g>
<!-- HumidityComponent&#45;&gt;HumidityModule -->
<g id="edge1" class="edge">
<title>HumidityComponent&#45;&gt;HumidityModule</title>
<path fill="none" stroke="black" d="M376,-122.27C376,-140.56 376,-166 376,-166 376,-166 675.21,-166 675.21,-166"/>
<polygon fill="black" stroke="black" points="675.21,-169.5 685.21,-166 675.21,-162.5 675.21,-169.5"/>
</g>
<!-- HumiditySlider -->
<g id="node2" class="node">
<title>HumiditySlider</title>
<polygon fill="#ffffb3" stroke="black" points="290.61,-122 187.39,-122 187.39,-86 290.61,-86 290.61,-122"/>
<text text-anchor="middle" x="239" y="-99.8" font-family="Times,serif" font-size="14.00">HumiditySlider</text>
</g>
<!-- HumiditySlider&#45;&gt;HumidityModule -->
<g id="edge2" class="edge">
<title>HumiditySlider&#45;&gt;HumidityModule</title>
<path fill="none" stroke="black" d="M239,-122.13C239,-142.57 239,-173 239,-173 239,-173 675.28,-173 675.28,-173"/>
<polygon fill="black" stroke="black" points="675.28,-176.5 685.28,-173 675.28,-169.5 675.28,-176.5"/>
</g>
<!-- OHumidityComponent -->
<g id="node3" class="node">
<title>OHumidityComponent</title>
<polygon fill="#ffffb3" stroke="black" points="169.61,-122 24.39,-122 24.39,-86 169.61,-86 169.61,-122"/>
<text text-anchor="middle" x="97" y="-99.8" font-family="Times,serif" font-size="14.00">OHumidityComponent</text>
</g>
<!-- OHumidityComponent&#45;&gt;HumidityModule -->
<g id="edge3" class="edge">
<title>OHumidityComponent&#45;&gt;HumidityModule</title>
<path fill="none" stroke="black" d="M97,-122.01C97,-144.49 97,-180 97,-180 97,-180 675.33,-180 675.33,-180"/>
<polygon fill="black" stroke="black" points="675.33,-183.5 685.33,-180 675.33,-176.5 675.33,-183.5"/>
</g>
<!-- CommonModule -->
<g id="node5" class="node">
<title>CommonModule</title>
<polygon fill="#8dd3c7" stroke="black" points="1371.67,-122 1368.67,-126 1347.67,-126 1344.67,-122 1260.33,-122 1260.33,-86 1371.67,-86 1371.67,-122"/>
<text text-anchor="middle" x="1316" y="-99.8" font-family="Times,serif" font-size="14.00">CommonModule</text>
</g>
<!-- CommonModule&#45;&gt;HumidityModule -->
<g id="edge4" class="edge">
<title>CommonModule&#45;&gt;HumidityModule</title>
<path fill="none" stroke="black" d="M1316,-122.01C1316,-144.49 1316,-180 1316,-180 1316,-180 808.87,-180 808.87,-180"/>
<polygon fill="black" stroke="black" points="808.87,-176.5 798.87,-180 808.87,-183.5 808.87,-176.5"/>
</g>
<!-- FormsModule -->
<g id="node6" class="node">
<title>FormsModule</title>
<polygon fill="#8dd3c7" stroke="black" points="1242.83,-122 1239.83,-126 1218.83,-126 1215.83,-122 1147.17,-122 1147.17,-86 1242.83,-86 1242.83,-122"/>
<text text-anchor="middle" x="1195" y="-99.8" font-family="Times,serif" font-size="14.00">FormsModule</text>
</g>
<!-- FormsModule&#45;&gt;HumidityModule -->
<g id="edge5" class="edge">
<title>FormsModule&#45;&gt;HumidityModule</title>
<path fill="none" stroke="black" d="M1195,-122.13C1195,-142.57 1195,-173 1195,-173 1195,-173 808.91,-173 808.91,-173"/>
<polygon fill="black" stroke="black" points="808.91,-169.5 798.91,-173 808.91,-176.5 808.91,-169.5"/>
</g>
<!-- MatSelectModule -->
<g id="node7" class="node">
<title>MatSelectModule</title>
<polygon fill="#8dd3c7" stroke="black" points="1129.31,-122 1126.31,-126 1105.31,-126 1102.31,-122 1012.69,-122 1012.69,-86 1129.31,-86 1129.31,-122"/>
<text text-anchor="middle" x="1071" y="-99.8" font-family="Times,serif" font-size="14.00">MatSelectModule</text>
</g>
<!-- MatSelectModule&#45;&gt;HumidityModule -->
<g id="edge6" class="edge">
<title>MatSelectModule&#45;&gt;HumidityModule</title>
<path fill="none" stroke="black" d="M1071,-122.27C1071,-140.56 1071,-166 1071,-166 1071,-166 808.93,-166 808.93,-166"/>
<polygon fill="black" stroke="black" points="808.93,-162.5 798.93,-166 808.93,-169.5 808.93,-162.5"/>
</g>
<!-- MatIconModule -->
<g id="node8" class="node">
<title>MatIconModule</title>
<polygon fill="#8dd3c7" stroke="black" points="994.47,-122 991.47,-126 970.47,-126 967.47,-122 887.53,-122 887.53,-86 994.47,-86 994.47,-122"/>
<text text-anchor="middle" x="941" y="-99.8" font-family="Times,serif" font-size="14.00">MatIconModule</text>
</g>
<!-- MatIconModule&#45;&gt;HumidityModule -->
<g id="edge7" class="edge">
<title>MatIconModule&#45;&gt;HumidityModule</title>
<path fill="none" stroke="black" d="M941,-122.01C941,-138.05 941,-159 941,-159 941,-159 808.76,-159 808.76,-159"/>
<polygon fill="black" stroke="black" points="808.76,-155.5 798.76,-159 808.76,-162.5 808.76,-155.5"/>
</g>
<!-- MatSliderModule -->
<g id="node9" class="node">
<title>MatSliderModule</title>
<polygon fill="#8dd3c7" stroke="black" points="869.54,-122 866.54,-126 845.54,-126 842.54,-122 754.46,-122 754.46,-86 869.54,-86 869.54,-122"/>
<text text-anchor="middle" x="812" y="-99.8" font-family="Times,serif" font-size="14.00">MatSliderModule</text>
</g>
<!-- MatSliderModule&#45;&gt;HumidityModule -->
<g id="edge8" class="edge">
<title>MatSliderModule&#45;&gt;HumidityModule</title>
<path fill="none" stroke="black" d="M776.42,-122.11C776.42,-122.11 776.42,-140.99 776.42,-140.99"/>
<polygon fill="black" stroke="black" points="772.92,-140.99 776.42,-150.99 779.92,-140.99 772.92,-140.99"/>
</g>
<!-- MatToolbarModule -->
<g id="node10" class="node">
<title>MatToolbarModule</title>
<polygon fill="#8dd3c7" stroke="black" points="736.42,-122 733.42,-126 712.42,-126 709.42,-122 609.58,-122 609.58,-86 736.42,-86 736.42,-122"/>
<text text-anchor="middle" x="673" y="-99.8" font-family="Times,serif" font-size="14.00">MatToolbarModule</text>
</g>
<!-- MatToolbarModule&#45;&gt;HumidityModule -->
<g id="edge9" class="edge">
<title>MatToolbarModule&#45;&gt;HumidityModule</title>
<path fill="none" stroke="black" d="M710.8,-122.11C710.8,-122.11 710.8,-140.99 710.8,-140.99"/>
<polygon fill="black" stroke="black" points="707.3,-140.99 710.8,-150.99 714.3,-140.99 707.3,-140.99"/>
</g>
<!-- OHumidityModule -->
<g id="node11" class="node">
<title>OHumidityModule</title>
<polygon fill="#8dd3c7" stroke="black" points="591.83,-122 588.83,-126 567.83,-126 564.83,-122 468.17,-122 468.17,-86 591.83,-86 591.83,-122"/>
<text text-anchor="middle" x="530" y="-99.8" font-family="Times,serif" font-size="14.00">OHumidityModule</text>
</g>
<!-- OHumidityModule&#45;&gt;HumidityModule -->
<g id="edge10" class="edge">
<title>OHumidityModule&#45;&gt;HumidityModule</title>
<path fill="none" stroke="black" d="M530,-122.01C530,-138.05 530,-159 530,-159 530,-159 675.19,-159 675.19,-159"/>
<polygon fill="black" stroke="black" points="675.19,-162.5 685.19,-159 675.19,-155.5 675.19,-162.5"/>
</g>
</g>
</svg>
