<?xml version="1.0" encoding="UTF-8" standalone="no"?>
<!DOCTYPE svg PUBLIC "-//W3C//DTD SVG 1.1//EN"
 "http://www.w3.org/Graphics/SVG/1.1/DTD/svg11.dtd">
<!-- Generated by graphviz version 2.44.1 (20200629.0846)
 -->
<!-- Title: dependencies Pages: 1 -->
<svg width="908pt" height="284pt"
 viewBox="0.00 0.00 908.00 284.00" xmlns="http://www.w3.org/2000/svg" xmlns:xlink="http://www.w3.org/1999/xlink">
<g id="graph0" class="graph" transform="scale(1 1) rotate(0) translate(4 280)">
<title>dependencies</title>
<polygon fill="white" stroke="transparent" points="-4,4 -4,-280 904,-280 904,4 -4,4"/>
<text text-anchor="start" x="429.01" y="-42.4" font-family="sans-serif" font-weight="bold" font-size="14.00">Legend</text>
<polygon fill="#ffffb3" stroke="transparent" points="216,-10 216,-30 236,-30 236,-10 216,-10"/>
<text text-anchor="start" x="239.63" y="-15.4" font-family="sans-serif" font-size="14.00"> &#160;Declarations</text>
<polygon fill="#8dd3c7" stroke="transparent" points="329,-10 329,-30 349,-30 349,-10 329,-10"/>
<text text-anchor="start" x="352.73" y="-15.4" font-family="sans-serif" font-size="14.00"> &#160;Module</text>
<polygon fill="#80b1d3" stroke="transparent" points="415,-10 415,-30 435,-30 435,-10 415,-10"/>
<text text-anchor="start" x="438.78" y="-15.4" font-family="sans-serif" font-size="14.00"> &#160;Bootstrap</text>
<polygon fill="#fdb462" stroke="transparent" points="512,-10 512,-30 532,-30 532,-10 512,-10"/>
<text text-anchor="start" x="535.67" y="-15.4" font-family="sans-serif" font-size="14.00"> &#160;Providers</text>
<polygon fill="#fb8072" stroke="transparent" points="608,-10 608,-30 628,-30 628,-10 608,-10"/>
<text text-anchor="start" x="631.73" y="-15.4" font-family="sans-serif" font-size="14.00"> &#160;Exports</text>
<g id="clust1" class="cluster">
<title>cluster_ClassModule</title>
<polygon fill="none" stroke="black" stroke-dasharray="1,5" points="8,-70 8,-268 892,-268 892,-70 8,-70"/>
</g>
<g id="clust6" class="cluster">
<title>cluster_ClassModule_imports</title>
<polygon fill="none" stroke="black" points="748,-78 748,-130 884,-130 884,-78 748,-78"/>
</g>
<g id="clust7" class="cluster">
<title>cluster_ClassModule_exports</title>
<polygon fill="none" stroke="black" points="401,-208 401,-260 533,-260 533,-208 401,-208"/>
</g>
<g id="clust2" class="cluster">
<title>cluster_ClassModule_declarations</title>
<polygon fill="none" stroke="black" points="322,-78 322,-130 740,-130 740,-78 322,-78"/>
</g>
<g id="clust9" class="cluster">
<title>cluster_ClassModule_providers</title>
<polygon fill="none" stroke="black" points="16,-78 16,-130 314,-130 314,-78 16,-78"/>
</g>
<!-- ClassComponent -->
<g id="node1" class="node">
<title>ClassComponent</title>
<polygon fill="#ffffb3" stroke="black" points="731.66,-122 620.34,-122 620.34,-86 731.66,-86 731.66,-122"/>
<text text-anchor="middle" x="676" y="-99.8" font-family="Times,serif" font-size="14.00">ClassComponent</text>
</g>
<!-- ClassModule -->
<g id="node4" class="node">
<title>ClassModule</title>
<polygon fill="#8dd3c7" stroke="black" points="511.88,-187 508.88,-191 487.88,-191 484.88,-187 422.12,-187 422.12,-151 511.88,-151 511.88,-187"/>
<text text-anchor="middle" x="467" y="-164.8" font-family="Times,serif" font-size="14.00">ClassModule</text>
</g>
<!-- ClassComponent&#45;&gt;ClassModule -->
<g id="edge1" class="edge">
<title>ClassComponent&#45;&gt;ClassModule</title>
<path fill="none" stroke="black" d="M676,-122.02C676,-139.37 676,-163 676,-163 676,-163 522.09,-163 522.09,-163"/>
<polygon fill="black" stroke="black" points="522.09,-159.5 512.09,-163 522.09,-166.5 522.09,-159.5"/>
</g>
<!-- StudentComponent -->
<g id="node2" class="node">
<title>StudentComponent</title>
<polygon fill="#ffffb3" stroke="black" points="602.11,-122 477.89,-122 477.89,-86 602.11,-86 602.11,-122"/>
<text text-anchor="middle" x="540" y="-99.8" font-family="Times,serif" font-size="14.00">StudentComponent</text>
</g>
<!-- StudentComponent&#45;&gt;ClassModule -->
<g id="edge2" class="edge">
<title>StudentComponent&#45;&gt;ClassModule</title>
<path fill="none" stroke="black" d="M494.94,-122.11C494.94,-122.11 494.94,-140.99 494.94,-140.99"/>
<polygon fill="black" stroke="black" points="491.44,-140.99 494.94,-150.99 498.44,-140.99 491.44,-140.99"/>
</g>
<!-- StudentsComponent -->
<g id="node3" class="node">
<title>StudentsComponent</title>
<polygon fill="#ffffb3" stroke="black" points="459.56,-122 330.44,-122 330.44,-86 459.56,-86 459.56,-122"/>
<text text-anchor="middle" x="395" y="-99.8" font-family="Times,serif" font-size="14.00">StudentsComponent</text>
</g>
<!-- StudentsComponent&#45;&gt;ClassModule -->
<g id="edge3" class="edge">
<title>StudentsComponent&#45;&gt;ClassModule</title>
<path fill="none" stroke="black" d="M440.92,-122.11C440.92,-122.11 440.92,-140.99 440.92,-140.99"/>
<polygon fill="black" stroke="black" points="437.42,-140.99 440.92,-150.99 444.42,-140.99 437.42,-140.99"/>
</g>
<!-- ClassComponent  -->
<g id="node6" class="node">
<title>ClassComponent </title>
<polygon fill="#fb8072" stroke="black" points="524.66,-252 409.34,-252 409.34,-216 524.66,-216 524.66,-252"/>
<text text-anchor="middle" x="467" y="-229.8" font-family="Times,serif" font-size="14.00">ClassComponent </text>
</g>
<!-- ClassModule&#45;&gt;ClassComponent  -->
<g id="edge5" class="edge">
<title>ClassModule&#45;&gt;ClassComponent </title>
<path fill="none" stroke="black" stroke-dasharray="5,2" d="M467,-187.11C467,-187.11 467,-205.99 467,-205.99"/>
<polygon fill="black" stroke="black" points="463.5,-205.99 467,-215.99 470.5,-205.99 463.5,-205.99"/>
</g>
<!-- ClaimGridModule -->
<g id="node5" class="node">
<title>ClaimGridModule</title>
<polygon fill="#8dd3c7" stroke="black" points="875.93,-122 872.93,-126 851.93,-126 848.93,-122 756.07,-122 756.07,-86 875.93,-86 875.93,-122"/>
<text text-anchor="middle" x="816" y="-99.8" font-family="Times,serif" font-size="14.00">ClaimGridModule</text>
</g>
<!-- ClaimGridModule&#45;&gt;ClassModule -->
<g id="edge4" class="edge">
<title>ClaimGridModule&#45;&gt;ClassModule</title>
<path fill="none" stroke="black" d="M816,-122.28C816,-143.32 816,-175 816,-175 816,-175 521.91,-175 521.91,-175"/>
<polygon fill="black" stroke="black" points="521.91,-171.5 511.91,-175 521.91,-178.5 521.91,-171.5"/>
</g>
<!-- StudentsService -->
<g id="node7" class="node">
<title>StudentsService</title>
<ellipse fill="#fdb462" stroke="black" cx="233" cy="-104" rx="73.01" ry="18"/>
<text text-anchor="middle" x="233" y="-99.8" font-family="Times,serif" font-size="14.00">StudentsService</text>
</g>
<!-- StudentsService&#45;&gt;ClassModule -->
<g id="edge6" class="edge">
<title>StudentsService&#45;&gt;ClassModule</title>
<path fill="none" stroke="black" d="M233,-122.02C233,-139.37 233,-163 233,-163 233,-163 411.88,-163 411.88,-163"/>
<polygon fill="black" stroke="black" points="411.88,-166.5 421.88,-163 411.88,-159.5 411.88,-166.5"/>
</g>
<!-- VentService -->
<g id="node8" class="node">
<title>VentService</title>
<ellipse fill="#fdb462" stroke="black" cx="83" cy="-104" rx="58.53" ry="18"/>
<text text-anchor="middle" x="83" y="-99.8" font-family="Times,serif" font-size="14.00">VentService</text>
</g>
<!-- VentService&#45;&gt;ClassModule -->
<g id="edge7" class="edge">
<title>VentService&#45;&gt;ClassModule</title>
<path fill="none" stroke="black" d="M83,-122.28C83,-143.32 83,-175 83,-175 83,-175 411.82,-175 411.82,-175"/>
<polygon fill="black" stroke="black" points="411.82,-178.5 421.82,-175 411.82,-171.5 411.82,-178.5"/>
</g>
</g>
</svg>
