<?xml version="1.0" encoding="UTF-8" standalone="no"?>
<!DOCTYPE svg PUBLIC "-//W3C//DTD SVG 1.1//EN"
 "http://www.w3.org/Graphics/SVG/1.1/DTD/svg11.dtd">
<!-- Generated by graphviz version 2.44.1 (20200629.0846)
 -->
<!-- Title: dependencies Pages: 1 -->
<svg width="908pt" height="284pt"
 viewBox="0.00 0.00 908.00 284.00" xmlns="http://www.w3.org/2000/svg" xmlns:xlink="http://www.w3.org/1999/xlink">
<g id="graph0" class="graph" transform="scale(1 1) rotate(0) translate(4 280)">
<title>dependencies</title>
<polygon fill="white" stroke="transparent" points="-4,4 -4,-280 904,-280 904,4 -4,4"/>
<text text-anchor="start" x="429.01" y="-42.4" font-family="sans-serif" font-weight="bold" font-size="14.00">Legend</text>
<polygon fill="#ffffb3" stroke="transparent" points="216,-10 216,-30 236,-30 236,-10 216,-10"/>
<text text-anchor="start" x="239.63" y="-15.4" font-family="sans-serif" font-size="14.00"> &#160;Declarations</text>
<polygon fill="#8dd3c7" stroke="transparent" points="329,-10 329,-30 349,-30 349,-10 329,-10"/>
<text text-anchor="start" x="352.73" y="-15.4" font-family="sans-serif" font-size="14.00"> &#160;Module</text>
<polygon fill="#80b1d3" stroke="transparent" points="415,-10 415,-30 435,-30 435,-10 415,-10"/>
<text text-anchor="start" x="438.78" y="-15.4" font-family="sans-serif" font-size="14.00"> &#160;Bootstrap</text>
<polygon fill="#fdb462" stroke="transparent" points="512,-10 512,-30 532,-30 532,-10 512,-10"/>
<text text-anchor="start" x="535.67" y="-15.4" font-family="sans-serif" font-size="14.00"> &#160;Providers</text>
<polygon fill="#fb8072" stroke="transparent" points="608,-10 608,-30 628,-30 628,-10 608,-10"/>
<text text-anchor="start" x="631.73" y="-15.4" font-family="sans-serif" font-size="14.00"> &#160;Exports</text>
<g id="clust1" class="cluster">
<title>cluster_ClassModule</title>
<polygon fill="none" stroke="black" stroke-dasharray="1,5" points="8,-70 8,-268 892,-268 892,-70 8,-70"/>
</g>
<g id="clust9" class="cluster">
<title>cluster_ClassModule_providers</title>
<polygon fill="none" stroke="black" points="586,-78 586,-130 884,-130 884,-78 586,-78"/>
</g>
<g id="clust7" class="cluster">
<title>cluster_ClassModule_exports</title>
<polygon fill="none" stroke="black" points="380,-208 380,-260 512,-260 512,-208 380,-208"/>
</g>
<g id="clust2" class="cluster">
<title>cluster_ClassModule_declarations</title>
<polygon fill="none" stroke="black" points="160,-78 160,-130 578,-130 578,-78 160,-78"/>
</g>
<g id="clust6" class="cluster">
<title>cluster_ClassModule_imports</title>
<polygon fill="none" stroke="black" points="16,-78 16,-130 152,-130 152,-78 16,-78"/>
</g>
<!-- ClassComponent -->
<g id="node1" class="node">
<title>ClassComponent</title>
<polygon fill="#ffffb3" stroke="black" points="569.66,-122 458.34,-122 458.34,-86 569.66,-86 569.66,-122"/>
<text text-anchor="middle" x="514" y="-99.8" font-family="Times,serif" font-size="14.00">ClassComponent</text>
</g>
<!-- ClassModule -->
<g id="node4" class="node">
<title>ClassModule</title>
<polygon fill="#8dd3c7" stroke="black" points="490.88,-187 487.88,-191 466.88,-191 463.88,-187 401.12,-187 401.12,-151 490.88,-151 490.88,-187"/>
<text text-anchor="middle" x="446" y="-164.8" font-family="Times,serif" font-size="14.00">ClassModule</text>
</g>
<!-- ClassComponent&#45;&gt;ClassModule -->
<g id="edge1" class="edge">
<title>ClassComponent&#45;&gt;ClassModule</title>
<path fill="none" stroke="black" d="M474.55,-122.11C474.55,-122.11 474.55,-140.99 474.55,-140.99"/>
<polygon fill="black" stroke="black" points="471.05,-140.99 474.55,-150.99 478.05,-140.99 471.05,-140.99"/>
</g>
<!-- StudentComponent -->
<g id="node2" class="node">
<title>StudentComponent</title>
<polygon fill="#ffffb3" stroke="black" points="440.11,-122 315.89,-122 315.89,-86 440.11,-86 440.11,-122"/>
<text text-anchor="middle" x="378" y="-99.8" font-family="Times,serif" font-size="14.00">StudentComponent</text>
</g>
<!-- StudentComponent&#45;&gt;ClassModule -->
<g id="edge2" class="edge">
<title>StudentComponent&#45;&gt;ClassModule</title>
<path fill="none" stroke="black" d="M420.56,-122.11C420.56,-122.11 420.56,-140.99 420.56,-140.99"/>
<polygon fill="black" stroke="black" points="417.06,-140.99 420.56,-150.99 424.06,-140.99 417.06,-140.99"/>
</g>
<!-- StudentsComponent -->
<g id="node3" class="node">
<title>StudentsComponent</title>
<polygon fill="#ffffb3" stroke="black" points="297.56,-122 168.44,-122 168.44,-86 297.56,-86 297.56,-122"/>
<text text-anchor="middle" x="233" y="-99.8" font-family="Times,serif" font-size="14.00">StudentsComponent</text>
</g>
<!-- StudentsComponent&#45;&gt;ClassModule -->
<g id="edge3" class="edge">
<title>StudentsComponent&#45;&gt;ClassModule</title>
<path fill="none" stroke="black" d="M233,-122.02C233,-139.37 233,-163 233,-163 233,-163 391.09,-163 391.09,-163"/>
<polygon fill="black" stroke="black" points="391.09,-166.5 401.09,-163 391.09,-159.5 391.09,-166.5"/>
</g>
<!-- ClassComponent  -->
<g id="node6" class="node">
<title>ClassComponent </title>
<polygon fill="#fb8072" stroke="black" points="503.66,-252 388.34,-252 388.34,-216 503.66,-216 503.66,-252"/>
<text text-anchor="middle" x="446" y="-229.8" font-family="Times,serif" font-size="14.00">ClassComponent </text>
</g>
<!-- ClassModule&#45;&gt;ClassComponent  -->
<g id="edge5" class="edge">
<title>ClassModule&#45;&gt;ClassComponent </title>
<path fill="none" stroke="black" stroke-dasharray="5,2" d="M446,-187.11C446,-187.11 446,-205.99 446,-205.99"/>
<polygon fill="black" stroke="black" points="442.5,-205.99 446,-215.99 449.5,-205.99 442.5,-205.99"/>
</g>
<!-- ClaimGridModule -->
<g id="node5" class="node">
<title>ClaimGridModule</title>
<polygon fill="#8dd3c7" stroke="black" points="143.93,-122 140.93,-126 119.93,-126 116.93,-122 24.07,-122 24.07,-86 143.93,-86 143.93,-122"/>
<text text-anchor="middle" x="84" y="-99.8" font-family="Times,serif" font-size="14.00">ClaimGridModule</text>
</g>
<!-- ClaimGridModule&#45;&gt;ClassModule -->
<g id="edge4" class="edge">
<title>ClaimGridModule&#45;&gt;ClassModule</title>
<path fill="none" stroke="black" d="M84,-122.28C84,-143.32 84,-175 84,-175 84,-175 390.88,-175 390.88,-175"/>
<polygon fill="black" stroke="black" points="390.88,-178.5 400.88,-175 390.88,-171.5 390.88,-178.5"/>
</g>
<!-- StudentsService -->
<g id="node7" class="node">
<title>StudentsService</title>
<ellipse fill="#fdb462" stroke="black" cx="803" cy="-104" rx="73.01" ry="18"/>
<text text-anchor="middle" x="803" y="-99.8" font-family="Times,serif" font-size="14.00">StudentsService</text>
</g>
<!-- StudentsService&#45;&gt;ClassModule -->
<g id="edge6" class="edge">
<title>StudentsService&#45;&gt;ClassModule</title>
<path fill="none" stroke="black" d="M803,-122.28C803,-143.32 803,-175 803,-175 803,-175 501.21,-175 501.21,-175"/>
<polygon fill="black" stroke="black" points="501.21,-171.5 491.21,-175 501.21,-178.5 501.21,-171.5"/>
</g>
<!-- VentService -->
<g id="node8" class="node">
<title>VentService</title>
<ellipse fill="#fdb462" stroke="black" cx="653" cy="-104" rx="58.53" ry="18"/>
<text text-anchor="middle" x="653" y="-99.8" font-family="Times,serif" font-size="14.00">VentService</text>
</g>
<!-- VentService&#45;&gt;ClassModule -->
<g id="edge7" class="edge">
<title>VentService&#45;&gt;ClassModule</title>
<path fill="none" stroke="black" d="M653,-122.02C653,-139.37 653,-163 653,-163 653,-163 500.92,-163 500.92,-163"/>
<polygon fill="black" stroke="black" points="500.92,-159.5 490.92,-163 500.92,-166.5 500.92,-159.5"/>
</g>
</g>
</svg>
