<?xml version="1.0" encoding="UTF-8" standalone="no"?>
<!DOCTYPE svg PUBLIC "-//W3C//DTD SVG 1.1//EN"
 "http://www.w3.org/Graphics/SVG/1.1/DTD/svg11.dtd">
<!-- Generated by graphviz version 2.44.1 (20200629.0846)
 -->
<!-- Title: dependencies Pages: 1 -->
<svg width="1176pt" height="284pt"
 viewBox="0.00 0.00 1176.00 284.00" xmlns="http://www.w3.org/2000/svg" xmlns:xlink="http://www.w3.org/1999/xlink">
<g id="graph0" class="graph" transform="scale(1 1) rotate(0) translate(4 280)">
<title>dependencies</title>
<polygon fill="white" stroke="transparent" points="-4,4 -4,-280 1172,-280 1172,4 -4,4"/>
<text text-anchor="start" x="563.01" y="-42.4" font-family="sans-serif" font-weight="bold" font-size="14.00">Legend</text>
<polygon fill="#ffffb3" stroke="transparent" points="350,-10 350,-30 370,-30 370,-10 350,-10"/>
<text text-anchor="start" x="373.63" y="-15.4" font-family="sans-serif" font-size="14.00"> &#160;Declarations</text>
<polygon fill="#8dd3c7" stroke="transparent" points="463,-10 463,-30 483,-30 483,-10 463,-10"/>
<text text-anchor="start" x="486.73" y="-15.4" font-family="sans-serif" font-size="14.00"> &#160;Module</text>
<polygon fill="#80b1d3" stroke="transparent" points="549,-10 549,-30 569,-30 569,-10 549,-10"/>
<text text-anchor="start" x="572.78" y="-15.4" font-family="sans-serif" font-size="14.00"> &#160;Bootstrap</text>
<polygon fill="#fdb462" stroke="transparent" points="646,-10 646,-30 666,-30 666,-10 646,-10"/>
<text text-anchor="start" x="669.67" y="-15.4" font-family="sans-serif" font-size="14.00"> &#160;Providers</text>
<polygon fill="#fb8072" stroke="transparent" points="742,-10 742,-30 762,-30 762,-10 742,-10"/>
<text text-anchor="start" x="765.73" y="-15.4" font-family="sans-serif" font-size="14.00"> &#160;Exports</text>
<g id="clust1" class="cluster">
<title>cluster_ClassModule</title>
<polygon fill="none" stroke="black" stroke-dasharray="1,5" points="8,-70 8,-268 1160,-268 1160,-70 8,-70"/>
</g>
<g id="clust7" class="cluster">
<title>cluster_ClassModule_exports</title>
<polygon fill="none" stroke="black" points="513,-208 513,-260 645,-260 645,-208 513,-208"/>
</g>
<g id="clust9" class="cluster">
<title>cluster_ClassModule_providers</title>
<polygon fill="none" stroke="black" points="854,-78 854,-130 1152,-130 1152,-78 854,-78"/>
</g>
<g id="clust6" class="cluster">
<title>cluster_ClassModule_imports</title>
<polygon fill="none" stroke="black" points="442,-78 442,-130 846,-130 846,-78 442,-78"/>
</g>
<g id="clust2" class="cluster">
<title>cluster_ClassModule_declarations</title>
<polygon fill="none" stroke="black" points="16,-78 16,-130 434,-130 434,-78 16,-78"/>
</g>
<!-- ClassComponent -->
<g id="node1" class="node">
<title>ClassComponent</title>
<polygon fill="#ffffb3" stroke="black" points="425.66,-122 314.34,-122 314.34,-86 425.66,-86 425.66,-122"/>
<text text-anchor="middle" x="370" y="-99.8" font-family="Times,serif" font-size="14.00">ClassComponent</text>
</g>
<!-- ClassModule -->
<g id="node4" class="node">
<title>ClassModule</title>
<polygon fill="#8dd3c7" stroke="black" points="623.88,-187 620.88,-191 599.88,-191 596.88,-187 534.12,-187 534.12,-151 623.88,-151 623.88,-187"/>
<text text-anchor="middle" x="579" y="-164.8" font-family="Times,serif" font-size="14.00">ClassModule</text>
</g>
<!-- ClassComponent&#45;&gt;ClassModule -->
<g id="edge1" class="edge">
<title>ClassComponent&#45;&gt;ClassModule</title>
<path fill="none" stroke="black" d="M370,-122.03C370,-138.4 370,-160 370,-160 370,-160 523.91,-160 523.91,-160"/>
<polygon fill="black" stroke="black" points="523.91,-163.5 533.91,-160 523.91,-156.5 523.91,-163.5"/>
</g>
<!-- StudentComponent -->
<g id="node2" class="node">
<title>StudentComponent</title>
<polygon fill="#ffffb3" stroke="black" points="296.11,-122 171.89,-122 171.89,-86 296.11,-86 296.11,-122"/>
<text text-anchor="middle" x="234" y="-99.8" font-family="Times,serif" font-size="14.00">StudentComponent</text>
</g>
<!-- StudentComponent&#45;&gt;ClassModule -->
<g id="edge2" class="edge">
<title>StudentComponent&#45;&gt;ClassModule</title>
<path fill="none" stroke="black" d="M234,-122.11C234,-141.34 234,-169 234,-169 234,-169 523.9,-169 523.9,-169"/>
<polygon fill="black" stroke="black" points="523.9,-172.5 533.9,-169 523.9,-165.5 523.9,-172.5"/>
</g>
<!-- StudentsComponent -->
<g id="node3" class="node">
<title>StudentsComponent</title>
<polygon fill="#ffffb3" stroke="black" points="153.56,-122 24.44,-122 24.44,-86 153.56,-86 153.56,-122"/>
<text text-anchor="middle" x="89" y="-99.8" font-family="Times,serif" font-size="14.00">StudentsComponent</text>
</g>
<!-- StudentsComponent&#45;&gt;ClassModule -->
<g id="edge3" class="edge">
<title>StudentsComponent&#45;&gt;ClassModule</title>
<path fill="none" stroke="black" d="M89,-122.29C89,-144.21 89,-178 89,-178 89,-178 523.78,-178 523.78,-178"/>
<polygon fill="black" stroke="black" points="523.78,-181.5 533.78,-178 523.78,-174.5 523.78,-181.5"/>
</g>
<!-- ClassComponent  -->
<g id="node8" class="node">
<title>ClassComponent </title>
<polygon fill="#fb8072" stroke="black" points="636.66,-252 521.34,-252 521.34,-216 636.66,-216 636.66,-252"/>
<text text-anchor="middle" x="579" y="-229.8" font-family="Times,serif" font-size="14.00">ClassComponent </text>
</g>
<!-- ClassModule&#45;&gt;ClassComponent  -->
<g id="edge7" class="edge">
<title>ClassModule&#45;&gt;ClassComponent </title>
<path fill="none" stroke="black" stroke-dasharray="5,2" d="M579,-187.11C579,-187.11 579,-205.99 579,-205.99"/>
<polygon fill="black" stroke="black" points="575.5,-205.99 579,-215.99 582.5,-205.99 575.5,-205.99"/>
</g>
<!-- CommonModule -->
<g id="node5" class="node">
<title>CommonModule</title>
<polygon fill="#8dd3c7" stroke="black" points="837.67,-122 834.67,-126 813.67,-126 810.67,-122 726.33,-122 726.33,-86 837.67,-86 837.67,-122"/>
<text text-anchor="middle" x="782" y="-99.8" font-family="Times,serif" font-size="14.00">CommonModule</text>
</g>
<!-- CommonModule&#45;&gt;ClassModule -->
<g id="edge4" class="edge">
<title>CommonModule&#45;&gt;ClassModule</title>
<path fill="none" stroke="black" d="M782,-122.03C782,-138.4 782,-160 782,-160 782,-160 634.05,-160 634.05,-160"/>
<polygon fill="black" stroke="black" points="634.05,-156.5 624.05,-160 634.05,-163.5 634.05,-156.5"/>
</g>
<!-- MatButtonModule -->
<g id="node6" class="node">
<title>MatButtonModule</title>
<polygon fill="#8dd3c7" stroke="black" points="708.22,-122 705.22,-126 684.22,-126 681.22,-122 587.78,-122 587.78,-86 708.22,-86 708.22,-122"/>
<text text-anchor="middle" x="648" y="-99.8" font-family="Times,serif" font-size="14.00">MatButtonModule</text>
</g>
<!-- MatButtonModule&#45;&gt;ClassModule -->
<g id="edge5" class="edge">
<title>MatButtonModule&#45;&gt;ClassModule</title>
<path fill="none" stroke="black" d="M605.92,-122.11C605.92,-122.11 605.92,-140.99 605.92,-140.99"/>
<polygon fill="black" stroke="black" points="602.42,-140.99 605.92,-150.99 609.42,-140.99 602.42,-140.99"/>
</g>
<!-- ClaimGridModule -->
<g id="node7" class="node">
<title>ClaimGridModule</title>
<polygon fill="#8dd3c7" stroke="black" points="569.93,-122 566.93,-126 545.93,-126 542.93,-122 450.07,-122 450.07,-86 569.93,-86 569.93,-122"/>
<text text-anchor="middle" x="510" y="-99.8" font-family="Times,serif" font-size="14.00">ClaimGridModule</text>
</g>
<!-- ClaimGridModule&#45;&gt;ClassModule -->
<g id="edge6" class="edge">
<title>ClaimGridModule&#45;&gt;ClassModule</title>
<path fill="none" stroke="black" d="M551.89,-122.11C551.89,-122.11 551.89,-140.99 551.89,-140.99"/>
<polygon fill="black" stroke="black" points="548.39,-140.99 551.89,-150.99 555.39,-140.99 548.39,-140.99"/>
</g>
<!-- StudentsService -->
<g id="node9" class="node">
<title>StudentsService</title>
<ellipse fill="#fdb462" stroke="black" cx="1071" cy="-104" rx="73.01" ry="18"/>
<text text-anchor="middle" x="1071" y="-99.8" font-family="Times,serif" font-size="14.00">StudentsService</text>
</g>
<!-- StudentsService&#45;&gt;ClassModule -->
<g id="edge8" class="edge">
<title>StudentsService&#45;&gt;ClassModule</title>
<path fill="none" stroke="black" d="M1071,-122.29C1071,-144.21 1071,-178 1071,-178 1071,-178 633.97,-178 633.97,-178"/>
<polygon fill="black" stroke="black" points="633.97,-174.5 623.97,-178 633.97,-181.5 633.97,-174.5"/>
</g>
<!-- VentService -->
<g id="node10" class="node">
<title>VentService</title>
<ellipse fill="#fdb462" stroke="black" cx="921" cy="-104" rx="58.53" ry="18"/>
<text text-anchor="middle" x="921" y="-99.8" font-family="Times,serif" font-size="14.00">VentService</text>
</g>
<!-- VentService&#45;&gt;ClassModule -->
<g id="edge9" class="edge">
<title>VentService&#45;&gt;ClassModule</title>
<path fill="none" stroke="black" d="M921,-122.11C921,-141.34 921,-169 921,-169 921,-169 634.06,-169 634.06,-169"/>
<polygon fill="black" stroke="black" points="634.06,-165.5 624.06,-169 634.06,-172.5 634.06,-165.5"/>
</g>
</g>
</svg>
