<?xml version="1.0" encoding="UTF-8" standalone="no"?>
<!DOCTYPE svg PUBLIC "-//W3C//DTD SVG 1.1//EN"
 "http://www.w3.org/Graphics/SVG/1.1/DTD/svg11.dtd">
<!-- Generated by graphviz version 2.44.1 (20200629.0846)
 -->
<!-- Title: dependencies Pages: 1 -->
<svg width="1801pt" height="284pt"
 viewBox="0.00 0.00 1801.00 284.00" xmlns="http://www.w3.org/2000/svg" xmlns:xlink="http://www.w3.org/1999/xlink">
<g id="graph0" class="graph" transform="scale(1 1) rotate(0) translate(4 280)">
<title>dependencies</title>
<polygon fill="white" stroke="transparent" points="-4,4 -4,-280 1797,-280 1797,4 -4,4"/>
<text text-anchor="start" x="875.51" y="-42.4" font-family="sans-serif" font-weight="bold" font-size="14.00">Legend</text>
<polygon fill="#ffffb3" stroke="transparent" points="662.5,-10 662.5,-30 682.5,-30 682.5,-10 662.5,-10"/>
<text text-anchor="start" x="686.13" y="-15.4" font-family="sans-serif" font-size="14.00"> &#160;Declarations</text>
<polygon fill="#8dd3c7" stroke="transparent" points="775.5,-10 775.5,-30 795.5,-30 795.5,-10 775.5,-10"/>
<text text-anchor="start" x="799.23" y="-15.4" font-family="sans-serif" font-size="14.00"> &#160;Module</text>
<polygon fill="#80b1d3" stroke="transparent" points="861.5,-10 861.5,-30 881.5,-30 881.5,-10 861.5,-10"/>
<text text-anchor="start" x="885.28" y="-15.4" font-family="sans-serif" font-size="14.00"> &#160;Bootstrap</text>
<polygon fill="#fdb462" stroke="transparent" points="958.5,-10 958.5,-30 978.5,-30 978.5,-10 958.5,-10"/>
<text text-anchor="start" x="982.17" y="-15.4" font-family="sans-serif" font-size="14.00"> &#160;Providers</text>
<polygon fill="#fb8072" stroke="transparent" points="1054.5,-10 1054.5,-30 1074.5,-30 1074.5,-10 1054.5,-10"/>
<text text-anchor="start" x="1078.23" y="-15.4" font-family="sans-serif" font-size="14.00"> &#160;Exports</text>
<g id="clust1" class="cluster">
<title>cluster_AppModule</title>
<polygon fill="none" stroke="black" stroke-dasharray="1,5" points="8,-70 8,-268 1785,-268 1785,-70 8,-70"/>
</g>
<g id="clust6" class="cluster">
<title>cluster_AppModule_imports</title>
<polygon fill="none" stroke="black" points="600,-78 600,-130 1777,-130 1777,-78 600,-78"/>
</g>
<g id="clust2" class="cluster">
<title>cluster_AppModule_declarations</title>
<polygon fill="none" stroke="black" points="174,-78 174,-130 592,-130 592,-78 174,-78"/>
</g>
<g id="clust9" class="cluster">
<title>cluster_AppModule_providers</title>
<polygon fill="none" stroke="black" points="16,-78 16,-130 166,-130 166,-78 16,-78"/>
</g>
<g id="clust8" class="cluster">
<title>cluster_AppModule_bootstrap</title>
<polygon fill="none" stroke="black" points="867,-208 867,-260 991,-260 991,-208 867,-208"/>
</g>
<!-- AppComponent -->
<g id="node1" class="node">
<title>AppComponent</title>
<polygon fill="#ffffb3" stroke="black" points="583.94,-122 478.06,-122 478.06,-86 583.94,-86 583.94,-122"/>
<text text-anchor="middle" x="531" y="-99.8" font-family="Times,serif" font-size="14.00">AppComponent</text>
</g>
<!-- AppModule -->
<g id="node4" class="node">
<title>AppModule</title>
<polygon fill="#8dd3c7" stroke="black" points="970.66,-187 967.66,-191 946.66,-191 943.66,-187 887.34,-187 887.34,-151 970.66,-151 970.66,-187"/>
<text text-anchor="middle" x="929" y="-164.8" font-family="Times,serif" font-size="14.00">AppModule</text>
</g>
<!-- AppComponent&#45;&gt;AppModule -->
<g id="edge1" class="edge">
<title>AppComponent&#45;&gt;AppModule</title>
<path fill="none" stroke="black" d="M531,-122.22C531,-140.83 531,-167 531,-167 531,-167 877.16,-167 877.16,-167"/>
<polygon fill="black" stroke="black" points="877.16,-170.5 887.16,-167 877.16,-163.5 877.16,-170.5"/>
</g>
<!-- NotFoundComponent -->
<g id="node2" class="node">
<title>NotFoundComponent</title>
<polygon fill="#ffffb3" stroke="black" points="460.11,-122 321.89,-122 321.89,-86 460.11,-86 460.11,-122"/>
<text text-anchor="middle" x="391" y="-99.8" font-family="Times,serif" font-size="14.00">NotFoundComponent</text>
</g>
<!-- NotFoundComponent&#45;&gt;AppModule -->
<g id="edge2" class="edge">
<title>NotFoundComponent&#45;&gt;AppModule</title>
<path fill="none" stroke="black" d="M391,-122.22C391,-142.37 391,-172 391,-172 391,-172 877.23,-172 877.23,-172"/>
<polygon fill="black" stroke="black" points="877.23,-175.5 887.23,-172 877.23,-168.5 877.23,-175.5"/>
</g>
<!-- LogoutComponent -->
<g id="node3" class="node">
<title>LogoutComponent</title>
<polygon fill="#ffffb3" stroke="black" points="303.78,-122 182.22,-122 182.22,-86 303.78,-86 303.78,-122"/>
<text text-anchor="middle" x="243" y="-99.8" font-family="Times,serif" font-size="14.00">LogoutComponent</text>
</g>
<!-- LogoutComponent&#45;&gt;AppModule -->
<g id="edge3" class="edge">
<title>LogoutComponent&#45;&gt;AppModule</title>
<path fill="none" stroke="black" d="M243,-122.04C243,-143.66 243,-177 243,-177 243,-177 877.12,-177 877.12,-177"/>
<polygon fill="black" stroke="black" points="877.12,-180.5 887.12,-177 877.12,-173.5 877.12,-180.5"/>
</g>
<!-- AppComponent  -->
<g id="node14" class="node">
<title>AppComponent </title>
<polygon fill="#80b1d3" stroke="black" points="983.44,-252 874.56,-252 874.56,-216 983.44,-216 983.44,-252"/>
<text text-anchor="middle" x="929" y="-229.8" font-family="Times,serif" font-size="14.00">AppComponent </text>
</g>
<!-- AppModule&#45;&gt;AppComponent  -->
<g id="edge13" class="edge">
<title>AppModule&#45;&gt;AppComponent </title>
<path fill="none" stroke="black" stroke-dasharray="1,5" d="M929,-187.11C929,-187.11 929,-205.99 929,-205.99"/>
<polygon fill="black" stroke="black" points="925.5,-205.99 929,-215.99 932.5,-205.99 925.5,-205.99"/>
</g>
<!-- BrowserModule -->
<g id="node5" class="node">
<title>BrowserModule</title>
<polygon fill="#8dd3c7" stroke="black" points="1769.47,-122 1766.47,-126 1745.47,-126 1742.47,-122 1662.53,-122 1662.53,-86 1769.47,-86 1769.47,-122"/>
<text text-anchor="middle" x="1716" y="-99.8" font-family="Times,serif" font-size="14.00">BrowserModule</text>
</g>
<!-- BrowserModule&#45;&gt;AppModule -->
<g id="edge4" class="edge">
<title>BrowserModule&#45;&gt;AppModule</title>
<path fill="none" stroke="black" d="M1716,-122.09C1716,-145.13 1716,-182 1716,-182 1716,-182 980.76,-182 980.76,-182"/>
<polygon fill="black" stroke="black" points="980.76,-178.5 970.76,-182 980.76,-185.5 980.76,-178.5"/>
</g>
<!-- AppRoutingModule -->
<g id="node6" class="node">
<title>AppRoutingModule</title>
<polygon fill="#8dd3c7" stroke="black" points="1644.27,-122 1641.27,-126 1620.27,-126 1617.27,-122 1515.73,-122 1515.73,-86 1644.27,-86 1644.27,-122"/>
<text text-anchor="middle" x="1580" y="-99.8" font-family="Times,serif" font-size="14.00">AppRoutingModule</text>
</g>
<!-- AppRoutingModule&#45;&gt;AppModule -->
<g id="edge5" class="edge">
<title>AppRoutingModule&#45;&gt;AppModule</title>
<path fill="none" stroke="black" d="M1580,-122.04C1580,-143.66 1580,-177 1580,-177 1580,-177 980.71,-177 980.71,-177"/>
<polygon fill="black" stroke="black" points="980.71,-173.5 970.71,-177 980.71,-180.5 980.71,-173.5"/>
</g>
<!-- TemperatureModule -->
<g id="node7" class="node">
<title>TemperatureModule</title>
<polygon fill="#8dd3c7" stroke="black" points="1497.56,-122 1494.56,-126 1473.56,-126 1470.56,-122 1366.44,-122 1366.44,-86 1497.56,-86 1497.56,-122"/>
<text text-anchor="middle" x="1432" y="-99.8" font-family="Times,serif" font-size="14.00">TemperatureModule</text>
</g>
<!-- TemperatureModule&#45;&gt;AppModule -->
<g id="edge6" class="edge">
<title>TemperatureModule&#45;&gt;AppModule</title>
<path fill="none" stroke="black" d="M1432,-122.22C1432,-142.37 1432,-172 1432,-172 1432,-172 981.02,-172 981.02,-172"/>
<polygon fill="black" stroke="black" points="981.02,-168.5 971.02,-172 981.02,-175.5 981.02,-168.5"/>
</g>
<!-- HumidityModule -->
<g id="node8" class="node">
<title>HumidityModule</title>
<polygon fill="#8dd3c7" stroke="black" points="1348.72,-122 1345.72,-126 1324.72,-126 1321.72,-122 1235.28,-122 1235.28,-86 1348.72,-86 1348.72,-122"/>
<text text-anchor="middle" x="1292" y="-99.8" font-family="Times,serif" font-size="14.00">HumidityModule</text>
</g>
<!-- HumidityModule&#45;&gt;AppModule -->
<g id="edge7" class="edge">
<title>HumidityModule&#45;&gt;AppModule</title>
<path fill="none" stroke="black" d="M1292,-122.22C1292,-140.83 1292,-167 1292,-167 1292,-167 981,-167 981,-167"/>
<polygon fill="black" stroke="black" points="981,-163.5 971,-167 981,-170.5 981,-163.5"/>
</g>
<!-- AuthModule -->
<g id="node9" class="node">
<title>AuthModule</title>
<polygon fill="#8dd3c7" stroke="black" points="1217.55,-122 1214.55,-126 1193.55,-126 1190.55,-122 1130.45,-122 1130.45,-86 1217.55,-86 1217.55,-122"/>
<text text-anchor="middle" x="1174" y="-99.8" font-family="Times,serif" font-size="14.00">AuthModule</text>
</g>
<!-- AuthModule&#45;&gt;AppModule -->
<g id="edge8" class="edge">
<title>AuthModule&#45;&gt;AppModule</title>
<path fill="none" stroke="black" d="M1174,-122.03C1174,-139.06 1174,-162 1174,-162 1174,-162 980.84,-162 980.84,-162"/>
<polygon fill="black" stroke="black" points="980.84,-158.5 970.84,-162 980.84,-165.5 980.84,-158.5"/>
</g>
<!-- DashboardModule -->
<g id="node10" class="node">
<title>DashboardModule</title>
<polygon fill="#8dd3c7" stroke="black" points="1112.19,-122 1109.19,-126 1088.19,-126 1085.19,-122 991.81,-122 991.81,-86 1112.19,-86 1112.19,-122"/>
<text text-anchor="middle" x="1052" y="-99.8" font-family="Times,serif" font-size="14.00">DashboardModule</text>
</g>
<!-- DashboardModule&#45;&gt;AppModule -->
<g id="edge9" class="edge">
<title>DashboardModule&#45;&gt;AppModule</title>
<path fill="none" stroke="black" d="M1052,-122.24C1052,-137.57 1052,-157 1052,-157 1052,-157 980.99,-157 980.99,-157"/>
<polygon fill="black" stroke="black" points="980.99,-153.5 970.99,-157 980.99,-160.5 980.99,-153.5"/>
</g>
<!-- ClassModule -->
<g id="node11" class="node">
<title>ClassModule</title>
<polygon fill="#8dd3c7" stroke="black" points="973.88,-122 970.88,-126 949.88,-126 946.88,-122 884.12,-122 884.12,-86 973.88,-86 973.88,-122"/>
<text text-anchor="middle" x="929" y="-99.8" font-family="Times,serif" font-size="14.00">ClassModule</text>
</g>
<!-- ClassModule&#45;&gt;AppModule -->
<g id="edge10" class="edge">
<title>ClassModule&#45;&gt;AppModule</title>
<path fill="none" stroke="black" d="M929,-122.11C929,-122.11 929,-140.99 929,-140.99"/>
<polygon fill="black" stroke="black" points="925.5,-140.99 929,-150.99 932.5,-140.99 925.5,-140.99"/>
</g>
<!-- MatButtonModule -->
<g id="node12" class="node">
<title>MatButtonModule</title>
<polygon fill="#8dd3c7" stroke="black" points="866.22,-122 863.22,-126 842.22,-126 839.22,-122 745.78,-122 745.78,-86 866.22,-86 866.22,-122"/>
<text text-anchor="middle" x="806" y="-99.8" font-family="Times,serif" font-size="14.00">MatButtonModule</text>
</g>
<!-- MatButtonModule&#45;&gt;AppModule -->
<g id="edge11" class="edge">
<title>MatButtonModule&#45;&gt;AppModule</title>
<path fill="none" stroke="black" d="M806,-122.24C806,-137.57 806,-157 806,-157 806,-157 877.01,-157 877.01,-157"/>
<polygon fill="black" stroke="black" points="877.01,-160.5 887.01,-157 877.01,-153.5 877.01,-160.5"/>
</g>
<!-- MatDialogModule -->
<g id="node13" class="node">
<title>MatDialogModule</title>
<polygon fill="#8dd3c7" stroke="black" points="728.2,-122 725.2,-126 704.2,-126 701.2,-122 607.8,-122 607.8,-86 728.2,-86 728.2,-122"/>
<text text-anchor="middle" x="668" y="-99.8" font-family="Times,serif" font-size="14.00">MatDialogModule</text>
</g>
<!-- MatDialogModule&#45;&gt;AppModule -->
<g id="edge12" class="edge">
<title>MatDialogModule&#45;&gt;AppModule</title>
<path fill="none" stroke="black" d="M668,-122.03C668,-139.06 668,-162 668,-162 668,-162 877.07,-162 877.07,-162"/>
<polygon fill="black" stroke="black" points="877.07,-165.5 887.07,-162 877.07,-158.5 877.07,-165.5"/>
</g>
<!-- PresetsService -->
<g id="node15" class="node">
<title>PresetsService</title>
<ellipse fill="#fdb462" stroke="black" cx="91" cy="-104" rx="67.19" ry="18"/>
<text text-anchor="middle" x="91" y="-99.8" font-family="Times,serif" font-size="14.00">PresetsService</text>
</g>
<!-- PresetsService&#45;&gt;AppModule -->
<g id="edge14" class="edge">
<title>PresetsService&#45;&gt;AppModule</title>
<path fill="none" stroke="black" d="M91,-122.09C91,-145.13 91,-182 91,-182 91,-182 877.16,-182 877.16,-182"/>
<polygon fill="black" stroke="black" points="877.16,-185.5 887.16,-182 877.16,-178.5 877.16,-185.5"/>
</g>
</g>
</svg>
