<?xml version="1.0" encoding="UTF-8" standalone="no"?>
<!DOCTYPE svg PUBLIC "-//W3C//DTD SVG 1.1//EN"
 "http://www.w3.org/Graphics/SVG/1.1/DTD/svg11.dtd">
<!-- Generated by graphviz version 2.44.1 (20200629.0846)
 -->
<!-- Title: dependencies Pages: 1 -->
<svg width="1433pt" height="284pt"
 viewBox="0.00 0.00 1433.00 284.00" xmlns="http://www.w3.org/2000/svg" xmlns:xlink="http://www.w3.org/1999/xlink">
<g id="graph0" class="graph" transform="scale(1 1) rotate(0) translate(4 280)">
<title>dependencies</title>
<polygon fill="white" stroke="transparent" points="-4,4 -4,-280 1429,-280 1429,4 -4,4"/>
<text text-anchor="start" x="691.51" y="-42.4" font-family="sans-serif" font-weight="bold" font-size="14.00">Legend</text>
<polygon fill="#ffffb3" stroke="transparent" points="478.5,-10 478.5,-30 498.5,-30 498.5,-10 478.5,-10"/>
<text text-anchor="start" x="502.13" y="-15.4" font-family="sans-serif" font-size="14.00"> &#160;Declarations</text>
<polygon fill="#8dd3c7" stroke="transparent" points="591.5,-10 591.5,-30 611.5,-30 611.5,-10 591.5,-10"/>
<text text-anchor="start" x="615.23" y="-15.4" font-family="sans-serif" font-size="14.00"> &#160;Module</text>
<polygon fill="#80b1d3" stroke="transparent" points="677.5,-10 677.5,-30 697.5,-30 697.5,-10 677.5,-10"/>
<text text-anchor="start" x="701.28" y="-15.4" font-family="sans-serif" font-size="14.00"> &#160;Bootstrap</text>
<polygon fill="#fdb462" stroke="transparent" points="774.5,-10 774.5,-30 794.5,-30 794.5,-10 774.5,-10"/>
<text text-anchor="start" x="798.17" y="-15.4" font-family="sans-serif" font-size="14.00"> &#160;Providers</text>
<polygon fill="#fb8072" stroke="transparent" points="870.5,-10 870.5,-30 890.5,-30 890.5,-10 870.5,-10"/>
<text text-anchor="start" x="894.23" y="-15.4" font-family="sans-serif" font-size="14.00"> &#160;Exports</text>
<g id="clust1" class="cluster">
<title>cluster_AppModule</title>
<polygon fill="none" stroke="black" stroke-dasharray="1,5" points="8,-70 8,-268 1417,-268 1417,-70 8,-70"/>
</g>
<g id="clust2" class="cluster">
<title>cluster_AppModule_declarations</title>
<polygon fill="none" stroke="black" points="801,-78 801,-130 1409,-130 1409,-78 801,-78"/>
</g>
<g id="clust9" class="cluster">
<title>cluster_AppModule_bootstrap</title>
<polygon fill="none" stroke="black" points="596,-208 596,-260 720,-260 720,-208 596,-208"/>
</g>
<g id="clust7" class="cluster">
<title>cluster_AppModule_imports</title>
<polygon fill="none" stroke="black" points="16,-78 16,-130 793,-130 793,-78 16,-78"/>
</g>
<!-- AppComponent -->
<g id="node1" class="node">
<title>AppComponent</title>
<polygon fill="#ffffb3" stroke="black" points="1400.94,-122 1295.06,-122 1295.06,-86 1400.94,-86 1400.94,-122"/>
<text text-anchor="middle" x="1348" y="-99.8" font-family="Times,serif" font-size="14.00">AppComponent</text>
</g>
<!-- AppModule -->
<g id="node5" class="node">
<title>AppModule</title>
<polygon fill="#8dd3c7" stroke="black" points="699.66,-187 696.66,-191 675.66,-191 672.66,-187 616.34,-187 616.34,-151 699.66,-151 699.66,-187"/>
<text text-anchor="middle" x="658" y="-164.8" font-family="Times,serif" font-size="14.00">AppModule</text>
</g>
<!-- AppComponent&#45;&gt;AppModule -->
<g id="edge1" class="edge">
<title>AppComponent&#45;&gt;AppModule</title>
<path fill="none" stroke="black" d="M1348,-122.01C1348,-144.49 1348,-180 1348,-180 1348,-180 709.87,-180 709.87,-180"/>
<polygon fill="black" stroke="black" points="709.87,-176.5 699.87,-180 709.87,-183.5 709.87,-176.5"/>
</g>
<!-- LogoutComponent -->
<g id="node2" class="node">
<title>LogoutComponent</title>
<polygon fill="#ffffb3" stroke="black" points="1276.78,-122 1155.22,-122 1155.22,-86 1276.78,-86 1276.78,-122"/>
<text text-anchor="middle" x="1216" y="-99.8" font-family="Times,serif" font-size="14.00">LogoutComponent</text>
</g>
<!-- LogoutComponent&#45;&gt;AppModule -->
<g id="edge2" class="edge">
<title>LogoutComponent&#45;&gt;AppModule</title>
<path fill="none" stroke="black" d="M1216,-122.13C1216,-142.57 1216,-173 1216,-173 1216,-173 709.94,-173 709.94,-173"/>
<polygon fill="black" stroke="black" points="709.94,-169.5 699.94,-173 709.94,-176.5 709.94,-169.5"/>
</g>
<!-- NotFoundComponent -->
<g id="node3" class="node">
<title>NotFoundComponent</title>
<polygon fill="#ffffb3" stroke="black" points="1137.11,-122 998.89,-122 998.89,-86 1137.11,-86 1137.11,-122"/>
<text text-anchor="middle" x="1068" y="-99.8" font-family="Times,serif" font-size="14.00">NotFoundComponent</text>
</g>
<!-- NotFoundComponent&#45;&gt;AppModule -->
<g id="edge3" class="edge">
<title>NotFoundComponent&#45;&gt;AppModule</title>
<path fill="none" stroke="black" d="M1068,-122.27C1068,-140.56 1068,-166 1068,-166 1068,-166 709.95,-166 709.95,-166"/>
<polygon fill="black" stroke="black" points="709.95,-162.5 699.95,-166 709.95,-169.5 709.95,-162.5"/>
</g>
<!-- NotInUseModalComponent -->
<g id="node4" class="node">
<title>NotInUseModalComponent</title>
<polygon fill="#ffffb3" stroke="black" points="981.31,-122 808.69,-122 808.69,-86 981.31,-86 981.31,-122"/>
<text text-anchor="middle" x="895" y="-99.8" font-family="Times,serif" font-size="14.00">NotInUseModalComponent</text>
</g>
<!-- NotInUseModalComponent&#45;&gt;AppModule -->
<g id="edge4" class="edge">
<title>NotInUseModalComponent&#45;&gt;AppModule</title>
<path fill="none" stroke="black" d="M895,-122.01C895,-138.05 895,-159 895,-159 895,-159 709.83,-159 709.83,-159"/>
<polygon fill="black" stroke="black" points="709.83,-155.5 699.83,-159 709.83,-162.5 709.83,-155.5"/>
</g>
<!-- AppComponent  -->
<g id="node12" class="node">
<title>AppComponent </title>
<polygon fill="#80b1d3" stroke="black" points="712.44,-252 603.56,-252 603.56,-216 712.44,-216 712.44,-252"/>
<text text-anchor="middle" x="658" y="-229.8" font-family="Times,serif" font-size="14.00">AppComponent </text>
</g>
<!-- AppModule&#45;&gt;AppComponent  -->
<g id="edge11" class="edge">
<title>AppModule&#45;&gt;AppComponent </title>
<path fill="none" stroke="black" stroke-dasharray="1,5" d="M658,-187.11C658,-187.11 658,-205.99 658,-205.99"/>
<polygon fill="black" stroke="black" points="654.5,-205.99 658,-215.99 661.5,-205.99 654.5,-205.99"/>
</g>
<!-- AppRoutingModule -->
<g id="node6" class="node">
<title>AppRoutingModule</title>
<polygon fill="#8dd3c7" stroke="black" points="785.27,-122 782.27,-126 761.27,-126 758.27,-122 656.73,-122 656.73,-86 785.27,-86 785.27,-122"/>
<text text-anchor="middle" x="721" y="-99.8" font-family="Times,serif" font-size="14.00">AppRoutingModule</text>
</g>
<!-- AppRoutingModule&#45;&gt;AppModule -->
<g id="edge5" class="edge">
<title>AppRoutingModule&#45;&gt;AppModule</title>
<path fill="none" stroke="black" d="M678.22,-122.11C678.22,-122.11 678.22,-140.99 678.22,-140.99"/>
<polygon fill="black" stroke="black" points="674.72,-140.99 678.22,-150.99 681.72,-140.99 674.72,-140.99"/>
</g>
<!-- AuthModule -->
<g id="node7" class="node">
<title>AuthModule</title>
<polygon fill="#8dd3c7" stroke="black" points="638.55,-122 635.55,-126 614.55,-126 611.55,-122 551.45,-122 551.45,-86 638.55,-86 638.55,-122"/>
<text text-anchor="middle" x="595" y="-99.8" font-family="Times,serif" font-size="14.00">AuthModule</text>
</g>
<!-- AuthModule&#45;&gt;AppModule -->
<g id="edge6" class="edge">
<title>AuthModule&#45;&gt;AppModule</title>
<path fill="none" stroke="black" d="M627.47,-122.11C627.47,-122.11 627.47,-140.99 627.47,-140.99"/>
<polygon fill="black" stroke="black" points="623.97,-140.99 627.47,-150.99 630.97,-140.99 623.97,-140.99"/>
</g>
<!-- ClassModule -->
<g id="node8" class="node">
<title>ClassModule</title>
<polygon fill="#8dd3c7" stroke="black" points="532.88,-122 529.88,-126 508.88,-126 505.88,-122 443.12,-122 443.12,-86 532.88,-86 532.88,-122"/>
<text text-anchor="middle" x="488" y="-99.8" font-family="Times,serif" font-size="14.00">ClassModule</text>
</g>
<!-- ClassModule&#45;&gt;AppModule -->
<g id="edge7" class="edge">
<title>ClassModule&#45;&gt;AppModule</title>
<path fill="none" stroke="black" d="M488,-122.01C488,-138.05 488,-159 488,-159 488,-159 605.98,-159 605.98,-159"/>
<polygon fill="black" stroke="black" points="605.98,-162.5 615.98,-159 605.98,-155.5 605.98,-162.5"/>
</g>
<!-- DashboardModule -->
<g id="node9" class="node">
<title>DashboardModule</title>
<polygon fill="#8dd3c7" stroke="black" points="425.19,-122 422.19,-126 401.19,-126 398.19,-122 304.81,-122 304.81,-86 425.19,-86 425.19,-122"/>
<text text-anchor="middle" x="365" y="-99.8" font-family="Times,serif" font-size="14.00">DashboardModule</text>
</g>
<!-- DashboardModule&#45;&gt;AppModule -->
<g id="edge8" class="edge">
<title>DashboardModule&#45;&gt;AppModule</title>
<path fill="none" stroke="black" d="M365,-122.27C365,-140.56 365,-166 365,-166 365,-166 606.33,-166 606.33,-166"/>
<polygon fill="black" stroke="black" points="606.33,-169.5 616.33,-166 606.33,-162.5 606.33,-169.5"/>
</g>
<!-- HumidityModule -->
<g id="node10" class="node">
<title>HumidityModule</title>
<polygon fill="#8dd3c7" stroke="black" points="286.72,-122 283.72,-126 262.72,-126 259.72,-122 173.28,-122 173.28,-86 286.72,-86 286.72,-122"/>
<text text-anchor="middle" x="230" y="-99.8" font-family="Times,serif" font-size="14.00">HumidityModule</text>
</g>
<!-- HumidityModule&#45;&gt;AppModule -->
<g id="edge9" class="edge">
<title>HumidityModule&#45;&gt;AppModule</title>
<path fill="none" stroke="black" d="M230,-122.13C230,-142.57 230,-173 230,-173 230,-173 606.18,-173 606.18,-173"/>
<polygon fill="black" stroke="black" points="606.18,-176.5 616.18,-173 606.18,-169.5 606.18,-176.5"/>
</g>
<!-- TemperatureModule -->
<g id="node11" class="node">
<title>TemperatureModule</title>
<polygon fill="#8dd3c7" stroke="black" points="155.56,-122 152.56,-126 131.56,-126 128.56,-122 24.44,-122 24.44,-86 155.56,-86 155.56,-122"/>
<text text-anchor="middle" x="90" y="-99.8" font-family="Times,serif" font-size="14.00">TemperatureModule</text>
</g>
<!-- TemperatureModule&#45;&gt;AppModule -->
<g id="edge10" class="edge">
<title>TemperatureModule&#45;&gt;AppModule</title>
<path fill="none" stroke="black" d="M90,-122.01C90,-144.49 90,-180 90,-180 90,-180 606.23,-180 606.23,-180"/>
<polygon fill="black" stroke="black" points="606.23,-183.5 616.23,-180 606.23,-176.5 606.23,-183.5"/>
</g>
</g>
</svg>
