<?xml version="1.0" encoding="UTF-8" standalone="no"?>
<!DOCTYPE svg PUBLIC "-//W3C//DTD SVG 1.1//EN"
 "http://www.w3.org/Graphics/SVG/1.1/DTD/svg11.dtd">
<!-- Generated by graphviz version 2.44.1 (20200629.0846)
 -->
<!-- Title: dependencies Pages: 1 -->
<svg width="722pt" height="211pt"
 viewBox="0.00 0.00 722.00 211.00" xmlns="http://www.w3.org/2000/svg" xmlns:xlink="http://www.w3.org/1999/xlink">
<g id="graph0" class="graph" transform="scale(1 1) rotate(0) translate(4 207)">
<title>dependencies</title>
<polygon fill="white" stroke="transparent" points="-4,4 -4,-207 718,-207 718,4 -4,4"/>
<text text-anchor="start" x="336.01" y="-42.4" font-family="sans-serif" font-weight="bold" font-size="14.00">Legend</text>
<polygon fill="#ffffb3" stroke="transparent" points="123,-10 123,-30 143,-30 143,-10 123,-10"/>
<text text-anchor="start" x="146.63" y="-15.4" font-family="sans-serif" font-size="14.00"> &#160;Declarations</text>
<polygon fill="#8dd3c7" stroke="transparent" points="236,-10 236,-30 256,-30 256,-10 236,-10"/>
<text text-anchor="start" x="259.73" y="-15.4" font-family="sans-serif" font-size="14.00"> &#160;Module</text>
<polygon fill="#80b1d3" stroke="transparent" points="322,-10 322,-30 342,-30 342,-10 322,-10"/>
<text text-anchor="start" x="345.78" y="-15.4" font-family="sans-serif" font-size="14.00"> &#160;Bootstrap</text>
<polygon fill="#fdb462" stroke="transparent" points="419,-10 419,-30 439,-30 439,-10 419,-10"/>
<text text-anchor="start" x="442.67" y="-15.4" font-family="sans-serif" font-size="14.00"> &#160;Providers</text>
<polygon fill="#fb8072" stroke="transparent" points="515,-10 515,-30 535,-30 535,-10 515,-10"/>
<text text-anchor="start" x="538.73" y="-15.4" font-family="sans-serif" font-size="14.00"> &#160;Exports</text>
<g id="clust1" class="cluster">
<title>cluster_TemperatureModule</title>
<polygon fill="none" stroke="black" stroke-dasharray="1,5" points="8,-70 8,-195 706,-195 706,-70 8,-70"/>
</g>
<g id="clust6" class="cluster">
<title>cluster_TemperatureModule_imports</title>
<polygon fill="none" stroke="black" points="462,-78 462,-130 698,-130 698,-78 462,-78"/>
</g>
<g id="clust2" class="cluster">
<title>cluster_TemperatureModule_declarations</title>
<polygon fill="none" stroke="black" points="16,-78 16,-130 454,-130 454,-78 16,-78"/>
</g>
<!-- DashboardSlider -->
<g id="node1" class="node">
<title>DashboardSlider</title>
<polygon fill="#ffffb3" stroke="black" points="446.08,-122 335.92,-122 335.92,-86 446.08,-86 446.08,-122"/>
<text text-anchor="middle" x="391" y="-99.8" font-family="Times,serif" font-size="14.00">DashboardSlider</text>
</g>
<!-- TemperatureModule -->
<g id="node4" class="node">
<title>TemperatureModule</title>
<polygon fill="#8dd3c7" stroke="black" points="456.56,-187 453.56,-191 432.56,-191 429.56,-187 325.44,-187 325.44,-151 456.56,-151 456.56,-187"/>
<text text-anchor="middle" x="391" y="-164.8" font-family="Times,serif" font-size="14.00">TemperatureModule</text>
</g>
<!-- DashboardSlider&#45;&gt;TemperatureModule -->
<g id="edge1" class="edge">
<title>DashboardSlider&#45;&gt;TemperatureModule</title>
<path fill="none" stroke="black" d="M391,-122.11C391,-122.11 391,-140.99 391,-140.99"/>
<polygon fill="black" stroke="black" points="387.5,-140.99 391,-150.99 394.5,-140.99 387.5,-140.99"/>
</g>
<!-- OTempComponent -->
<g id="node2" class="node">
<title>OTempComponent</title>
<polygon fill="#ffffb3" stroke="black" points="318.1,-122 193.9,-122 193.9,-86 318.1,-86 318.1,-122"/>
<text text-anchor="middle" x="256" y="-99.8" font-family="Times,serif" font-size="14.00">OTempComponent</text>
</g>
<!-- OTempComponent&#45;&gt;TemperatureModule -->
<g id="edge2" class="edge">
<title>OTempComponent&#45;&gt;TemperatureModule</title>
<path fill="none" stroke="black" d="M318.38,-104C325.75,-104 330.71,-104 330.71,-104 330.71,-104 330.71,-140.89 330.71,-140.89"/>
<polygon fill="black" stroke="black" points="327.21,-140.89 330.71,-150.89 334.21,-140.89 327.21,-140.89"/>
</g>
<!-- TemperatureComponent -->
<g id="node3" class="node">
<title>TemperatureComponent</title>
<polygon fill="#ffffb3" stroke="black" points="176.35,-122 23.65,-122 23.65,-86 176.35,-86 176.35,-122"/>
<text text-anchor="middle" x="100" y="-99.8" font-family="Times,serif" font-size="14.00">TemperatureComponent</text>
</g>
<!-- TemperatureComponent&#45;&gt;TemperatureModule -->
<g id="edge3" class="edge">
<title>TemperatureComponent&#45;&gt;TemperatureModule</title>
<path fill="none" stroke="black" d="M100,-122.11C100,-141.34 100,-169 100,-169 100,-169 315.33,-169 315.33,-169"/>
<polygon fill="black" stroke="black" points="315.33,-172.5 325.33,-169 315.33,-165.5 315.33,-172.5"/>
</g>
<!-- OTempModule -->
<g id="node5" class="node">
<title>OTempModule</title>
<polygon fill="#8dd3c7" stroke="black" points="690.31,-122 687.31,-126 666.31,-126 663.31,-122 587.69,-122 587.69,-86 690.31,-86 690.31,-122"/>
<text text-anchor="middle" x="639" y="-99.8" font-family="Times,serif" font-size="14.00">OTempModule</text>
</g>
<!-- OTempModule&#45;&gt;TemperatureModule -->
<g id="edge4" class="edge">
<title>OTempModule&#45;&gt;TemperatureModule</title>
<path fill="none" stroke="black" d="M639,-122.11C639,-141.34 639,-169 639,-169 639,-169 466.81,-169 466.81,-169"/>
<polygon fill="black" stroke="black" points="466.81,-165.5 456.81,-169 466.81,-172.5 466.81,-165.5"/>
</g>
<!-- PresetsModule -->
<g id="node6" class="node">
<title>PresetsModule</title>
<polygon fill="#8dd3c7" stroke="black" points="569.7,-122 566.7,-126 545.7,-126 542.7,-122 470.3,-122 470.3,-86 569.7,-86 569.7,-122"/>
<text text-anchor="middle" x="520" y="-99.8" font-family="Times,serif" font-size="14.00">PresetsModule</text>
</g>
<!-- PresetsModule&#45;&gt;TemperatureModule -->
<g id="edge5" class="edge">
<title>PresetsModule&#45;&gt;TemperatureModule</title>
<path fill="none" stroke="black" d="M470.06,-104C459.41,-104 451.29,-104 451.29,-104 451.29,-104 451.29,-140.89 451.29,-140.89"/>
<polygon fill="black" stroke="black" points="447.79,-140.89 451.29,-150.89 454.79,-140.89 447.79,-140.89"/>
</g>
</g>
</svg>
