<?xml version="1.0" encoding="UTF-8" standalone="no"?>
<!DOCTYPE svg PUBLIC "-//W3C//DTD SVG 1.1//EN"
 "http://www.w3.org/Graphics/SVG/1.1/DTD/svg11.dtd">
<!-- Generated by graphviz version 2.44.1 (20200629.0846)
 -->
<!-- Title: dependencies Pages: 1 -->
<svg width="722pt" height="211pt"
 viewBox="0.00 0.00 722.00 211.00" xmlns="http://www.w3.org/2000/svg" xmlns:xlink="http://www.w3.org/1999/xlink">
<g id="graph0" class="graph" transform="scale(1 1) rotate(0) translate(4 207)">
<title>dependencies</title>
<polygon fill="white" stroke="transparent" points="-4,4 -4,-207 718,-207 718,4 -4,4"/>
<text text-anchor="start" x="336.01" y="-42.4" font-family="sans-serif" font-weight="bold" font-size="14.00">Legend</text>
<polygon fill="#ffffb3" stroke="transparent" points="123,-10 123,-30 143,-30 143,-10 123,-10"/>
<text text-anchor="start" x="146.63" y="-15.4" font-family="sans-serif" font-size="14.00"> &#160;Declarations</text>
<polygon fill="#8dd3c7" stroke="transparent" points="236,-10 236,-30 256,-30 256,-10 236,-10"/>
<text text-anchor="start" x="259.73" y="-15.4" font-family="sans-serif" font-size="14.00"> &#160;Module</text>
<polygon fill="#80b1d3" stroke="transparent" points="322,-10 322,-30 342,-30 342,-10 322,-10"/>
<text text-anchor="start" x="345.78" y="-15.4" font-family="sans-serif" font-size="14.00"> &#160;Bootstrap</text>
<polygon fill="#fdb462" stroke="transparent" points="419,-10 419,-30 439,-30 439,-10 419,-10"/>
<text text-anchor="start" x="442.67" y="-15.4" font-family="sans-serif" font-size="14.00"> &#160;Providers</text>
<polygon fill="#fb8072" stroke="transparent" points="515,-10 515,-30 535,-30 535,-10 515,-10"/>
<text text-anchor="start" x="538.73" y="-15.4" font-family="sans-serif" font-size="14.00"> &#160;Exports</text>
<g id="clust1" class="cluster">
<title>cluster_TemperatureModule</title>
<polygon fill="none" stroke="black" stroke-dasharray="1,5" points="8,-70 8,-195 706,-195 706,-70 8,-70"/>
</g>
<g id="clust2" class="cluster">
<title>cluster_TemperatureModule_declarations</title>
<polygon fill="none" stroke="black" points="260,-78 260,-130 698,-130 698,-78 260,-78"/>
</g>
<g id="clust6" class="cluster">
<title>cluster_TemperatureModule_imports</title>
<polygon fill="none" stroke="black" points="16,-78 16,-130 252,-130 252,-78 16,-78"/>
</g>
<!-- DashboardSlider -->
<g id="node1" class="node">
<title>DashboardSlider</title>
<polygon fill="#ffffb3" stroke="black" points="690.08,-122 579.92,-122 579.92,-86 690.08,-86 690.08,-122"/>
<text text-anchor="middle" x="635" y="-99.8" font-family="Times,serif" font-size="14.00">DashboardSlider</text>
</g>
<!-- TemperatureModule -->
<g id="node4" class="node">
<title>TemperatureModule</title>
<polygon fill="#8dd3c7" stroke="black" points="409.56,-187 406.56,-191 385.56,-191 382.56,-187 278.44,-187 278.44,-151 409.56,-151 409.56,-187"/>
<text text-anchor="middle" x="344" y="-164.8" font-family="Times,serif" font-size="14.00">TemperatureModule</text>
</g>
<!-- DashboardSlider&#45;&gt;TemperatureModule -->
<g id="edge1" class="edge">
<title>DashboardSlider&#45;&gt;TemperatureModule</title>
<path fill="none" stroke="black" d="M635,-122.28C635,-143.32 635,-175 635,-175 635,-175 419.67,-175 419.67,-175"/>
<polygon fill="black" stroke="black" points="419.67,-171.5 409.67,-175 419.67,-178.5 419.67,-171.5"/>
</g>
<!-- OTempComponent -->
<g id="node2" class="node">
<title>OTempComponent</title>
<polygon fill="#ffffb3" stroke="black" points="562.1,-122 437.9,-122 437.9,-86 562.1,-86 562.1,-122"/>
<text text-anchor="middle" x="500" y="-99.8" font-family="Times,serif" font-size="14.00">OTempComponent</text>
</g>
<!-- OTempComponent&#45;&gt;TemperatureModule -->
<g id="edge2" class="edge">
<title>OTempComponent&#45;&gt;TemperatureModule</title>
<path fill="none" stroke="black" d="M500,-122.02C500,-139.37 500,-163 500,-163 500,-163 419.71,-163 419.71,-163"/>
<polygon fill="black" stroke="black" points="419.71,-159.5 409.71,-163 419.71,-166.5 419.71,-159.5"/>
</g>
<!-- TemperatureComponent -->
<g id="node3" class="node">
<title>TemperatureComponent</title>
<polygon fill="#ffffb3" stroke="black" points="420.35,-122 267.65,-122 267.65,-86 420.35,-86 420.35,-122"/>
<text text-anchor="middle" x="344" y="-99.8" font-family="Times,serif" font-size="14.00">TemperatureComponent</text>
</g>
<!-- TemperatureComponent&#45;&gt;TemperatureModule -->
<g id="edge3" class="edge">
<title>TemperatureComponent&#45;&gt;TemperatureModule</title>
<path fill="none" stroke="black" d="M344,-122.11C344,-122.11 344,-140.99 344,-140.99"/>
<polygon fill="black" stroke="black" points="340.5,-140.99 344,-150.99 347.5,-140.99 340.5,-140.99"/>
</g>
<!-- OTempModule -->
<g id="node5" class="node">
<title>OTempModule</title>
<polygon fill="#8dd3c7" stroke="black" points="244.31,-122 241.31,-126 220.31,-126 217.31,-122 141.69,-122 141.69,-86 244.31,-86 244.31,-122"/>
<text text-anchor="middle" x="193" y="-99.8" font-family="Times,serif" font-size="14.00">OTempModule</text>
</g>
<!-- OTempModule&#45;&gt;TemperatureModule -->
<g id="edge4" class="edge">
<title>OTempModule&#45;&gt;TemperatureModule</title>
<path fill="none" stroke="black" d="M193,-122.02C193,-139.37 193,-163 193,-163 193,-163 268.21,-163 268.21,-163"/>
<polygon fill="black" stroke="black" points="268.21,-166.5 278.21,-163 268.21,-159.5 268.21,-166.5"/>
</g>
<!-- PresetsModule -->
<g id="node6" class="node">
<title>PresetsModule</title>
<polygon fill="#8dd3c7" stroke="black" points="123.7,-122 120.7,-126 99.7,-126 96.7,-122 24.3,-122 24.3,-86 123.7,-86 123.7,-122"/>
<text text-anchor="middle" x="74" y="-99.8" font-family="Times,serif" font-size="14.00">PresetsModule</text>
</g>
<!-- PresetsModule&#45;&gt;TemperatureModule -->
<g id="edge5" class="edge">
<title>PresetsModule&#45;&gt;TemperatureModule</title>
<path fill="none" stroke="black" d="M74,-122.28C74,-143.32 74,-175 74,-175 74,-175 268.3,-175 268.3,-175"/>
<polygon fill="black" stroke="black" points="268.3,-178.5 278.3,-175 268.3,-171.5 268.3,-178.5"/>
</g>
</g>
</svg>
