<?xml version="1.0" encoding="UTF-8" standalone="no"?>
<!DOCTYPE svg PUBLIC "-//W3C//DTD SVG 1.1//EN"
 "http://www.w3.org/Graphics/SVG/1.1/DTD/svg11.dtd">
<!-- Generated by graphviz version 2.44.1 (20200629.0846)
 -->
<!-- Title: dependencies Pages: 1 -->
<svg width="1509pt" height="276pt"
 viewBox="0.00 0.00 1509.00 276.00" xmlns="http://www.w3.org/2000/svg" xmlns:xlink="http://www.w3.org/1999/xlink">
<g id="graph0" class="graph" transform="scale(1 1) rotate(0) translate(4 272)">
<title>dependencies</title>
<polygon fill="white" stroke="transparent" points="-4,4 -4,-272 1505,-272 1505,4 -4,4"/>
<text text-anchor="start" x="729.51" y="-42.4" font-family="sans-serif" font-weight="bold" font-size="14.00">Legend</text>
<polygon fill="#ffffb3" stroke="transparent" points="516.5,-10 516.5,-30 536.5,-30 536.5,-10 516.5,-10"/>
<text text-anchor="start" x="540.13" y="-15.4" font-family="sans-serif" font-size="14.00"> &#160;Declarations</text>
<polygon fill="#8dd3c7" stroke="transparent" points="629.5,-10 629.5,-30 649.5,-30 649.5,-10 629.5,-10"/>
<text text-anchor="start" x="653.23" y="-15.4" font-family="sans-serif" font-size="14.00"> &#160;Module</text>
<polygon fill="#80b1d3" stroke="transparent" points="715.5,-10 715.5,-30 735.5,-30 735.5,-10 715.5,-10"/>
<text text-anchor="start" x="739.28" y="-15.4" font-family="sans-serif" font-size="14.00"> &#160;Bootstrap</text>
<polygon fill="#fdb462" stroke="transparent" points="812.5,-10 812.5,-30 832.5,-30 832.5,-10 812.5,-10"/>
<text text-anchor="start" x="836.17" y="-15.4" font-family="sans-serif" font-size="14.00"> &#160;Providers</text>
<polygon fill="#fb8072" stroke="transparent" points="908.5,-10 908.5,-30 928.5,-30 928.5,-10 908.5,-10"/>
<text text-anchor="start" x="932.23" y="-15.4" font-family="sans-serif" font-size="14.00"> &#160;Exports</text>
<g id="clust1" class="cluster">
<title>cluster_TemperatureModule</title>
<polygon fill="none" stroke="black" stroke-dasharray="1,5" points="8,-70 8,-260 1493,-260 1493,-70 8,-70"/>
</g>
<g id="clust6" class="cluster">
<title>cluster_TemperatureModule_imports</title>
<polygon fill="none" stroke="black" points="462,-143 462,-195 1485,-195 1485,-143 462,-143"/>
</g>
<g id="clust2" class="cluster">
<title>cluster_TemperatureModule_declarations</title>
<polygon fill="none" stroke="black" points="16,-143 16,-195 454,-195 454,-143 16,-143"/>
</g>
<g id="clust5" class="cluster">
<title>cluster_TemperatureModule_OTempComponent_providers</title>
<polygon fill="none" stroke="black" points="16,-78 16,-130 178,-130 178,-78 16,-78"/>
</g>
<!-- TemperatureComponent -->
<g id="node1" class="node">
<title>TemperatureComponent</title>
<polygon fill="#ffffb3" stroke="black" points="446.35,-187 293.65,-187 293.65,-151 446.35,-151 446.35,-187"/>
<text text-anchor="middle" x="370" y="-164.8" font-family="Times,serif" font-size="14.00">TemperatureComponent</text>
</g>
<!-- TemperatureModule -->
<g id="node4" class="node">
<title>TemperatureModule</title>
<polygon fill="#8dd3c7" stroke="black" points="857.56,-252 854.56,-256 833.56,-256 830.56,-252 726.44,-252 726.44,-216 857.56,-216 857.56,-252"/>
<text text-anchor="middle" x="792" y="-229.8" font-family="Times,serif" font-size="14.00">TemperatureModule</text>
</g>
<!-- TemperatureComponent&#45;&gt;TemperatureModule -->
<g id="edge1" class="edge">
<title>TemperatureComponent&#45;&gt;TemperatureModule</title>
<path fill="none" stroke="black" d="M370,-187.27C370,-205.56 370,-231 370,-231 370,-231 716.06,-231 716.06,-231"/>
<polygon fill="black" stroke="black" points="716.06,-234.5 726.06,-231 716.06,-227.5 716.06,-234.5"/>
</g>
<!-- DashboardSlider -->
<g id="node2" class="node">
<title>DashboardSlider</title>
<polygon fill="#ffffb3" stroke="black" points="276.08,-187 165.92,-187 165.92,-151 276.08,-151 276.08,-187"/>
<text text-anchor="middle" x="221" y="-164.8" font-family="Times,serif" font-size="14.00">DashboardSlider</text>
</g>
<!-- DashboardSlider&#45;&gt;TemperatureModule -->
<g id="edge2" class="edge">
<title>DashboardSlider&#45;&gt;TemperatureModule</title>
<path fill="none" stroke="black" d="M221,-187.13C221,-207.57 221,-238 221,-238 221,-238 716.22,-238 716.22,-238"/>
<polygon fill="black" stroke="black" points="716.22,-241.5 726.22,-238 716.22,-234.5 716.22,-241.5"/>
</g>
<!-- OTempComponent -->
<g id="node3" class="node">
<title>OTempComponent</title>
<polygon fill="#ffffb3" stroke="black" points="148.1,-187 23.9,-187 23.9,-151 148.1,-151 148.1,-187"/>
<text text-anchor="middle" x="86" y="-164.8" font-family="Times,serif" font-size="14.00">OTempComponent</text>
</g>
<!-- OTempComponent&#45;&gt;TemperatureModule -->
<g id="edge3" class="edge">
<title>OTempComponent&#45;&gt;TemperatureModule</title>
<path fill="none" stroke="black" d="M86,-187.01C86,-209.49 86,-245 86,-245 86,-245 716.22,-245 716.22,-245"/>
<polygon fill="black" stroke="black" points="716.22,-248.5 726.22,-245 716.22,-241.5 716.22,-248.5"/>
</g>
<!-- WeatherService -->
<g id="node5" class="node">
<title>WeatherService</title>
<ellipse fill="#fdb462" stroke="black" cx="97" cy="-104" rx="72.89" ry="18"/>
<text text-anchor="middle" x="97" y="-99.8" font-family="Times,serif" font-size="14.00">WeatherService</text>
</g>
<!-- WeatherService&#45;&gt;OTempComponent -->
<g id="edge4" class="edge">
<title>WeatherService&#45;&gt;OTempComponent</title>
<path fill="none" stroke="black" d="M86.18,-122.11C86.18,-122.11 86.18,-140.99 86.18,-140.99"/>
<polygon fill="black" stroke="black" points="82.68,-140.99 86.18,-150.99 89.68,-140.99 82.68,-140.99"/>
</g>
<!-- CommonModule -->
<g id="node6" class="node">
<title>CommonModule</title>
<polygon fill="#8dd3c7" stroke="black" points="1476.67,-187 1473.67,-191 1452.67,-191 1449.67,-187 1365.33,-187 1365.33,-151 1476.67,-151 1476.67,-187"/>
<text text-anchor="middle" x="1421" y="-164.8" font-family="Times,serif" font-size="14.00">CommonModule</text>
</g>
<!-- CommonModule&#45;&gt;TemperatureModule -->
<g id="edge5" class="edge">
<title>CommonModule&#45;&gt;TemperatureModule</title>
<path fill="none" stroke="black" d="M1421,-187.01C1421,-209.49 1421,-245 1421,-245 1421,-245 867.53,-245 867.53,-245"/>
<polygon fill="black" stroke="black" points="867.53,-241.5 857.53,-245 867.53,-248.5 867.53,-241.5"/>
</g>
<!-- BrowserModule -->
<g id="node7" class="node">
<title>BrowserModule</title>
<polygon fill="#8dd3c7" stroke="black" points="1347.47,-187 1344.47,-191 1323.47,-191 1320.47,-187 1240.53,-187 1240.53,-151 1347.47,-151 1347.47,-187"/>
<text text-anchor="middle" x="1294" y="-164.8" font-family="Times,serif" font-size="14.00">BrowserModule</text>
</g>
<!-- BrowserModule&#45;&gt;TemperatureModule -->
<g id="edge6" class="edge">
<title>BrowserModule&#45;&gt;TemperatureModule</title>
<path fill="none" stroke="black" d="M1294,-187.13C1294,-207.57 1294,-238 1294,-238 1294,-238 867.63,-238 867.63,-238"/>
<polygon fill="black" stroke="black" points="867.63,-234.5 857.63,-238 867.63,-241.5 867.63,-234.5"/>
</g>
<!-- FormsModule -->
<g id="node8" class="node">
<title>FormsModule</title>
<polygon fill="#8dd3c7" stroke="black" points="1222.83,-187 1219.83,-191 1198.83,-191 1195.83,-187 1127.17,-187 1127.17,-151 1222.83,-151 1222.83,-187"/>
<text text-anchor="middle" x="1175" y="-164.8" font-family="Times,serif" font-size="14.00">FormsModule</text>
</g>
<!-- FormsModule&#45;&gt;TemperatureModule -->
<g id="edge7" class="edge">
<title>FormsModule&#45;&gt;TemperatureModule</title>
<path fill="none" stroke="black" d="M1175,-187.27C1175,-205.56 1175,-231 1175,-231 1175,-231 867.84,-231 867.84,-231"/>
<polygon fill="black" stroke="black" points="867.84,-227.5 857.84,-231 867.84,-234.5 867.84,-227.5"/>
</g>
<!-- MatSelectModule -->
<g id="node9" class="node">
<title>MatSelectModule</title>
<polygon fill="#8dd3c7" stroke="black" points="1109.31,-187 1106.31,-191 1085.31,-191 1082.31,-187 992.69,-187 992.69,-151 1109.31,-151 1109.31,-187"/>
<text text-anchor="middle" x="1051" y="-164.8" font-family="Times,serif" font-size="14.00">MatSelectModule</text>
</g>
<!-- MatSelectModule&#45;&gt;TemperatureModule -->
<g id="edge8" class="edge">
<title>MatSelectModule&#45;&gt;TemperatureModule</title>
<path fill="none" stroke="black" d="M1051,-187.01C1051,-203.05 1051,-224 1051,-224 1051,-224 867.69,-224 867.69,-224"/>
<polygon fill="black" stroke="black" points="867.69,-220.5 857.69,-224 867.69,-227.5 867.69,-220.5"/>
</g>
<!-- MatIconModule -->
<g id="node10" class="node">
<title>MatIconModule</title>
<polygon fill="#8dd3c7" stroke="black" points="974.47,-187 971.47,-191 950.47,-191 947.47,-187 867.53,-187 867.53,-151 974.47,-151 974.47,-187"/>
<text text-anchor="middle" x="921" y="-164.8" font-family="Times,serif" font-size="14.00">MatIconModule</text>
</g>
<!-- MatIconModule&#45;&gt;TemperatureModule -->
<g id="edge9" class="edge">
<title>MatIconModule&#45;&gt;TemperatureModule</title>
<path fill="none" stroke="black" d="M867.28,-169C859.28,-169 853.65,-169 853.65,-169 853.65,-169 853.65,-205.89 853.65,-205.89"/>
<polygon fill="black" stroke="black" points="850.15,-205.89 853.65,-215.89 857.15,-205.89 850.15,-205.89"/>
</g>
<!-- MatSliderModule -->
<g id="node11" class="node">
<title>MatSliderModule</title>
<polygon fill="#8dd3c7" stroke="black" points="849.54,-187 846.54,-191 825.54,-191 822.54,-187 734.46,-187 734.46,-151 849.54,-151 849.54,-187"/>
<text text-anchor="middle" x="792" y="-164.8" font-family="Times,serif" font-size="14.00">MatSliderModule</text>
</g>
<!-- MatSliderModule&#45;&gt;TemperatureModule -->
<g id="edge10" class="edge">
<title>MatSliderModule&#45;&gt;TemperatureModule</title>
<path fill="none" stroke="black" d="M792,-187.11C792,-187.11 792,-205.99 792,-205.99"/>
<polygon fill="black" stroke="black" points="788.5,-205.99 792,-215.99 795.5,-205.99 788.5,-205.99"/>
</g>
<!-- MatToolbarModule -->
<g id="node12" class="node">
<title>MatToolbarModule</title>
<polygon fill="#8dd3c7" stroke="black" points="716.42,-187 713.42,-191 692.42,-191 689.42,-187 589.58,-187 589.58,-151 716.42,-151 716.42,-187"/>
<text text-anchor="middle" x="653" y="-164.8" font-family="Times,serif" font-size="14.00">MatToolbarModule</text>
</g>
<!-- MatToolbarModule&#45;&gt;TemperatureModule -->
<g id="edge11" class="edge">
<title>MatToolbarModule&#45;&gt;TemperatureModule</title>
<path fill="none" stroke="black" d="M716.52,-169C724.73,-169 730.35,-169 730.35,-169 730.35,-169 730.35,-205.89 730.35,-205.89"/>
<polygon fill="black" stroke="black" points="726.85,-205.89 730.35,-215.89 733.85,-205.89 726.85,-205.89"/>
</g>
<!-- OTempModule -->
<g id="node13" class="node">
<title>OTempModule</title>
<polygon fill="#8dd3c7" stroke="black" points="572.31,-187 569.31,-191 548.31,-191 545.31,-187 469.69,-187 469.69,-151 572.31,-151 572.31,-187"/>
<text text-anchor="middle" x="521" y="-164.8" font-family="Times,serif" font-size="14.00">OTempModule</text>
</g>
<!-- OTempModule&#45;&gt;TemperatureModule -->
<g id="edge12" class="edge">
<title>OTempModule&#45;&gt;TemperatureModule</title>
<path fill="none" stroke="black" d="M521,-187.01C521,-203.05 521,-224 521,-224 521,-224 716.4,-224 716.4,-224"/>
<polygon fill="black" stroke="black" points="716.4,-227.5 726.4,-224 716.4,-220.5 716.4,-227.5"/>
</g>
</g>
</svg>
