<?xml version="1.0" encoding="UTF-8" standalone="no"?>
<!DOCTYPE svg PUBLIC "-//W3C//DTD SVG 1.1//EN"
 "http://www.w3.org/Graphics/SVG/1.1/DTD/svg11.dtd">
<!-- Generated by graphviz version 2.44.1 (20200629.0846)
 -->
<!-- Title: dependencies Pages: 1 -->
<svg width="3970pt" height="436pt"
 viewBox="0.00 0.00 3970.00 436.00" xmlns="http://www.w3.org/2000/svg" xmlns:xlink="http://www.w3.org/1999/xlink">
<g id="graph0" class="graph" transform="scale(1 1) rotate(0) translate(4 432)">
<title>dependencies</title>
<polygon fill="white" stroke="transparent" points="-4,4 -4,-432 3966,-432 3966,4 -4,4"/>
<text text-anchor="start" x="1960.01" y="-42.4" font-family="sans-serif" font-weight="bold" font-size="14.00">Legend</text>
<polygon fill="#ffffb3" stroke="transparent" points="1747,-10 1747,-30 1767,-30 1767,-10 1747,-10"/>
<text text-anchor="start" x="1770.63" y="-15.4" font-family="sans-serif" font-size="14.00"> &#160;Declarations</text>
<polygon fill="#8dd3c7" stroke="transparent" points="1860,-10 1860,-30 1880,-30 1880,-10 1860,-10"/>
<text text-anchor="start" x="1883.73" y="-15.4" font-family="sans-serif" font-size="14.00"> &#160;Module</text>
<polygon fill="#80b1d3" stroke="transparent" points="1946,-10 1946,-30 1966,-30 1966,-10 1946,-10"/>
<text text-anchor="start" x="1969.78" y="-15.4" font-family="sans-serif" font-size="14.00"> &#160;Bootstrap</text>
<polygon fill="#fdb462" stroke="transparent" points="2043,-10 2043,-30 2063,-30 2063,-10 2043,-10"/>
<text text-anchor="start" x="2066.67" y="-15.4" font-family="sans-serif" font-size="14.00"> &#160;Providers</text>
<polygon fill="#fb8072" stroke="transparent" points="2139,-10 2139,-30 2159,-30 2159,-10 2139,-10"/>
<text text-anchor="start" x="2162.73" y="-15.4" font-family="sans-serif" font-size="14.00"> &#160;Exports</text>
<g id="clust1" class="cluster">
<title>cluster_AppModule</title>
<polygon fill="none" stroke="black" stroke-dasharray="1,5" points="1358,-222 1358,-420 2766,-420 2766,-222 1358,-222"/>
</g>
<g id="clust2" class="cluster">
<title>cluster_AppModule_declarations</title>
<polygon fill="none" stroke="black" points="2150,-230 2150,-282 2758,-282 2758,-230 2150,-230"/>
</g>
<g id="clust7" class="cluster">
<title>cluster_AppModule_imports</title>
<polygon fill="none" stroke="black" points="1366,-230 1366,-282 2142,-282 2142,-230 1366,-230"/>
</g>
<g id="clust9" class="cluster">
<title>cluster_AppModule_bootstrap</title>
<polygon fill="none" stroke="black" points="1938,-360 1938,-412 2062,-412 2062,-360 1938,-360"/>
</g>
<g id="clust17" class="cluster">
<title>cluster_AuthModule</title>
<polygon fill="none" stroke="black" stroke-dasharray="1,5" points="964,-146 964,-214 1266,-214 1266,-146 964,-146"/>
</g>
<g id="clust18" class="cluster">
<title>cluster_AuthModule_declarations</title>
<polygon fill="none" stroke="black" points="1128,-154 1128,-206 1258,-206 1258,-154 1128,-154"/>
</g>
<g id="clust20" class="cluster">
<title>cluster_AuthModule_imports</title>
<polygon fill="none" stroke="black" points="972,-154 972,-206 1120,-206 1120,-154 972,-154"/>
</g>
<g id="clust30" class="cluster">
<title>cluster_ClaimGridModule</title>
<polygon fill="none" stroke="black" stroke-dasharray="1,5" points="3517,-70 3517,-290 3954,-290 3954,-70 3517,-70"/>
</g>
<g id="clust31" class="cluster">
<title>cluster_ClaimGridModule_declarations</title>
<polygon fill="none" stroke="black" points="3525,-78 3525,-130 3946,-130 3946,-78 3525,-78"/>
</g>
<g id="clust36" class="cluster">
<title>cluster_ClaimGridModule_exports</title>
<polygon fill="none" stroke="black" points="3527,-230 3527,-282 3817,-282 3817,-230 3527,-230"/>
</g>
<g id="clust39" class="cluster">
<title>cluster_ClassModule</title>
<polygon fill="none" stroke="black" stroke-dasharray="1,5" points="1736,-146 1736,-214 2616,-214 2616,-146 1736,-146"/>
</g>
<g id="clust40" class="cluster">
<title>cluster_ClassModule_declarations</title>
<polygon fill="none" stroke="black" points="2190,-154 2190,-206 2608,-206 2608,-154 2190,-154"/>
</g>
<g id="clust45" class="cluster">
<title>cluster_ClassModule_exports</title>
<polygon fill="none" stroke="black" points="2050,-154 2050,-206 2182,-206 2182,-154 2050,-154"/>
</g>
<g id="clust47" class="cluster">
<title>cluster_ClassModule_providers</title>
<polygon fill="none" stroke="black" points="1744,-154 1744,-206 2042,-206 2042,-154 1744,-154"/>
</g>
<g id="clust48" class="cluster">
<title>cluster_DashboardModule</title>
<polygon fill="none" stroke="black" stroke-dasharray="1,5" points="8,-146 8,-214 956,-214 956,-146 8,-146"/>
</g>
<g id="clust49" class="cluster">
<title>cluster_DashboardModule_declarations</title>
<polygon fill="none" stroke="black" points="126,-154 126,-206 948,-206 948,-154 126,-154"/>
</g>
<g id="clust57" class="cluster">
<title>cluster_DashboardModule_exports</title>
<polygon fill="none" stroke="black" points="16,-154 16,-206 118,-206 118,-154 16,-154"/>
</g>
<g id="clust60" class="cluster">
<title>cluster_HumidityModule</title>
<polygon fill="none" stroke="black" stroke-dasharray="1,5" points="2624,-146 2624,-214 3341,-214 3341,-146 2624,-146"/>
</g>
<g id="clust61" class="cluster">
<title>cluster_HumidityModule_declarations</title>
<polygon fill="none" stroke="black" points="2897,-154 2897,-206 3333,-206 3333,-154 2897,-154"/>
</g>
<g id="clust65" class="cluster">
<title>cluster_HumidityModule_imports</title>
<polygon fill="none" stroke="black" points="2632,-154 2632,-206 2889,-206 2889,-154 2632,-154"/>
</g>
<g id="clust69" class="cluster">
<title>cluster_OHumidityModule</title>
<polygon fill="none" stroke="black" stroke-dasharray="1,5" points="2612,-70 2612,-138 2962,-138 2962,-70 2612,-70"/>
</g>
<g id="clust73" class="cluster">
<title>cluster_OHumidityModule_bootstrap</title>
<polygon fill="none" stroke="black" points="2620,-78 2620,-130 2784,-130 2784,-78 2620,-78"/>
</g>
<g id="clust74" class="cluster">
<title>cluster_OHumidityModule_providers</title>
<polygon fill="none" stroke="black" points="2792,-78 2792,-130 2954,-130 2954,-78 2792,-78"/>
</g>
<g id="clust75" class="cluster">
<title>cluster_OTempModule</title>
<polygon fill="none" stroke="black" stroke-dasharray="1,5" points="3349,-154 3349,-290 3509,-290 3509,-154 3349,-154"/>
</g>
<g id="clust79" class="cluster">
<title>cluster_OTempModule_bootstrap</title>
<polygon fill="none" stroke="black" points="3357,-230 3357,-282 3501,-282 3501,-230 3357,-230"/>
</g>
<g id="clust81" class="cluster">
<title>cluster_PresetsModule</title>
<polygon fill="none" stroke="black" stroke-dasharray="1,5" points="2774,-222 2774,-290 3074,-290 3074,-222 2774,-222"/>
</g>
<g id="clust82" class="cluster">
<title>cluster_PresetsModule_declarations</title>
<polygon fill="none" stroke="black" points="2930,-230 2930,-282 3066,-282 3066,-230 2930,-230"/>
</g>
<g id="clust85" class="cluster">
<title>cluster_PresetsModule_exports</title>
<polygon fill="none" stroke="black" points="2782,-230 2782,-282 2922,-282 2922,-230 2782,-230"/>
</g>
<g id="clust88" class="cluster">
<title>cluster_TemperatureModule</title>
<polygon fill="none" stroke="black" stroke-dasharray="1,5" points="1274,-146 1274,-214 1728,-214 1728,-146 1274,-146"/>
</g>
<g id="clust89" class="cluster">
<title>cluster_TemperatureModule_declarations</title>
<polygon fill="none" stroke="black" points="1282,-154 1282,-206 1720,-206 1720,-154 1282,-154"/>
</g>
<!-- AppComponent -->
<g id="node1" class="node">
<title>AppComponent</title>
<polygon fill="#ffffb3" stroke="black" points="2403.94,-274 2298.06,-274 2298.06,-238 2403.94,-238 2403.94,-274"/>
<text text-anchor="middle" x="2351" y="-251.8" font-family="Times,serif" font-size="14.00">AppComponent</text>
</g>
<!-- AppModule -->
<g id="node5" class="node">
<title>AppModule</title>
<polygon fill="#8dd3c7" stroke="black" points="2041.66,-339 2038.66,-343 2017.66,-343 2014.66,-339 1958.34,-339 1958.34,-303 2041.66,-303 2041.66,-339"/>
<text text-anchor="middle" x="2000" y="-316.8" font-family="Times,serif" font-size="14.00">AppModule</text>
</g>
<!-- AppComponent&#45;&gt;AppModule -->
<g id="edge1" class="edge">
<title>AppComponent&#45;&gt;AppModule</title>
<path fill="none" stroke="black" d="M2351,-274.27C2351,-292.56 2351,-318 2351,-318 2351,-318 2051.99,-318 2051.99,-318"/>
<polygon fill="black" stroke="black" points="2051.99,-314.5 2041.99,-318 2051.99,-321.5 2051.99,-314.5"/>
</g>
<!-- LogoutComponent -->
<g id="node2" class="node">
<title>LogoutComponent</title>
<polygon fill="#ffffb3" stroke="black" points="2279.78,-274 2158.22,-274 2158.22,-238 2279.78,-238 2279.78,-274"/>
<text text-anchor="middle" x="2219" y="-251.8" font-family="Times,serif" font-size="14.00">LogoutComponent</text>
</g>
<!-- LogoutComponent&#45;&gt;AppModule -->
<g id="edge2" class="edge">
<title>LogoutComponent&#45;&gt;AppModule</title>
<path fill="none" stroke="black" d="M2219,-274.01C2219,-290.05 2219,-311 2219,-311 2219,-311 2051.71,-311 2051.71,-311"/>
<polygon fill="black" stroke="black" points="2051.71,-307.5 2041.71,-311 2051.71,-314.5 2051.71,-307.5"/>
</g>
<!-- NotFoundComponent -->
<g id="node3" class="node">
<title>NotFoundComponent</title>
<polygon fill="#ffffb3" stroke="black" points="2750.11,-274 2611.89,-274 2611.89,-238 2750.11,-238 2750.11,-274"/>
<text text-anchor="middle" x="2681" y="-251.8" font-family="Times,serif" font-size="14.00">NotFoundComponent</text>
</g>
<!-- NotFoundComponent&#45;&gt;AppModule -->
<g id="edge3" class="edge">
<title>NotFoundComponent&#45;&gt;AppModule</title>
<path fill="none" stroke="black" d="M2681,-274.01C2681,-296.49 2681,-332 2681,-332 2681,-332 2051.83,-332 2051.83,-332"/>
<polygon fill="black" stroke="black" points="2051.83,-328.5 2041.83,-332 2051.83,-335.5 2051.83,-328.5"/>
</g>
<!-- NotInUseModalComponent -->
<g id="node4" class="node">
<title>NotInUseModalComponent</title>
<polygon fill="#ffffb3" stroke="black" points="2594.31,-274 2421.69,-274 2421.69,-238 2594.31,-238 2594.31,-274"/>
<text text-anchor="middle" x="2508" y="-251.8" font-family="Times,serif" font-size="14.00">NotInUseModalComponent</text>
</g>
<!-- NotInUseModalComponent&#45;&gt;AppModule -->
<g id="edge4" class="edge">
<title>NotInUseModalComponent&#45;&gt;AppModule</title>
<path fill="none" stroke="black" d="M2508,-274.13C2508,-294.57 2508,-325 2508,-325 2508,-325 2052,-325 2052,-325"/>
<polygon fill="black" stroke="black" points="2052,-321.5 2042,-325 2052,-328.5 2052,-321.5"/>
</g>
<!-- AppComponent  -->
<g id="node12" class="node">
<title>AppComponent </title>
<polygon fill="#80b1d3" stroke="black" points="2054.44,-404 1945.56,-404 1945.56,-368 2054.44,-368 2054.44,-404"/>
<text text-anchor="middle" x="2000" y="-381.8" font-family="Times,serif" font-size="14.00">AppComponent </text>
</g>
<!-- AppModule&#45;&gt;AppComponent  -->
<g id="edge11" class="edge">
<title>AppModule&#45;&gt;AppComponent </title>
<path fill="none" stroke="black" stroke-dasharray="1,5" d="M2000,-339.11C2000,-339.11 2000,-357.99 2000,-357.99"/>
<polygon fill="black" stroke="black" points="1996.5,-357.99 2000,-367.99 2003.5,-357.99 1996.5,-357.99"/>
</g>
<!-- AppRoutingModule -->
<g id="node6" class="node">
<title>AppRoutingModule</title>
<polygon fill="#8dd3c7" stroke="black" points="2134.27,-274 2131.27,-278 2110.27,-278 2107.27,-274 2005.73,-274 2005.73,-238 2134.27,-238 2134.27,-274"/>
<text text-anchor="middle" x="2070" y="-251.8" font-family="Times,serif" font-size="14.00">AppRoutingModule</text>
</g>
<!-- AppRoutingModule&#45;&gt;AppModule -->
<g id="edge5" class="edge">
<title>AppRoutingModule&#45;&gt;AppModule</title>
<path fill="none" stroke="black" d="M2023.72,-274.11C2023.72,-274.11 2023.72,-292.99 2023.72,-292.99"/>
<polygon fill="black" stroke="black" points="2020.22,-292.99 2023.72,-302.99 2027.22,-292.99 2020.22,-292.99"/>
</g>
<!-- AuthModule -->
<g id="node7" class="node">
<title>AuthModule</title>
<polygon fill="#8dd3c7" stroke="black" points="1599.55,-274 1596.55,-278 1575.55,-278 1572.55,-274 1512.45,-274 1512.45,-238 1599.55,-238 1599.55,-274"/>
<text text-anchor="middle" x="1556" y="-251.8" font-family="Times,serif" font-size="14.00">AuthModule</text>
</g>
<!-- AuthModule&#45;&gt;AppModule -->
<g id="edge6" class="edge">
<title>AuthModule&#45;&gt;AppModule</title>
<path fill="none" stroke="black" d="M1556,-274.13C1556,-294.57 1556,-325 1556,-325 1556,-325 1948.23,-325 1948.23,-325"/>
<polygon fill="black" stroke="black" points="1948.23,-328.5 1958.23,-325 1948.23,-321.5 1948.23,-328.5"/>
</g>
<!-- ClassModule -->
<g id="node8" class="node">
<title>ClassModule</title>
<polygon fill="#8dd3c7" stroke="black" points="1855.88,-274 1852.88,-278 1831.88,-278 1828.88,-274 1766.12,-274 1766.12,-238 1855.88,-238 1855.88,-274"/>
<text text-anchor="middle" x="1811" y="-251.8" font-family="Times,serif" font-size="14.00">ClassModule</text>
</g>
<!-- ClassModule&#45;&gt;AppModule -->
<g id="edge7" class="edge">
<title>ClassModule&#45;&gt;AppModule</title>
<path fill="none" stroke="black" d="M1811,-274.01C1811,-290.05 1811,-311 1811,-311 1811,-311 1948.05,-311 1948.05,-311"/>
<polygon fill="black" stroke="black" points="1948.05,-314.5 1958.05,-311 1948.05,-307.5 1948.05,-314.5"/>
</g>
<!-- ClassComponent  -->
<g id="node24" class="node">
<title>ClassComponent </title>
<polygon fill="#fb8072" stroke="black" points="2173.66,-198 2058.34,-198 2058.34,-162 2173.66,-162 2173.66,-198"/>
<text text-anchor="middle" x="2116" y="-175.8" font-family="Times,serif" font-size="14.00">ClassComponent </text>
</g>
<!-- ClassModule&#45;&gt;ClassComponent  -->
<g id="edge23" class="edge">
<title>ClassModule&#45;&gt;ClassComponent </title>
<path fill="none" stroke="black" stroke-dasharray="5,2" d="M1788.53,-237.89C1788.53,-228.1 1788.53,-218 1788.53,-218 1788.53,-218 2096.4,-218 2096.4,-218 2096.4,-218 2096.4,-208.11 2096.4,-208.11"/>
<polygon fill="black" stroke="black" points="2099.9,-208.11 2096.4,-198.11 2092.9,-208.11 2099.9,-208.11"/>
</g>
<!-- DashboardModule -->
<g id="node9" class="node">
<title>DashboardModule</title>
<polygon fill="#8dd3c7" stroke="black" points="1494.19,-274 1491.19,-278 1470.19,-278 1467.19,-274 1373.81,-274 1373.81,-238 1494.19,-238 1494.19,-274"/>
<text text-anchor="middle" x="1434" y="-251.8" font-family="Times,serif" font-size="14.00">DashboardModule</text>
</g>
<!-- DashboardModule&#45;&gt;AppModule -->
<g id="edge8" class="edge">
<title>DashboardModule&#45;&gt;AppModule</title>
<path fill="none" stroke="black" d="M1434,-274.01C1434,-296.49 1434,-332 1434,-332 1434,-332 1947.92,-332 1947.92,-332"/>
<polygon fill="black" stroke="black" points="1947.92,-335.5 1957.92,-332 1947.92,-328.5 1947.92,-335.5"/>
</g>
<!-- CelsiusPipe  -->
<g id="node33" class="node">
<title>CelsiusPipe </title>
<polygon fill="#fb8072" stroke="black" points="109.61,-198 24.39,-198 24.39,-162 109.61,-162 109.61,-198"/>
<text text-anchor="middle" x="67" y="-175.8" font-family="Times,serif" font-size="14.00">CelsiusPipe </text>
</g>
<!-- DashboardModule&#45;&gt;CelsiusPipe  -->
<g id="edge33" class="edge">
<title>DashboardModule&#45;&gt;CelsiusPipe </title>
<path fill="none" stroke="black" stroke-dasharray="5,2" d="M1373.5,-270C1108.94,-270 67,-270 67,-270 67,-270 67,-208.21 67,-208.21"/>
<polygon fill="black" stroke="black" points="70.5,-208.21 67,-198.21 63.5,-208.21 70.5,-208.21"/>
</g>
<!-- HumidityModule -->
<g id="node10" class="node">
<title>HumidityModule</title>
<polygon fill="#8dd3c7" stroke="black" points="1987.72,-274 1984.72,-278 1963.72,-278 1960.72,-274 1874.28,-274 1874.28,-238 1987.72,-238 1987.72,-274"/>
<text text-anchor="middle" x="1931" y="-251.8" font-family="Times,serif" font-size="14.00">HumidityModule</text>
</g>
<!-- HumidityModule&#45;&gt;AppModule -->
<g id="edge9" class="edge">
<title>HumidityModule&#45;&gt;AppModule</title>
<path fill="none" stroke="black" d="M1972.89,-274.11C1972.89,-274.11 1972.89,-292.99 1972.89,-292.99"/>
<polygon fill="black" stroke="black" points="1969.39,-292.99 1972.89,-302.99 1976.39,-292.99 1969.39,-292.99"/>
</g>
<!-- TemperatureModule -->
<g id="node11" class="node">
<title>TemperatureModule</title>
<polygon fill="#8dd3c7" stroke="black" points="1748.56,-274 1745.56,-278 1724.56,-278 1721.56,-274 1617.44,-274 1617.44,-238 1748.56,-238 1748.56,-274"/>
<text text-anchor="middle" x="1683" y="-251.8" font-family="Times,serif" font-size="14.00">TemperatureModule</text>
</g>
<!-- TemperatureModule&#45;&gt;AppModule -->
<g id="edge10" class="edge">
<title>TemperatureModule&#45;&gt;AppModule</title>
<path fill="none" stroke="black" d="M1683,-274.27C1683,-292.56 1683,-318 1683,-318 1683,-318 1948.23,-318 1948.23,-318"/>
<polygon fill="black" stroke="black" points="1948.23,-321.5 1958.23,-318 1948.23,-314.5 1948.23,-321.5"/>
</g>
<!-- LoginComponent -->
<g id="node13" class="node">
<title>LoginComponent</title>
<polygon fill="#ffffb3" stroke="black" points="1250.28,-198 1135.72,-198 1135.72,-162 1250.28,-162 1250.28,-198"/>
<text text-anchor="middle" x="1193" y="-175.8" font-family="Times,serif" font-size="14.00">LoginComponent</text>
</g>
<!-- LoginComponent&#45;&gt;AuthModule -->
<g id="edge12" class="edge">
<title>LoginComponent&#45;&gt;AuthModule</title>
<path fill="none" stroke="black" d="M1193,-198.14C1193,-204.46 1193,-210 1193,-210 1193,-210 1541.32,-210 1541.32,-210 1541.32,-210 1541.32,-227.82 1541.32,-227.82"/>
<polygon fill="black" stroke="black" points="1537.82,-227.82 1541.32,-237.82 1544.82,-227.82 1537.82,-227.82"/>
</g>
<!-- AuthRoutingModule -->
<g id="node14" class="node">
<title>AuthRoutingModule</title>
<polygon fill="#8dd3c7" stroke="black" points="1112.17,-198 1109.17,-202 1088.17,-202 1085.17,-198 979.83,-198 979.83,-162 1112.17,-162 1112.17,-198"/>
<text text-anchor="middle" x="1046" y="-175.8" font-family="Times,serif" font-size="14.00">AuthRoutingModule</text>
</g>
<!-- AuthRoutingModule&#45;&gt;AuthModule -->
<g id="edge13" class="edge">
<title>AuthRoutingModule&#45;&gt;AuthModule</title>
<path fill="none" stroke="black" d="M1046,-198.24C1046,-205.43 1046,-212 1046,-212 1046,-212 1526.78,-212 1526.78,-212 1526.78,-212 1526.78,-227.85 1526.78,-227.85"/>
<polygon fill="black" stroke="black" points="1523.28,-227.85 1526.78,-237.85 1530.28,-227.85 1523.28,-227.85"/>
</g>
<!-- ClaimGridComponent -->
<g id="node15" class="node">
<title>ClaimGridComponent</title>
<polygon fill="#ffffb3" stroke="black" points="3811.71,-122 3670.29,-122 3670.29,-86 3811.71,-86 3811.71,-122"/>
<text text-anchor="middle" x="3741" y="-99.8" font-family="Times,serif" font-size="14.00">ClaimGridComponent</text>
</g>
<!-- ClaimGridModule -->
<g id="node18" class="node">
<title>ClaimGridModule</title>
<polygon fill="#8dd3c7" stroke="black" points="3652.93,-198 3649.93,-202 3628.93,-202 3625.93,-198 3533.07,-198 3533.07,-162 3652.93,-162 3652.93,-198"/>
<text text-anchor="middle" x="3593" y="-175.8" font-family="Times,serif" font-size="14.00">ClaimGridModule</text>
</g>
<!-- ClaimGridComponent&#45;&gt;ClaimGridModule -->
<g id="edge14" class="edge">
<title>ClaimGridComponent&#45;&gt;ClaimGridModule</title>
<path fill="none" stroke="black" d="M3716.71,-122.31C3716.71,-142.15 3716.71,-171 3716.71,-171 3716.71,-171 3663.05,-171 3663.05,-171"/>
<polygon fill="black" stroke="black" points="3663.05,-167.5 3653.05,-171 3663.05,-174.5 3663.05,-167.5"/>
</g>
<!-- DialogComponent -->
<g id="node16" class="node">
<title>DialogComponent</title>
<polygon fill="#ffffb3" stroke="black" points="3652.94,-122 3533.06,-122 3533.06,-86 3652.94,-86 3652.94,-122"/>
<text text-anchor="middle" x="3593" y="-99.8" font-family="Times,serif" font-size="14.00">DialogComponent</text>
</g>
<!-- DialogComponent&#45;&gt;ClaimGridModule -->
<g id="edge15" class="edge">
<title>DialogComponent&#45;&gt;ClaimGridModule</title>
<path fill="none" stroke="black" d="M3593,-122.01C3593,-122.01 3593,-151.85 3593,-151.85"/>
<polygon fill="black" stroke="black" points="3589.5,-151.85 3593,-161.85 3596.5,-151.85 3589.5,-151.85"/>
</g>
<!-- VentComponent -->
<g id="node17" class="node">
<title>VentComponent</title>
<polygon fill="#ffffb3" stroke="black" points="3938.05,-122 3829.95,-122 3829.95,-86 3938.05,-86 3938.05,-122"/>
<text text-anchor="middle" x="3884" y="-99.8" font-family="Times,serif" font-size="14.00">VentComponent</text>
</g>
<!-- VentComponent&#45;&gt;ClaimGridModule -->
<g id="edge16" class="edge">
<title>VentComponent&#45;&gt;ClaimGridModule</title>
<path fill="none" stroke="black" d="M3884,-122.01C3884,-144.49 3884,-180 3884,-180 3884,-180 3662.94,-180 3662.94,-180"/>
<polygon fill="black" stroke="black" points="3662.94,-176.5 3652.94,-180 3662.94,-183.5 3662.94,-176.5"/>
</g>
<!-- ClaimGridModule&#45;&gt;ClassModule -->
<g id="edge22" class="edge">
<title>ClaimGridModule&#45;&gt;ClassModule</title>
<path fill="none" stroke="black" d="M3591,-198.18C3591,-211.04 3591,-226 3591,-226 3591,-226 1844.71,-226 1844.71,-226 1844.71,-226 1844.71,-227.86 1844.71,-227.86"/>
<polygon fill="black" stroke="black" points="1841.21,-227.86 1844.71,-237.86 1848.21,-227.86 1841.21,-227.86"/>
</g>
<!-- ClaimGridModule&#45;&gt;DashboardModule -->
<g id="edge32" class="edge">
<title>ClaimGridModule&#45;&gt;DashboardModule</title>
<path fill="none" stroke="black" d="M3562.99,-198.15C3562.99,-199.3 3562.99,-200 3562.99,-200 3562.99,-200 1455.84,-200 1455.84,-200 1455.84,-200 1455.84,-227.97 1455.84,-227.97"/>
<polygon fill="black" stroke="black" points="1452.34,-227.97 1455.84,-237.97 1459.34,-227.97 1452.34,-227.97"/>
</g>
<!-- ClaimGridComponent  -->
<g id="node19" class="node">
<title>ClaimGridComponent </title>
<polygon fill="#fb8072" stroke="black" points="3809.21,-274 3664.79,-274 3664.79,-238 3809.21,-238 3809.21,-274"/>
<text text-anchor="middle" x="3737" y="-251.8" font-family="Times,serif" font-size="14.00">ClaimGridComponent </text>
</g>
<!-- ClaimGridModule&#45;&gt;ClaimGridComponent  -->
<g id="edge17" class="edge">
<title>ClaimGridModule&#45;&gt;ClaimGridComponent </title>
<path fill="none" stroke="black" stroke-dasharray="5,2" d="M3652.95,-189C3701.9,-189 3763.04,-189 3763.04,-189 3763.04,-189 3763.04,-227.69 3763.04,-227.69"/>
<polygon fill="black" stroke="black" points="3759.54,-227.69 3763.04,-237.69 3766.54,-227.69 3759.54,-227.69"/>
</g>
<!-- VentComponent  -->
<g id="node20" class="node">
<title>VentComponent </title>
<polygon fill="#fb8072" stroke="black" points="3647.04,-274 3534.96,-274 3534.96,-238 3647.04,-238 3647.04,-274"/>
<text text-anchor="middle" x="3591" y="-251.8" font-family="Times,serif" font-size="14.00">VentComponent </text>
</g>
<!-- ClaimGridModule&#45;&gt;VentComponent  -->
<g id="edge18" class="edge">
<title>ClaimGridModule&#45;&gt;VentComponent </title>
<path fill="none" stroke="black" stroke-dasharray="5,2" d="M3619.01,-198.01C3619.01,-198.01 3619.01,-227.85 3619.01,-227.85"/>
<polygon fill="black" stroke="black" points="3615.51,-227.85 3619.01,-237.85 3622.51,-227.85 3615.51,-227.85"/>
</g>
<!-- ClassComponent -->
<g id="node21" class="node">
<title>ClassComponent</title>
<polygon fill="#ffffb3" stroke="black" points="2309.66,-198 2198.34,-198 2198.34,-162 2309.66,-162 2309.66,-198"/>
<text text-anchor="middle" x="2254" y="-175.8" font-family="Times,serif" font-size="14.00">ClassComponent</text>
</g>
<!-- ClassComponent&#45;&gt;ClassModule -->
<g id="edge19" class="edge">
<title>ClassComponent&#45;&gt;ClassModule</title>
<path fill="none" stroke="black" d="M2239.03,-198.13C2239.03,-208.71 2239.03,-220 2239.03,-220 2239.03,-220 1811,-220 1811,-220 1811,-220 1811,-227.58 1811,-227.58"/>
<polygon fill="black" stroke="black" points="1807.5,-227.58 1811,-237.58 1814.5,-227.58 1807.5,-227.58"/>
</g>
<!-- StudentComponent -->
<g id="node22" class="node">
<title>StudentComponent</title>
<polygon fill="#ffffb3" stroke="black" points="2600.11,-198 2475.89,-198 2475.89,-162 2600.11,-162 2600.11,-198"/>
<text text-anchor="middle" x="2538" y="-175.8" font-family="Times,serif" font-size="14.00">StudentComponent</text>
</g>
<!-- StudentComponent&#45;&gt;ClassModule -->
<g id="edge20" class="edge">
<title>StudentComponent&#45;&gt;ClassModule</title>
<path fill="none" stroke="black" d="M2535.05,-198.15C2535.05,-210.27 2535.05,-224 2535.05,-224 2535.05,-224 1833.47,-224 1833.47,-224 1833.47,-224 1833.47,-227.76 1833.47,-227.76"/>
<polygon fill="black" stroke="black" points="1829.97,-227.76 1833.47,-237.76 1836.97,-227.76 1829.97,-227.76"/>
</g>
<!-- StudentsComponent -->
<g id="node23" class="node">
<title>StudentsComponent</title>
<polygon fill="#ffffb3" stroke="black" points="2457.56,-198 2328.44,-198 2328.44,-162 2457.56,-162 2457.56,-198"/>
<text text-anchor="middle" x="2393" y="-175.8" font-family="Times,serif" font-size="14.00">StudentsComponent</text>
</g>
<!-- StudentsComponent&#45;&gt;ClassModule -->
<g id="edge21" class="edge">
<title>StudentsComponent&#45;&gt;ClassModule</title>
<path fill="none" stroke="black" d="M2365.97,-198.06C2365.97,-209.44 2365.97,-222 2365.97,-222 2365.97,-222 1822.24,-222 1822.24,-222 1822.24,-222 1822.24,-227.81 1822.24,-227.81"/>
<polygon fill="black" stroke="black" points="1818.74,-227.81 1822.24,-237.81 1825.74,-227.81 1818.74,-227.81"/>
</g>
<!-- StudentsService -->
<g id="node25" class="node">
<title>StudentsService</title>
<ellipse fill="#fdb462" stroke="black" cx="1961" cy="-180" rx="73.01" ry="18"/>
<text text-anchor="middle" x="1961" y="-175.8" font-family="Times,serif" font-size="14.00">StudentsService</text>
</g>
<!-- StudentsService&#45;&gt;ClassModule -->
<g id="edge24" class="edge">
<title>StudentsService&#45;&gt;ClassModule</title>
<path fill="none" stroke="black" d="M1902.01,-191C1902.01,-201.58 1902.01,-216 1902.01,-216 1902.01,-216 1799.76,-216 1799.76,-216 1799.76,-216 1799.76,-227.87 1799.76,-227.87"/>
<polygon fill="black" stroke="black" points="1796.26,-227.87 1799.76,-237.87 1803.26,-227.87 1796.26,-227.87"/>
</g>
<!-- VentService -->
<g id="node26" class="node">
<title>VentService</title>
<ellipse fill="#fdb462" stroke="black" cx="1811" cy="-180" rx="58.53" ry="18"/>
<text text-anchor="middle" x="1811" y="-175.8" font-family="Times,serif" font-size="14.00">VentService</text>
</g>
<!-- VentService&#45;&gt;ClassModule -->
<g id="edge25" class="edge">
<title>VentService&#45;&gt;ClassModule</title>
<path fill="none" stroke="black" d="M1777.29,-195.02C1777.29,-195.02 1777.29,-227.8 1777.29,-227.8"/>
<polygon fill="black" stroke="black" points="1773.79,-227.8 1777.29,-237.8 1780.79,-227.8 1773.79,-227.8"/>
</g>
<!-- CelsiusPipe -->
<g id="node27" class="node">
<title>CelsiusPipe</title>
<polygon fill="#ffffb3" stroke="black" points="650.11,-198 567.89,-198 567.89,-162 650.11,-162 650.11,-198"/>
<text text-anchor="middle" x="609" y="-175.8" font-family="Times,serif" font-size="14.00">CelsiusPipe</text>
</g>
<!-- CelsiusPipe&#45;&gt;DashboardModule -->
<g id="edge26" class="edge">
<title>CelsiusPipe&#45;&gt;DashboardModule</title>
<path fill="none" stroke="black" d="M609,-198.17C609,-219.5 609,-252 609,-252 609,-252 1363.67,-252 1363.67,-252"/>
<polygon fill="black" stroke="black" points="1363.67,-255.5 1373.67,-252 1363.67,-248.5 1363.67,-255.5"/>
</g>
<!-- ClaimComponent -->
<g id="node28" class="node">
<title>ClaimComponent</title>
<polygon fill="#ffffb3" stroke="black" points="549.56,-198 434.44,-198 434.44,-162 549.56,-162 549.56,-198"/>
<text text-anchor="middle" x="492" y="-175.8" font-family="Times,serif" font-size="14.00">ClaimComponent</text>
</g>
<!-- ClaimComponent&#45;&gt;DashboardModule -->
<g id="edge27" class="edge">
<title>ClaimComponent&#45;&gt;DashboardModule</title>
<path fill="none" stroke="black" d="M492,-198.01C492,-220.49 492,-256 492,-256 492,-256 1363.64,-256 1363.64,-256"/>
<polygon fill="black" stroke="black" points="1363.64,-259.5 1373.64,-256 1363.64,-252.5 1363.64,-259.5"/>
</g>
<!-- DashboardComponent -->
<g id="node29" class="node">
<title>DashboardComponent</title>
<polygon fill="#ffffb3" stroke="black" points="415.97,-198 274.03,-198 274.03,-162 415.97,-162 415.97,-198"/>
<text text-anchor="middle" x="345" y="-175.8" font-family="Times,serif" font-size="14.00">DashboardComponent</text>
</g>
<!-- DashboardComponent&#45;&gt;DashboardModule -->
<g id="edge28" class="edge">
<title>DashboardComponent&#45;&gt;DashboardModule</title>
<path fill="none" stroke="black" d="M345,-198.38C345,-222.28 345,-261 345,-261 345,-261 1363.9,-261 1363.9,-261"/>
<polygon fill="black" stroke="black" points="1363.9,-264.5 1373.9,-261 1363.9,-257.5 1363.9,-264.5"/>
</g>
<!-- HeaderComponent -->
<g id="node30" class="node">
<title>HeaderComponent</title>
<polygon fill="#ffffb3" stroke="black" points="255.74,-198 134.26,-198 134.26,-162 255.74,-162 255.74,-198"/>
<text text-anchor="middle" x="195" y="-175.8" font-family="Times,serif" font-size="14.00">HeaderComponent</text>
</g>
<!-- HeaderComponent&#45;&gt;DashboardModule -->
<g id="edge29" class="edge">
<title>HeaderComponent&#45;&gt;DashboardModule</title>
<path fill="none" stroke="black" d="M195,-198.03C195,-222.98 195,-265 195,-265 195,-265 1363.82,-265 1363.82,-265"/>
<polygon fill="black" stroke="black" points="1363.82,-268.5 1373.82,-265 1363.82,-261.5 1363.82,-268.5"/>
</g>
<!-- MainComponent -->
<g id="node31" class="node">
<title>MainComponent</title>
<polygon fill="#ffffb3" stroke="black" points="940.38,-198 829.62,-198 829.62,-162 940.38,-162 940.38,-198"/>
<text text-anchor="middle" x="885" y="-175.8" font-family="Times,serif" font-size="14.00">MainComponent</text>
</g>
<!-- MainComponent&#45;&gt;DashboardModule -->
<g id="edge30" class="edge">
<title>MainComponent&#45;&gt;DashboardModule</title>
<path fill="none" stroke="black" d="M885,-198.22C885,-216.83 885,-243 885,-243 885,-243 1363.68,-243 1363.68,-243"/>
<polygon fill="black" stroke="black" points="1363.68,-246.5 1373.68,-243 1363.68,-239.5 1363.68,-246.5"/>
</g>
<!-- NavigationComponent -->
<g id="node32" class="node">
<title>NavigationComponent</title>
<polygon fill="#ffffb3" stroke="black" points="811.54,-198 668.46,-198 668.46,-162 811.54,-162 811.54,-198"/>
<text text-anchor="middle" x="740" y="-175.8" font-family="Times,serif" font-size="14.00">NavigationComponent</text>
</g>
<!-- NavigationComponent&#45;&gt;DashboardModule -->
<g id="edge31" class="edge">
<title>NavigationComponent&#45;&gt;DashboardModule</title>
<path fill="none" stroke="black" d="M740,-198.31C740,-218.15 740,-247 740,-247 740,-247 1363.63,-247 1363.63,-247"/>
<polygon fill="black" stroke="black" points="1363.63,-250.5 1373.63,-247 1363.63,-243.5 1363.63,-250.5"/>
</g>
<!-- HumidityComponent -->
<g id="node34" class="node">
<title>HumidityComponent</title>
<polygon fill="#ffffb3" stroke="black" points="3040.5,-198 2905.5,-198 2905.5,-162 3040.5,-162 3040.5,-198"/>
<text text-anchor="middle" x="2973" y="-175.8" font-family="Times,serif" font-size="14.00">HumidityComponent</text>
</g>
<!-- HumidityComponent&#45;&gt;HumidityModule -->
<g id="edge34" class="edge">
<title>HumidityComponent&#45;&gt;HumidityModule</title>
<path fill="none" stroke="black" d="M2909.87,-198.19C2909.87,-213.18 2909.87,-232 2909.87,-232 2909.87,-232 1944.81,-232 1944.81,-232 1944.81,-232 1944.81,-232.58 1944.81,-232.58"/>
<polygon fill="black" stroke="black" points="1941.31,-227.81 1944.81,-237.81 1948.31,-227.81 1941.31,-227.81"/>
</g>
<!-- HumiditySlider -->
<g id="node35" class="node">
<title>HumiditySlider</title>
<polygon fill="#ffffb3" stroke="black" points="3324.61,-198 3221.39,-198 3221.39,-162 3324.61,-162 3324.61,-198"/>
<text text-anchor="middle" x="3273" y="-175.8" font-family="Times,serif" font-size="14.00">HumiditySlider</text>
</g>
<!-- HumiditySlider&#45;&gt;HumidityModule -->
<g id="edge35" class="edge">
<title>HumiditySlider&#45;&gt;HumidityModule</title>
<path fill="none" stroke="black" d="M3273,-198.03C3273,-214.4 3273,-236 3273,-236 3273,-236 1973.34,-236 1973.34,-236 1973.34,-236 1973.34,-236.18 1973.34,-236.18"/>
<polygon fill="black" stroke="black" points="1969.84,-227.85 1973.34,-237.85 1976.84,-227.85 1969.84,-227.85"/>
</g>
<!-- OHumidityComponent -->
<g id="node36" class="node">
<title>OHumidityComponent</title>
<polygon fill="#ffffb3" stroke="black" points="3203.61,-198 3058.39,-198 3058.39,-162 3203.61,-162 3203.61,-198"/>
<text text-anchor="middle" x="3131" y="-175.8" font-family="Times,serif" font-size="14.00">OHumidityComponent</text>
</g>
<!-- OHumidityComponent&#45;&gt;HumidityModule -->
<g id="edge36" class="edge">
<title>OHumidityComponent&#45;&gt;HumidityModule</title>
<path fill="none" stroke="black" d="M3131.02,-198.28C3131.02,-213.95 3131.02,-234 3131.02,-234 3131.02,-234 1959.08,-234 1959.08,-234 1959.08,-234 1959.08,-234.38 1959.08,-234.38"/>
<polygon fill="black" stroke="black" points="1955.58,-227.83 1959.08,-237.83 1962.58,-227.83 1955.58,-227.83"/>
</g>
<!-- OHumidityModule -->
<g id="node37" class="node">
<title>OHumidityModule</title>
<polygon fill="#8dd3c7" stroke="black" points="2763.83,-198 2760.83,-202 2739.83,-202 2736.83,-198 2640.17,-198 2640.17,-162 2763.83,-162 2763.83,-198"/>
<text text-anchor="middle" x="2702" y="-175.8" font-family="Times,serif" font-size="14.00">OHumidityModule</text>
</g>
<!-- OHumidityModule&#45;&gt;HumidityModule -->
<g id="edge37" class="edge">
<title>OHumidityModule&#45;&gt;HumidityModule</title>
<path fill="none" stroke="black" d="M2695.2,-198.15C2695.2,-211.74 2695.2,-228 2695.2,-228 2695.2,-228 1916.28,-228 1916.28,-228 1916.28,-228 1916.28,-228.98 1916.28,-228.98"/>
<polygon fill="black" stroke="black" points="1912.78,-227.79 1916.28,-237.79 1919.78,-227.79 1912.78,-227.79"/>
</g>
<!-- OHumidityComponent  -->
<g id="node39" class="node">
<title>OHumidityComponent </title>
<polygon fill="#80b1d3" stroke="black" points="2776.11,-122 2627.89,-122 2627.89,-86 2776.11,-86 2776.11,-122"/>
<text text-anchor="middle" x="2702" y="-99.8" font-family="Times,serif" font-size="14.00">OHumidityComponent </text>
</g>
<!-- OHumidityModule&#45;&gt;OHumidityComponent  -->
<g id="edge39" class="edge">
<title>OHumidityModule&#45;&gt;OHumidityComponent </title>
<path fill="none" stroke="black" stroke-dasharray="1,5" d="M2681.45,-161.99C2681.45,-161.99 2681.45,-132.15 2681.45,-132.15"/>
<polygon fill="black" stroke="black" points="2684.95,-132.15 2681.45,-122.15 2677.95,-132.15 2684.95,-132.15"/>
</g>
<!-- PresetsModule -->
<g id="node38" class="node">
<title>PresetsModule</title>
<polygon fill="#8dd3c7" stroke="black" points="2880.7,-198 2877.7,-202 2856.7,-202 2853.7,-198 2781.3,-198 2781.3,-162 2880.7,-162 2880.7,-198"/>
<text text-anchor="middle" x="2831" y="-175.8" font-family="Times,serif" font-size="14.00">PresetsModule</text>
</g>
<!-- PresetsModule&#45;&gt;HumidityModule -->
<g id="edge38" class="edge">
<title>PresetsModule&#45;&gt;HumidityModule</title>
<path fill="none" stroke="black" d="M2786.97,-198.05C2786.97,-212.37 2786.97,-230 2786.97,-230 2786.97,-230 1930.54,-230 1930.54,-230 1930.54,-230 1930.54,-230.79 1930.54,-230.79"/>
<polygon fill="black" stroke="black" points="1927.04,-227.94 1930.54,-237.94 1934.04,-227.94 1927.04,-227.94"/>
</g>
<!-- PresetsModule&#45;&gt;TemperatureModule -->
<g id="edge49" class="edge">
<title>PresetsModule&#45;&gt;TemperatureModule</title>
<path fill="none" stroke="black" d="M2784.19,-198.17C2784.19,-200.45 2784.19,-202 2784.19,-202 2784.19,-202 1724.21,-202 1724.21,-202 1724.21,-202 1724.21,-227.72 1724.21,-227.72"/>
<polygon fill="black" stroke="black" points="1720.71,-227.72 1724.21,-237.72 1727.71,-227.72 1720.71,-227.72"/>
</g>
<!-- PresetsComponent  -->
<g id="node44" class="node">
<title>PresetsComponent </title>
<polygon fill="#fb8072" stroke="black" points="2914.49,-274 2789.51,-274 2789.51,-238 2914.49,-238 2914.49,-274"/>
<text text-anchor="middle" x="2852" y="-251.8" font-family="Times,serif" font-size="14.00">PresetsComponent </text>
</g>
<!-- PresetsModule&#45;&gt;PresetsComponent  -->
<g id="edge44" class="edge">
<title>PresetsModule&#45;&gt;PresetsComponent </title>
<path fill="none" stroke="black" stroke-dasharray="5,2" d="M2820.04,-198.01C2820.04,-198.01 2820.04,-227.85 2820.04,-227.85"/>
<polygon fill="black" stroke="black" points="2816.54,-227.85 2820.04,-237.85 2823.54,-227.85 2816.54,-227.85"/>
</g>
<!-- WeatherService -->
<g id="node40" class="node">
<title>WeatherService</title>
<ellipse fill="#fdb462" stroke="black" cx="2873" cy="-104" rx="72.89" ry="18"/>
<text text-anchor="middle" x="2873" y="-99.8" font-family="Times,serif" font-size="14.00">WeatherService</text>
</g>
<!-- WeatherService&#45;&gt;OHumidityModule -->
<g id="edge40" class="edge">
<title>WeatherService&#45;&gt;OHumidityModule</title>
<path fill="none" stroke="black" d="M2840.45,-120.34C2840.45,-130.64 2840.45,-142 2840.45,-142 2840.45,-142 2722.55,-142 2722.55,-142 2722.55,-142 2722.55,-151.89 2722.55,-151.89"/>
<polygon fill="black" stroke="black" points="2719.05,-151.89 2722.55,-161.89 2726.05,-151.89 2719.05,-151.89"/>
</g>
<!-- OTempModule -->
<g id="node42" class="node">
<title>OTempModule</title>
<polygon fill="#8dd3c7" stroke="black" points="3459.31,-198 3456.31,-202 3435.31,-202 3432.31,-198 3356.69,-198 3356.69,-162 3459.31,-162 3459.31,-198"/>
<text text-anchor="middle" x="3408" y="-175.8" font-family="Times,serif" font-size="14.00">OTempModule</text>
</g>
<!-- WeatherService&#45;&gt;OTempModule -->
<g id="edge42" class="edge">
<title>WeatherService&#45;&gt;OTempModule</title>
<path fill="none" stroke="black" d="M2945.71,-104C3091.99,-104 3408,-104 3408,-104 3408,-104 3408,-151.99 3408,-151.99"/>
<polygon fill="black" stroke="black" points="3404.5,-151.99 3408,-161.99 3411.5,-151.99 3404.5,-151.99"/>
</g>
<!-- OTempComponent  -->
<g id="node41" class="node">
<title>OTempComponent </title>
<polygon fill="#80b1d3" stroke="black" points="3492.6,-274 3365.4,-274 3365.4,-238 3492.6,-238 3492.6,-274"/>
<text text-anchor="middle" x="3429" y="-251.8" font-family="Times,serif" font-size="14.00">OTempComponent </text>
</g>
<!-- OTempModule&#45;&gt;TemperatureModule -->
<g id="edge48" class="edge">
<title>OTempModule&#45;&gt;TemperatureModule</title>
<path fill="none" stroke="black" d="M3361.02,-198.19C3361.02,-201.54 3361.02,-204 3361.02,-204 3361.02,-204 1736.37,-204 1736.37,-204 1736.37,-204 1736.37,-227.81 1736.37,-227.81"/>
<polygon fill="black" stroke="black" points="1732.87,-227.81 1736.37,-237.81 1739.87,-227.81 1732.87,-227.81"/>
</g>
<!-- OTempModule&#45;&gt;OTempComponent  -->
<g id="edge41" class="edge">
<title>OTempModule&#45;&gt;OTempComponent </title>
<path fill="none" stroke="black" stroke-dasharray="1,5" d="M3412.18,-198.01C3412.18,-198.01 3412.18,-227.85 3412.18,-227.85"/>
<polygon fill="black" stroke="black" points="3408.68,-227.85 3412.18,-237.85 3415.68,-227.85 3408.68,-227.85"/>
</g>
<!-- PresetsComponent -->
<g id="node43" class="node">
<title>PresetsComponent</title>
<polygon fill="#ffffb3" stroke="black" points="3058.48,-274 2937.52,-274 2937.52,-238 3058.48,-238 3058.48,-274"/>
<text text-anchor="middle" x="2998" y="-251.8" font-family="Times,serif" font-size="14.00">PresetsComponent</text>
</g>
<!-- PresetsComponent&#45;&gt;PresetsModule -->
<g id="edge43" class="edge">
<title>PresetsComponent&#45;&gt;PresetsModule</title>
<path fill="none" stroke="black" d="M2989,-237.94C2989,-226.56 2989,-214 2989,-214 2989,-214 2850.32,-214 2850.32,-214 2850.32,-214 2850.32,-208.19 2850.32,-208.19"/>
<polygon fill="black" stroke="black" points="2853.82,-208.19 2850.32,-198.19 2846.82,-208.19 2853.82,-208.19"/>
</g>
<!-- DashboardSlider -->
<g id="node45" class="node">
<title>DashboardSlider</title>
<polygon fill="#ffffb3" stroke="black" points="1400.08,-198 1289.92,-198 1289.92,-162 1400.08,-162 1400.08,-198"/>
<text text-anchor="middle" x="1345" y="-175.8" font-family="Times,serif" font-size="14.00">DashboardSlider</text>
</g>
<!-- DashboardSlider&#45;&gt;TemperatureModule -->
<g id="edge45" class="edge">
<title>DashboardSlider&#45;&gt;TemperatureModule</title>
<path fill="none" stroke="black" d="M1386.97,-198.21C1386.97,-203.55 1386.97,-208 1386.97,-208 1386.97,-208 1641.11,-208 1641.11,-208 1641.11,-208 1641.11,-227.85 1641.11,-227.85"/>
<polygon fill="black" stroke="black" points="1637.61,-227.85 1641.11,-237.85 1644.61,-227.85 1637.61,-227.85"/>
</g>
<!-- OTempComponent -->
<g id="node46" class="node">
<title>OTempComponent</title>
<polygon fill="#ffffb3" stroke="black" points="1712.1,-198 1587.9,-198 1587.9,-162 1712.1,-162 1712.1,-198"/>
<text text-anchor="middle" x="1650" y="-175.8" font-family="Times,serif" font-size="14.00">OTempComponent</text>
</g>
<!-- OTempComponent&#45;&gt;TemperatureModule -->
<g id="edge46" class="edge">
<title>OTempComponent&#45;&gt;TemperatureModule</title>
<path fill="none" stroke="black" d="M1688.4,-198.01C1688.4,-198.01 1688.4,-227.85 1688.4,-227.85"/>
<polygon fill="black" stroke="black" points="1684.9,-227.85 1688.4,-237.85 1691.9,-227.85 1684.9,-227.85"/>
</g>
<!-- TemperatureComponent -->
<g id="node47" class="node">
<title>TemperatureComponent</title>
<polygon fill="#ffffb3" stroke="black" points="1570.35,-198 1417.65,-198 1417.65,-162 1570.35,-162 1570.35,-198"/>
<text text-anchor="middle" x="1494" y="-175.8" font-family="Times,serif" font-size="14.00">TemperatureComponent</text>
</g>
<!-- TemperatureComponent&#45;&gt;TemperatureModule -->
<g id="edge47" class="edge">
<title>TemperatureComponent&#45;&gt;TemperatureModule</title>
<path fill="none" stroke="black" d="M1555.87,-198.06C1555.87,-202.49 1555.87,-206 1555.87,-206 1555.87,-206 1664.76,-206 1664.76,-206 1664.76,-206 1664.76,-227.95 1664.76,-227.95"/>
<polygon fill="black" stroke="black" points="1661.26,-227.95 1664.76,-237.95 1668.26,-227.95 1661.26,-227.95"/>
</g>
</g>
</svg>
