<?xml version="1.0" encoding="UTF-8" standalone="no"?>
<!DOCTYPE svg PUBLIC "-//W3C//DTD SVG 1.1//EN"
 "http://www.w3.org/Graphics/SVG/1.1/DTD/svg11.dtd">
<!-- Generated by graphviz version 2.44.1 (20200629.0846)
 -->
<!-- Title: dependencies Pages: 1 -->
<svg width="638pt" height="284pt"
 viewBox="0.00 0.00 638.00 284.00" xmlns="http://www.w3.org/2000/svg" xmlns:xlink="http://www.w3.org/1999/xlink">
<g id="graph0" class="graph" transform="scale(1 1) rotate(0) translate(4 280)">
<title>dependencies</title>
<polygon fill="white" stroke="transparent" points="-4,4 -4,-280 634,-280 634,4 -4,4"/>
<text text-anchor="start" x="294.01" y="-42.4" font-family="sans-serif" font-weight="bold" font-size="14.00">Legend</text>
<polygon fill="#ffffb3" stroke="transparent" points="81,-10 81,-30 101,-30 101,-10 81,-10"/>
<text text-anchor="start" x="104.63" y="-15.4" font-family="sans-serif" font-size="14.00"> &#160;Declarations</text>
<polygon fill="#8dd3c7" stroke="transparent" points="194,-10 194,-30 214,-30 214,-10 194,-10"/>
<text text-anchor="start" x="217.73" y="-15.4" font-family="sans-serif" font-size="14.00"> &#160;Module</text>
<polygon fill="#80b1d3" stroke="transparent" points="280,-10 280,-30 300,-30 300,-10 280,-10"/>
<text text-anchor="start" x="303.78" y="-15.4" font-family="sans-serif" font-size="14.00"> &#160;Bootstrap</text>
<polygon fill="#fdb462" stroke="transparent" points="377,-10 377,-30 397,-30 397,-10 377,-10"/>
<text text-anchor="start" x="400.67" y="-15.4" font-family="sans-serif" font-size="14.00"> &#160;Providers</text>
<polygon fill="#fb8072" stroke="transparent" points="473,-10 473,-30 493,-30 493,-10 473,-10"/>
<text text-anchor="start" x="496.73" y="-15.4" font-family="sans-serif" font-size="14.00"> &#160;Exports</text>
<g id="clust1" class="cluster">
<title>cluster_OHumidityModule</title>
<polygon fill="none" stroke="black" stroke-dasharray="1,5" points="8,-70 8,-268 622,-268 622,-70 8,-70"/>
</g>
<g id="clust5" class="cluster">
<title>cluster_OHumidityModule_bootstrap</title>
<polygon fill="none" stroke="black" points="263,-208 263,-260 427,-260 427,-208 263,-208"/>
</g>
<g id="clust3" class="cluster">
<title>cluster_OHumidityModule_imports</title>
<polygon fill="none" stroke="black" points="186,-78 186,-130 614,-130 614,-78 186,-78"/>
</g>
<g id="clust6" class="cluster">
<title>cluster_OHumidityModule_providers</title>
<polygon fill="none" stroke="black" points="16,-78 16,-130 178,-130 178,-78 16,-78"/>
</g>
<!-- BrowserModule -->
<g id="node1" class="node">
<title>BrowserModule</title>
<polygon fill="#8dd3c7" stroke="black" points="606.47,-122 603.47,-126 582.47,-126 579.47,-122 499.53,-122 499.53,-86 606.47,-86 606.47,-122"/>
<text text-anchor="middle" x="553" y="-99.8" font-family="Times,serif" font-size="14.00">BrowserModule</text>
</g>
<!-- OHumidityModule -->
<g id="node4" class="node">
<title>OHumidityModule</title>
<polygon fill="#8dd3c7" stroke="black" points="406.83,-187 403.83,-191 382.83,-191 379.83,-187 283.17,-187 283.17,-151 406.83,-151 406.83,-187"/>
<text text-anchor="middle" x="345" y="-164.8" font-family="Times,serif" font-size="14.00">OHumidityModule</text>
</g>
<!-- BrowserModule&#45;&gt;OHumidityModule -->
<g id="edge1" class="edge">
<title>BrowserModule&#45;&gt;OHumidityModule</title>
<path fill="none" stroke="black" d="M553,-122.11C553,-141.34 553,-169 553,-169 553,-169 416.84,-169 416.84,-169"/>
<polygon fill="black" stroke="black" points="416.84,-165.5 406.84,-169 416.84,-172.5 416.84,-165.5"/>
</g>
<!-- HttpClientModule -->
<g id="node2" class="node">
<title>HttpClientModule</title>
<polygon fill="#8dd3c7" stroke="black" points="481.16,-122 478.16,-126 457.16,-126 454.16,-122 362.84,-122 362.84,-86 481.16,-86 481.16,-122"/>
<text text-anchor="middle" x="422" y="-99.8" font-family="Times,serif" font-size="14.00">HttpClientModule</text>
</g>
<!-- HttpClientModule&#45;&gt;OHumidityModule -->
<g id="edge2" class="edge">
<title>HttpClientModule&#45;&gt;OHumidityModule</title>
<path fill="none" stroke="black" d="M384.67,-122.11C384.67,-122.11 384.67,-140.99 384.67,-140.99"/>
<polygon fill="black" stroke="black" points="381.17,-140.99 384.67,-150.99 388.17,-140.99 381.17,-140.99"/>
</g>
<!-- HttpClientJsonpModule -->
<g id="node3" class="node">
<title>HttpClientJsonpModule</title>
<polygon fill="#8dd3c7" stroke="black" points="344.05,-122 341.05,-126 320.05,-126 317.05,-122 193.95,-122 193.95,-86 344.05,-86 344.05,-122"/>
<text text-anchor="middle" x="269" y="-99.8" font-family="Times,serif" font-size="14.00">HttpClientJsonpModule</text>
</g>
<!-- HttpClientJsonpModule&#45;&gt;OHumidityModule -->
<g id="edge3" class="edge">
<title>HttpClientJsonpModule&#45;&gt;OHumidityModule</title>
<path fill="none" stroke="black" d="M313.81,-122.11C313.81,-122.11 313.81,-140.99 313.81,-140.99"/>
<polygon fill="black" stroke="black" points="310.31,-140.99 313.81,-150.99 317.31,-140.99 310.31,-140.99"/>
</g>
<!-- OHumidityComponent  -->
<g id="node5" class="node">
<title>OHumidityComponent </title>
<polygon fill="#80b1d3" stroke="black" points="419.11,-252 270.89,-252 270.89,-216 419.11,-216 419.11,-252"/>
<text text-anchor="middle" x="345" y="-229.8" font-family="Times,serif" font-size="14.00">OHumidityComponent </text>
</g>
<!-- OHumidityModule&#45;&gt;OHumidityComponent  -->
<g id="edge4" class="edge">
<title>OHumidityModule&#45;&gt;OHumidityComponent </title>
<path fill="none" stroke="black" stroke-dasharray="1,5" d="M345,-187.11C345,-187.11 345,-205.99 345,-205.99"/>
<polygon fill="black" stroke="black" points="341.5,-205.99 345,-215.99 348.5,-205.99 341.5,-205.99"/>
</g>
<!-- WeatherService -->
<g id="node6" class="node">
<title>WeatherService</title>
<ellipse fill="#fdb462" stroke="black" cx="97" cy="-104" rx="72.89" ry="18"/>
<text text-anchor="middle" x="97" y="-99.8" font-family="Times,serif" font-size="14.00">WeatherService</text>
</g>
<!-- WeatherService&#45;&gt;OHumidityModule -->
<g id="edge5" class="edge">
<title>WeatherService&#45;&gt;OHumidityModule</title>
<path fill="none" stroke="black" d="M97,-122.11C97,-141.34 97,-169 97,-169 97,-169 273.06,-169 273.06,-169"/>
<polygon fill="black" stroke="black" points="273.06,-172.5 283.06,-169 273.06,-165.5 273.06,-172.5"/>
</g>
</g>
</svg>
